<svg width="25" height="25" viewBox="0 0 25 25" fill="none" xmlns="http://www.w3.org/2000/svg">
<g id="vuesax/bold/bag-2">
<g id="bag-2">
<path id="Vector" d="M20.4597 9.46039C19.7897 8.72039 18.7797 8.29039 17.3797 8.14039V7.38039C17.3797 6.01039 16.7997 4.69039 15.7797 3.77039C14.7497 2.83039 13.4097 2.39039 12.0197 2.52039C9.62975 2.75039 7.61975 5.06039 7.61975 7.56039V8.14039C6.21975 8.29039 5.20975 8.72039 4.53975 9.46039C3.56975 10.5404 3.59975 11.9804 3.70975 12.9804L4.40975 18.5504C4.61975 20.5004 5.40975 22.5004 9.70975 22.5004H15.2897C19.5897 22.5004 20.3797 20.5004 20.5897 18.5604L21.2897 12.9704C21.3997 11.9804 21.4197 10.5404 20.4597 9.46039ZM12.1597 3.91039C13.1597 3.82039 14.1097 4.13039 14.8497 4.80039C15.5797 5.46039 15.9897 6.40039 15.9897 7.38039V8.08039H9.00975V7.56039C9.00975 5.78039 10.4797 4.07039 12.1597 3.91039ZM8.91975 13.6504H8.90975C8.35975 13.6504 7.90975 13.2004 7.90975 12.6504C7.90975 12.1004 8.35975 11.6504 8.90975 11.6504C9.46975 11.6504 9.91975 12.1004 9.91975 12.6504C9.91975 13.2004 9.46975 13.6504 8.91975 13.6504ZM15.9197 13.6504H15.9097C15.3597 13.6504 14.9097 13.2004 14.9097 12.6504C14.9097 12.1004 15.3597 11.6504 15.9097 11.6504C16.4697 11.6504 16.9197 12.1004 16.9197 12.6504C16.9197 13.2004 16.4697 13.6504 15.9197 13.6504Z" fill="#7D9DFF"/>
</g>
</g>
</svg>
