<svg width="41" height="41" viewBox="0 0 41 41" fill="none" xmlns="http://www.w3.org/2000/svg">
<path d="M34.0998 15.225C32.9832 13.9917 31.2998 13.275 28.9665 13.025V11.7583C28.9665 9.475 27.9998 7.275 26.2998 5.74166C24.5832 4.175 22.3498 3.44166 20.0332 3.65833C16.0498 4.04166 12.6998 7.89166 12.6998 12.0583V13.025C10.3665 13.275 8.68315 13.9917 7.56649 15.225C5.94982 17.025 5.99982 19.425 6.18315 21.0917L7.34982 30.375C7.69982 33.625 9.01649 36.9583 16.1832 36.9583H25.4832C32.6498 36.9583 33.9665 33.625 34.3165 30.3917L35.4832 21.075C35.6665 19.425 35.7165 17.025 34.0998 15.225ZM20.2665 5.975C21.9332 5.825 23.5165 6.34166 24.7498 7.45833C25.9665 8.55833 26.6498 10.125 26.6498 11.7583V12.925H15.0165V12.0583C15.0165 9.09166 17.4665 6.24166 20.2665 5.975ZM20.8332 31.2583C17.3498 31.2583 14.5165 28.425 14.5165 24.9417C14.5165 21.4583 17.3498 18.625 20.8332 18.625C24.3165 18.625 27.1498 21.4583 27.1498 24.9417C27.1498 28.425 24.3165 31.2583 20.8332 31.2583Z" fill="#FCFCFC"/>
<path d="M19.8831 28.0243C19.5665 28.0243 19.2498 27.9076 18.9998 27.6576L17.3498 26.0076C16.8665 25.5243 16.8665 24.7243 17.3498 24.2409C17.8331 23.7576 18.6331 23.7576 19.1165 24.2409L19.9165 25.0409L22.5831 22.5743C23.0831 22.1076 23.8831 22.1409 24.3498 22.6409C24.8165 23.1409 24.7831 23.9409 24.2831 24.4076L20.7331 27.6909C20.4831 27.9076 20.1831 28.0243 19.8831 28.0243Z" fill="#FCFCFC"/>
</svg>
