<svg width="40" height="40" viewBox="0 0 40 40" fill="none" xmlns="http://www.w3.org/2000/svg">
<g id="vuesax/bold/book">
<path id="Vector" d="M36.6667 8.08334V27.9C36.6667 29.5167 35.35 31 33.7333 31.2L33.2167 31.2667C30.4833 31.6333 26.6333 32.7667 23.5333 34.0667C22.45 34.5167 21.25 33.7 21.25 32.5167V9.33334C21.25 8.71667 21.6 8.15001 22.15 7.85001C25.2 6.20001 29.8167 4.73334 32.95 4.46667H33.05C35.05 4.46667 36.6667 6.08334 36.6667 8.08334Z" fill="#2ECC9B"/>
<path id="Vector_2" d="M17.85 7.85001C14.8 6.20001 10.1833 4.73334 7.04998 4.46667H6.93332C4.93332 4.46667 3.31665 6.08334 3.31665 8.08334V27.9C3.31665 29.5167 4.63332 31 6.24998 31.2L6.76665 31.2667C9.49998 31.6333 13.35 32.7667 16.45 34.0667C17.5333 34.5167 18.7333 33.7 18.7333 32.5167V9.33334C18.7333 8.70001 18.4 8.15001 17.85 7.85001ZM8.33332 12.9H12.0833C12.7667 12.9 13.3333 13.4667 13.3333 14.15C13.3333 14.85 12.7667 15.4 12.0833 15.4H8.33332C7.64998 15.4 7.08332 14.85 7.08332 14.15C7.08332 13.4667 7.64998 12.9 8.33332 12.9ZM13.3333 20.4H8.33332C7.64998 20.4 7.08332 19.85 7.08332 19.15C7.08332 18.4667 7.64998 17.9 8.33332 17.9H13.3333C14.0167 17.9 14.5833 18.4667 14.5833 19.15C14.5833 19.85 14.0167 20.4 13.3333 20.4Z" fill="#2ECC9B"/>
</g>
</svg>
