<svg width="30" height="29" viewBox="0 0 30 29" fill="none" xmlns="http://www.w3.org/2000/svg">
<g id="vuesax/bold/document-copy">
<g id="document-copy">
<path id="Vector" d="M18.5266 15.1354L16.404 15.5866C14.6629 15.9567 12.9452 14.8496 12.5731 13.0987L12.1219 10.9762C12.0367 10.5751 11.6432 10.3112 11.2324 10.3985L8.13163 11.0576C5.8721 11.5378 4.35484 13.3939 4.91204 16.0153L6.29257 22.5102C6.84978 25.1316 8.99078 26.2101 11.2503 25.7298L17.0116 24.5052C19.2711 24.0249 20.7884 22.1689 20.2312 19.5475L19.4162 15.7131C19.3288 15.3023 18.9277 15.0502 18.5266 15.1354Z" fill="#FCFCFC"/>
<path id="Vector_2" d="M18.4769 3.74679L16.5499 4.15637L15.4838 4.383L12.7156 4.97139C10.505 5.44127 9.01436 7.23028 9.47044 9.76075C9.52913 9.74828 9.57596 9.7281 9.63465 9.71562L12.4028 9.12723L13.469 8.90061L15.3959 8.49102C17.6555 8.01075 19.7965 9.08918 20.3537 11.7106L20.7633 13.6376L21.3267 16.2883L21.7363 18.2153C21.7488 18.274 21.7494 18.325 21.7598 18.3739C23.9265 17.8418 25.3599 16.024 24.8172 13.4711L24.4076 11.5441L23.8442 8.89332L23.4346 6.96637C22.8774 4.34494 20.7364 3.26651 18.4769 3.74679Z" fill="#FCFCFC"/>
<path id="Vector_3" d="M13.8348 9.99849C13.4671 9.75971 12.9924 10.0753 13.0818 10.4959L13.6265 13.0587C13.8552 14.1346 14.952 14.8216 16.0671 14.5846C16.7636 14.4468 17.732 14.2409 18.5634 14.0642C18.984 13.9748 19.0953 13.44 18.7395 13.2089C17.4467 12.3693 15.1436 10.8653 13.8348 9.99849Z" fill="#FCFCFC"/>
</g>
</g>
</svg>
