<svg width="60" height="61" viewBox="0 0 60 61" fill="none" xmlns="http://www.w3.org/2000/svg">
<rect y="0.656982" width="60" height="60" rx="30" fill="#2ECC9B"/>
<path d="M37.9997 25.657H31.2497V33.057L34.6997 29.607C34.9497 29.357 35.2663 29.2403 35.583 29.2403C35.8997 29.2403 36.2163 29.357 36.4663 29.607C36.9497 30.0903 36.9497 30.8903 36.4663 31.3736L30.883 36.957C30.3997 37.4403 29.5997 37.4403 29.1163 36.957L23.533 31.3736C23.0497 30.8903 23.0497 30.0903 23.533 29.607C24.0163 29.1236 24.8163 29.1236 25.2997 29.607L28.7497 33.057V25.657H21.9997C16.6663 25.657 13.333 28.9903 13.333 34.3236V38.6403C13.333 43.9903 16.6663 47.3236 21.9997 47.3236H37.983C43.3163 47.3236 46.6497 43.9903 46.6497 38.657V34.3236C46.6663 28.9903 43.333 25.657 37.9997 25.657Z" fill="#FCFCFC"/>
<path d="M31.25 15.2404C31.25 14.557 30.6833 13.9904 30 13.9904C29.3167 13.9904 28.75 14.557 28.75 15.2404V25.657H31.25V15.2404Z" fill="#FCFCFC"/>
</svg>
