<svg width="41" height="40" viewBox="0 0 41 40" fill="none" xmlns="http://www.w3.org/2000/svg">
<g id="Group">
<path id="Vector" d="M40.5 20.0007C40.5 30.102 33.0124 38.4529 23.2853 39.808C22.3758 39.9341 21.4452 40 20.5007 40C19.4104 40 18.3398 39.9131 17.2971 39.7449C7.77324 38.2118 0.5 29.9548 0.5 20.0007C0.5 8.95491 9.45491 0 20.4993 0C31.5437 0 40.5 8.95491 40.5 20.0007Z" fill="#1877F2"/>
<path id="Vector_2" d="M23.2851 16.0586V20.4155H28.6748L27.8214 26.2846H23.2851V39.8066C22.3756 39.9327 21.445 39.9986 20.5005 39.9986C19.4102 39.9986 18.3396 39.9117 17.2969 39.7436V26.2846H12.3262V20.4155H17.2969V15.0846C17.2969 11.7773 19.9778 9.09506 23.2865 9.09506V9.09786C23.2963 9.09786 23.3047 9.09506 23.3145 9.09506H28.6762V14.1709H25.1728C24.1315 14.1709 23.2865 15.016 23.2865 16.0572L23.2851 16.0586Z" fill="white"/>
</g>
</svg>
