<svg width="25" height="24" viewBox="0 0 25 24" fill="none" xmlns="http://www.w3.org/2000/svg">
<g id="Frame 1171275897/vuesax/linear/gift">
<g id="vuesax/linear/gift">
<g id="gift">
<path id="Vector" d="M20.4702 10H4.47021V18C4.47021 21 5.47021 22 8.47021 22H16.4702C19.4702 22 20.4702 21 20.4702 18V10Z" stroke="#292D32" stroke-width="1.5" stroke-miterlimit="10" stroke-linecap="round" stroke-linejoin="round"/>
<path id="Vector_2" d="M22 7V8C22 9.1 21.47 10 20 10H5C3.47 10 3 9.1 3 8V7C3 5.9 3.47 5 5 5H20C21.47 5 22 5.9 22 7Z" stroke="#292D32" stroke-width="1.5" stroke-miterlimit="10" stroke-linecap="round" stroke-linejoin="round"/>
<path id="Vector_3" d="M12.1398 5H6.61978C6.27978 4.63 6.28978 4.06 6.64978 3.7L8.06978 2.28C8.43978 1.91 9.04978 1.91 9.41978 2.28L12.1398 5Z" stroke="#292D32" stroke-width="1.5" stroke-miterlimit="10" stroke-linecap="round" stroke-linejoin="round"/>
<path id="Vector_4" d="M18.3701 5H12.8501L15.5701 2.28C15.9401 1.91 16.5501 1.91 16.9201 2.28L18.3401 3.7C18.7001 4.06 18.7101 4.63 18.3701 5Z" stroke="#292D32" stroke-width="1.5" stroke-miterlimit="10" stroke-linecap="round" stroke-linejoin="round"/>
<path id="Vector_5" d="M9.43994 10V15.14C9.43994 15.94 10.3199 16.41 10.9899 15.98L11.9299 15.36C12.2699 15.14 12.6999 15.14 13.0299 15.36L13.9199 15.96C14.5799 16.4 15.4699 15.93 15.4699 15.13V10H9.43994Z" stroke="#292D32" stroke-width="1.5" stroke-miterlimit="10" stroke-linecap="round" stroke-linejoin="round"/>
</g>
</g>
</g>
</svg>
