<svg width="41" height="40" viewBox="0 0 41 40" fill="none" xmlns="http://www.w3.org/2000/svg">
<g id="vuesax/bold/sms-tracking">
<g id="sms-tracking">
<path id="Vector" d="M10.5013 21.667C5.9013 21.667 2.16797 25.3837 2.16797 30.0003C2.16797 34.617 5.9013 38.3337 10.5013 38.3337C15.1013 38.3337 18.8346 34.6003 18.8346 30.0003C18.8346 25.4003 15.118 21.667 10.5013 21.667ZM7.1013 26.6003H10.5013C11.1346 26.6003 11.6346 27.117 11.6346 27.7337C11.6346 28.3503 11.1346 28.867 10.5013 28.867H7.1013C6.46797 28.867 5.96797 28.3503 5.96797 27.7337C5.96797 27.117 6.46797 26.6003 7.1013 26.6003ZM13.9013 33.4003H7.1013C6.46797 33.4003 5.96797 32.8837 5.96797 32.267C5.96797 31.6503 6.48464 31.1337 7.1013 31.1337H13.918C14.5513 31.1337 15.0513 31.6503 15.0513 32.267C15.0513 32.8837 14.5346 33.4003 13.9013 33.4003Z" fill="#2ECC9B"/>
<path id="Vector_2" d="M28.832 5H12.1654C7.16536 5 3.83203 7.5 3.83203 13.3333V18.5667C3.83203 19.7833 5.08203 20.55 6.1987 20.0667C8.03203 19.2667 10.1154 18.9667 12.2987 19.3167C16.6654 20.0333 20.232 23.4833 21.1154 27.8167C21.3654 29.0833 21.3987 30.3167 21.232 31.5C21.0987 32.4833 21.8987 33.35 22.882 33.35H28.832C33.832 33.35 37.1654 30.85 37.1654 25.0167V13.3333C37.1654 7.5 33.832 5 28.832 5ZM29.6154 14.3167L24.3987 18.4833C23.2987 19.3667 21.8987 19.8 20.4987 19.8C19.0987 19.8 17.682 19.3667 16.5987 18.4833L11.382 14.3167C10.8487 13.8833 10.7654 13.0833 11.182 12.55C11.6154 12.0167 12.3987 11.9167 12.932 12.35L18.1487 16.5167C19.4154 17.5333 21.5654 17.5333 22.832 16.5167L28.0487 12.35C28.582 11.9167 29.382 12 29.7987 12.55C30.232 13.0833 30.1487 13.8833 29.6154 14.3167Z" fill="#2ECC9B"/>
</g>
</g>
</svg>
