<svg width="41" height="40" viewBox="0 0 41 40" fill="none" xmlns="http://www.w3.org/2000/svg">
<g id="Group">
<path id="Vector" d="M20.5455 0H20.4545C9.43393 0 0.5 8.93392 0.5 19.9545V20.0455C0.5 31.0661 9.43393 40 20.4545 40H20.5455C31.5661 40 40.5 31.0661 40.5 20.0455V19.9545C40.5 8.93392 31.5661 0 20.5455 0Z" fill="#007EBB"/>
<g id="Group_2">
<path id="Vector_2" d="M10.0399 13.2964C9.51302 12.8073 9.25098 12.2019 9.25098 11.4816C9.25098 10.7613 9.51442 10.1293 10.0399 9.63878C10.5669 9.14969 11.2451 8.90445 12.0762 8.90445C12.9072 8.90445 13.5589 9.14969 14.0844 9.63878C14.6113 10.1279 14.8733 10.7431 14.8733 11.4816C14.8733 12.2201 14.6099 12.8073 14.0844 13.2964C13.5575 13.7855 12.889 14.0307 12.0762 14.0307C11.2634 14.0307 10.5669 13.7855 10.0399 13.2964ZM14.4305 16.102V31.0969H9.6924V16.102H14.4305Z" fill="#FEFFFC"/>
<path id="Vector_3" d="M30.2028 17.5833C31.2356 18.7044 31.7513 20.2431 31.7513 22.2023V30.8321H27.2515V22.8105C27.2515 21.8225 26.995 21.0545 26.4835 20.508C25.972 19.9615 25.2825 19.6868 24.4193 19.6868C23.556 19.6868 22.8665 19.9601 22.355 20.508C21.8435 21.0545 21.587 21.8225 21.587 22.8105V30.8321H17.0605V16.06H21.587V18.0191C22.0453 17.3661 22.6633 16.8504 23.4397 16.4706C24.2161 16.0908 25.0891 15.9016 26.0603 15.9016C27.7896 15.9016 29.1714 16.4622 30.2028 17.5833Z" fill="#FEFFFC"/>
</g>
</g>
</svg>
