<svg width="59" height="40" viewBox="0 0 59 40" fill="none" xmlns="http://www.w3.org/2000/svg">
<rect width="58.3333" height="40" rx="4" fill="black"/>
<path fill-rule="evenodd" clip-rule="evenodd" d="M29.583 28.5946C27.5971 30.3084 25.0209 31.343 22.206 31.343C15.9249 31.343 10.833 26.192 10.833 19.838C10.833 13.484 15.9249 8.33301 22.206 8.33301C25.0209 8.33301 27.5971 9.36759 29.583 11.0814C31.569 9.36759 34.1451 8.33301 36.9601 8.33301C43.2412 8.33301 48.333 13.484 48.333 19.838C48.333 26.192 43.2412 31.343 36.9601 31.343C34.1451 31.343 31.569 30.3084 29.583 28.5946Z" fill="#ED0006"/>
<path fill-rule="evenodd" clip-rule="evenodd" d="M29.583 28.5946C32.0283 26.4844 33.5789 23.3443 33.5789 19.838C33.5789 16.3316 32.0283 13.1916 29.583 11.0814C31.569 9.36759 34.1451 8.33301 36.9601 8.33301C43.2412 8.33301 48.333 13.484 48.333 19.838C48.333 26.192 43.2412 31.343 36.9601 31.343C34.1451 31.343 31.569 30.3084 29.583 28.5946Z" fill="#F9A000"/>
<path fill-rule="evenodd" clip-rule="evenodd" d="M29.5828 11.0811C32.0281 13.1913 33.5786 16.3313 33.5786 19.8376C33.5786 23.3439 32.0281 26.4839 29.5828 28.5942C27.1375 26.4839 25.5869 23.3439 25.5869 19.8376C25.5869 16.3313 27.1375 13.1913 29.5828 11.0811Z" fill="#FF5E00"/>
</svg>
