<svg width="70" height="49" viewBox="0 0 70 49" fill="none" xmlns="http://www.w3.org/2000/svg">
<rect y="0.0639648" width="70" height="47.9945" rx="4" fill="white"/>
<path fill-rule="evenodd" clip-rule="evenodd" d="M35.5 34.3741C33.1169 36.4304 30.0255 37.6717 26.6475 37.6717C19.1102 37.6717 13 31.4913 13 23.8674C13 16.2434 19.1102 10.063 26.6475 10.063C30.0255 10.063 33.1169 11.3043 35.5 13.3607C37.8831 11.3043 40.9745 10.063 44.3525 10.063C51.8898 10.063 58 16.2434 58 23.8674C58 31.4913 51.8898 37.6717 44.3525 37.6717C40.9745 37.6717 37.8831 36.4304 35.5 34.3741Z" fill="#ED0006"/>
<path fill-rule="evenodd" clip-rule="evenodd" d="M35.5 34.3741C38.4344 31.8421 40.2951 28.0745 40.2951 23.8674C40.2951 19.6602 38.4344 15.8926 35.5 13.3607C37.8831 11.3043 40.9745 10.063 44.3525 10.063C51.8898 10.063 58 16.2434 58 23.8674C58 31.4913 51.8898 37.6717 44.3525 37.6717C40.9745 37.6717 37.8831 36.4304 35.5 34.3741Z" fill="#F9A000"/>
<path fill-rule="evenodd" clip-rule="evenodd" d="M35.5001 13.3608C38.4345 15.8928 40.2951 19.6604 40.2951 23.8675C40.2951 28.0746 38.4345 31.8422 35.5001 34.3741C32.5657 31.8422 30.7051 28.0746 30.7051 23.8675C30.7051 19.6604 32.5657 15.8928 35.5001 13.3608Z" fill="#FF5E00"/>
</svg>
