<svg width="259" height="140" viewBox="0 0 259 140" fill="none" xmlns="http://www.w3.org/2000/svg">
<g opacity="0.6" clip-path="url(#clip0_564_5546)">
<path d="M82.2315 98.1398C79.6992 94.8208 79.0997 93.6695 77.1322 90.4745C74.06 95.3627 70.9885 100.251 67.9199 105.141C73.0896 113.131 75.6734 114.899 77.3811 116.343C77.871 116.757 78.4959 116.975 79.1368 116.964L93.0578 116.709C95.4151 116.666 96.5553 113.802 94.8686 112.156C91.3065 108.679 86.3509 103.539 82.2315 98.1405V98.1398Z" fill="#FCFCFC"/>
<path d="M38.9009 91.3777V89.7643C38.9009 88.3228 37.7469 87.1432 36.3048 87.1098C31.3333 86.9937 28.2995 86.5229 27.2043 85.6966C25.9284 84.7354 25.1867 83.6072 24.9777 82.3116C24.7679 81.0166 24.6641 79.3023 24.6641 77.1709V55.8168C24.6641 54.3499 25.8537 53.1608 27.3212 53.1608H38.4611C42.14 53.1608 45.046 55.1254 47.1784 59.0538C48.344 61.0945 49.8848 65.4582 51.7986 72.1456C51.8124 72.1935 51.8277 72.2421 51.8436 72.2885C54.4818 79.9335 55.9871 84.7578 58.6913 90.1706C62.1823 85.9984 65.6696 81.8313 69.1533 77.6686C67.7141 74.8581 65.7836 66.8896 64.8647 64.5071C62.993 59.5471 60.4578 55.8748 57.2594 53.4902C55.6568 52.2953 55.9392 49.7816 57.7594 48.9546C61.7497 47.1423 65.0694 44.7519 67.7185 41.7819C71.5019 37.5408 73.394 32.4103 73.394 26.3918C73.394 23.5922 73.2061 21.1474 72.8294 19.0573C70.5301 6.35292 59.0956 0 38.525 0H2.67464C1.20712 0 0.0175781 1.18904 0.0175781 2.65594V4.31581C0.0175781 5.72249 1.11785 6.88106 2.52295 6.96594C5.62055 7.15384 7.83779 7.71607 9.17467 8.65048C10.0935 9.31936 10.5544 11.0119 10.5544 13.7288V80.3042C10.5544 81.5578 10.4499 82.6235 10.2408 83.5013C10.0311 84.3791 9.38369 85.2047 8.29648 85.9773C7.43571 86.5896 5.54144 86.9589 2.61295 87.0866C1.19623 87.1483 0.0807204 88.3213 0.0807204 89.7396V91.377C0.0807204 92.8439 1.27026 94.0329 2.73778 94.0329H36.2439C37.7114 94.0329 38.9009 92.8439 38.9009 91.377V91.3777ZM24.6649 9.55151C24.6649 8.08461 25.8544 6.89557 27.3219 6.89557H34.8242C43.5205 6.89557 49.6039 8.58809 53.0745 11.9731C56.5445 15.3581 58.2798 20.3008 58.2798 26.7995C58.2798 33.2982 56.7956 38.2713 53.8272 41.7195C50.858 45.1676 45.7994 46.8913 38.6498 46.8913H27.3212C25.8537 46.8913 24.6641 45.7023 24.6641 44.2354V9.55151H24.6649Z" fill="#FCFCFC"/>
<path d="M258.714 102.448H78.1775C78.0288 102.448 77.9082 102.568 77.9082 102.717V116.545C77.9082 116.694 78.0288 116.814 78.1775 116.814H258.714C258.862 116.814 258.983 116.694 258.983 116.545V102.717C258.983 102.568 258.862 102.448 258.714 102.448Z" fill="#FCFCFC"/>
<path d="M230.596 98.1739V97.8068H231.072C231.56 97.8068 232.012 97.7335 232.428 97.587C232.843 97.4405 233.179 97.1836 233.435 96.8173C233.691 96.4502 233.82 95.9257 233.82 95.2408V81.3467C233.82 80.6865 233.691 80.1801 233.435 79.8261C233.178 79.4713 232.842 79.2276 232.428 79.0926C232.012 78.9592 231.56 78.8917 231.072 78.8917H230.742V78.5246H238.584V95.2046C238.584 95.8887 238.706 96.4204 238.951 96.7991C239.195 97.1786 239.531 97.4405 239.959 97.587C240.386 97.7343 240.844 97.8068 241.333 97.8068H241.773V98.1739H230.596ZM236.019 75.1519C235.408 75.1519 234.889 74.9633 234.462 74.5839C234.034 74.2052 233.82 73.5885 233.82 72.7325C233.82 71.8764 234.034 71.2293 234.462 70.8629C234.889 70.4959 235.408 70.3123 236.019 70.3123C236.631 70.3123 237.155 70.4959 237.595 70.8629C238.035 71.2286 238.255 71.8525 238.255 72.7325C238.255 73.6125 238.035 74.2052 237.595 74.5839C237.155 74.9633 236.63 75.1519 236.019 75.1519Z" fill="#BEEFE0"/>
<path d="M144.541 98.1739V97.8068H144.944C145.432 97.8068 145.884 97.7335 146.3 97.587C146.715 97.4412 147.051 97.1836 147.308 96.8173C147.564 96.4502 147.692 95.9257 147.692 95.2408V81.3467C147.692 80.6865 147.564 80.1801 147.308 79.8261C147.051 79.4713 146.715 79.2276 146.3 79.0926C145.884 78.9592 145.432 78.8917 144.944 78.8917H144.615V78.5246H152.42V81.9343H152.493C152.81 80.8345 153.244 80.0154 153.794 79.4779C154.344 78.941 154.973 78.5739 155.681 78.3781C156.39 78.1829 157.111 78.085 157.844 78.085C159.431 78.085 160.744 78.4339 161.783 79.1296C162.821 79.8261 163.523 80.9571 163.89 82.5197H163.963C164.183 81.4446 164.531 80.5835 165.007 79.9356C165.483 79.2885 166.082 78.8177 166.803 78.5246C167.523 78.2315 168.372 78.085 169.35 78.085C171.475 78.085 173.056 78.6661 174.095 79.8268C175.133 80.9876 175.652 82.7903 175.652 85.2337V95.058C175.652 95.7907 175.744 96.3595 175.927 96.7636C176.11 97.1662 176.403 97.4419 176.806 97.5877C177.209 97.735 177.716 97.8075 178.327 97.8075H178.437V98.1746H170.888V84.2072C170.888 82.4719 170.65 81.1769 170.173 80.3209C169.697 79.4663 168.921 79.0375 167.846 79.0375C166.942 79.0375 166.209 79.3074 165.647 79.8442C165.085 80.3818 164.682 81.1334 164.438 82.099C164.193 83.0646 164.071 84.1825 164.071 85.4528V95.0573C164.071 95.79 164.168 96.3588 164.364 96.7629C164.56 97.1655 164.853 97.4412 165.244 97.587C165.634 97.7343 166.135 97.8068 166.746 97.8068H166.856V98.1739H159.307V84.2065C159.307 82.4711 159.069 81.1762 158.593 80.3201C158.117 79.4655 157.329 79.0368 156.23 79.0368C155.326 79.0368 154.592 79.3117 154.031 79.8616C153.468 80.4115 153.065 81.2001 152.822 82.2259C152.577 83.2532 152.455 84.4749 152.455 85.8917V95.2031C152.455 95.8872 152.577 96.419 152.822 96.7977C153.065 97.1771 153.401 97.439 153.829 97.5855C154.256 97.7328 154.714 97.8054 155.203 97.8054H155.532V98.1724H144.539L144.541 98.1739Z" fill="#BEEFE0"/>
<path d="M133.75 98.1739C130.941 98.1739 128.724 97.3258 127.099 95.626C125.474 93.9277 124.662 91.3559 124.662 87.91C124.662 84.464 125.438 81.9336 126.989 80.2476C128.541 78.5616 130.831 77.7179 133.86 77.7179C136.694 77.7179 138.917 78.5616 140.53 80.2476C142.142 81.9336 142.948 84.4879 142.948 87.91C142.948 91.332 142.172 93.9277 140.621 95.626C139.069 97.3251 136.779 98.1739 133.75 98.1739ZM133.824 97.8075C134.874 97.8075 135.711 97.484 136.334 96.8361C136.957 96.189 137.403 95.1436 137.672 93.7014C137.94 92.2591 138.075 90.3287 138.075 87.9092C138.075 85.4898 137.941 83.6014 137.672 82.1723C137.402 80.7416 136.95 79.7035 136.316 79.0556C135.68 78.4085 134.838 78.0842 133.787 78.0842C132.736 78.0842 131.937 78.4078 131.314 79.0556C130.691 79.7035 130.238 80.7416 129.958 82.1723C129.678 83.6014 129.537 85.5145 129.537 87.9092C129.537 90.304 129.677 92.2591 129.958 93.7014C130.238 95.1436 130.692 96.1883 131.314 96.8361C131.937 97.484 132.773 97.8075 133.824 97.8075H133.824Z" fill="#BEEFE0"/>
<path d="M106.424 98.1739V97.8068H106.827C107.315 97.8068 107.767 97.7335 108.183 97.587C108.598 97.4412 108.934 97.1836 109.19 96.8173C109.447 96.4502 109.575 95.9257 109.575 95.2408V81.3467C109.575 80.6865 109.447 80.1801 109.19 79.8261C108.934 79.4713 108.598 79.2276 108.183 79.0926C107.767 78.9592 107.315 78.8917 106.827 78.8917H106.681V78.5246H114.304V81.861H114.377C114.621 81.1269 114.944 80.4805 115.348 79.9175C115.751 79.3553 116.295 78.9156 116.979 78.5979C117.662 78.2809 118.506 78.1212 119.507 78.1212C120.827 78.1212 121.828 78.3846 122.512 78.9098C123.196 79.4351 123.538 80.1743 123.538 81.1269C123.538 82.0794 123.184 82.7954 122.475 83.3453C121.767 83.8952 120.728 84.1702 119.361 84.1702C119.361 82.4349 119.152 81.2429 118.737 80.5958C118.321 79.948 117.772 79.6244 117.088 79.6244C116.598 79.6244 116.178 79.7775 115.824 80.0822C115.47 80.3876 115.182 80.8338 114.963 81.4207C114.743 82.0068 114.584 82.6917 114.486 83.4737C114.388 84.2558 114.341 85.1358 114.341 86.113V95.2046C114.341 95.8887 114.462 96.4204 114.706 96.7991C114.95 97.1786 115.286 97.4405 115.714 97.587C116.141 97.7343 116.599 97.8068 117.088 97.8068H117.968V98.1739H106.425H106.424Z" fill="#BEEFE0"/>
<path d="M212.732 98.1739V97.8068H213.136C213.624 97.8068 214.076 97.7335 214.492 97.587C214.907 97.4412 215.243 97.1836 215.499 96.8173C215.755 96.4502 215.884 95.9257 215.884 95.2408V81.3467C215.884 80.6865 215.755 80.1801 215.499 79.8261C215.243 79.4713 214.907 79.2276 214.492 79.0926C214.076 78.9592 213.624 78.8917 213.136 78.8917H212.989V78.5246H220.612V81.861H220.685C220.929 81.1269 221.253 80.4805 221.657 79.9175C222.06 79.3553 222.604 78.9156 223.287 78.5979C223.971 78.2809 224.814 78.1212 225.816 78.1212C227.135 78.1212 228.137 78.3846 228.821 78.9098C229.504 79.4351 229.847 80.1743 229.847 81.1269C229.847 82.0794 229.493 82.7954 228.784 83.3453C228.075 83.8952 227.037 84.1702 225.669 84.1702C225.669 82.4349 225.461 81.2429 225.046 80.5958C224.63 79.948 224.081 79.6244 223.397 79.6244C222.907 79.6244 222.487 79.7775 222.133 80.0822C221.778 80.3876 221.491 80.8338 221.271 81.4207C221.051 82.0068 220.893 82.6917 220.795 83.4737C220.697 84.2558 220.649 85.1358 220.649 86.113V95.2046C220.649 95.8887 220.771 96.4204 221.015 96.7991C221.259 97.1786 221.595 97.4405 222.023 97.587C222.45 97.7343 222.908 97.8068 223.397 97.8068H224.277V98.1739H212.733H212.732Z" fill="#BEEFE0"/>
<path d="M205.325 98.1739C203.589 98.1739 202.265 97.7473 201.349 96.8913C200.433 96.0367 199.975 94.5451 199.975 92.4188V78.5253H197.189V78.1582C198.265 78.1582 199.205 78.0545 200.011 77.847C200.817 77.6395 201.513 77.3036 202.1 76.8386C202.662 76.3983 203.126 75.8367 203.493 75.1526C203.859 74.4685 204.153 73.6625 204.372 72.7325H204.738V78.1582H209.576V78.5253H204.738V93.9582C204.738 95.1559 204.964 96.0417 205.416 96.6163C205.868 97.1909 206.546 97.4774 207.45 97.4774C207.792 97.4774 208.158 97.4412 208.549 97.3679C208.94 97.2946 209.356 97.1727 209.795 97.0008V97.3679C209.429 97.5391 208.848 97.7154 208.054 97.8989C207.26 98.0825 206.35 98.1739 205.324 98.1739H205.325Z" fill="#BEEFE0"/>
<path d="M189.268 98.1739C186.374 98.1739 184.157 97.3229 182.617 95.6159C181.077 93.9118 180.305 91.5293 180.305 88.4693C180.305 85.1764 181.041 82.6881 182.51 81.0064C183.981 79.3226 186.043 78.4811 188.7 78.4811C191.17 78.4811 193.105 79.1928 194.504 80.6183C195.904 82.0402 196.603 84.1535 196.603 86.9509V87.799H184.963C184.985 90.1981 185.156 92.1293 185.474 93.5875C185.792 95.0457 186.308 96.1107 187.026 96.7803C187.744 97.4513 188.666 97.785 189.794 97.785C190.642 97.785 191.407 97.616 192.088 97.2729C192.769 96.9333 193.34 96.3987 193.799 95.6703C194.257 94.9398 194.569 93.9988 194.735 92.8453C195.132 92.9157 195.422 93.0913 195.597 93.3756C195.774 93.6586 195.864 93.9749 195.864 94.3275C195.864 94.9158 195.616 95.5034 195.121 96.0918C194.627 96.6809 193.897 97.1735 192.934 97.5747C191.969 97.9744 190.747 98.1732 189.267 98.1732L189.268 98.1739ZM191.948 87.4471C191.948 85.3527 191.847 83.6776 191.648 82.4167C191.447 81.1588 191.105 80.2454 190.625 79.6824C190.143 79.1188 189.489 78.8358 188.666 78.8358C187.842 78.8358 187.162 79.1188 186.621 79.6824C186.078 80.2461 185.685 81.1588 185.439 82.4167C185.191 83.6769 185.033 85.3527 184.963 87.4471H191.947H191.948Z" fill="#BEEFE0"/>
<path d="M251.041 98.1739C249.351 98.1739 247.867 97.8576 246.59 97.225C245.309 96.5909 244.312 95.5578 243.597 94.1265C242.88 92.6944 242.523 90.7814 242.523 88.3859C242.523 85.9904 242.886 83.9359 243.614 82.5045C244.341 81.0746 245.339 80.051 246.606 79.4409C247.873 78.83 249.317 78.5253 250.935 78.5253C252.203 78.5253 253.33 78.6726 254.316 78.9664C255.301 79.261 256.08 79.6875 256.655 80.2505C257.23 80.8142 257.519 81.4968 257.519 82.2934C257.519 82.7642 257.397 83.1973 257.149 83.5949C256.902 83.9946 256.485 84.3131 255.901 84.5467C255.313 84.7825 254.515 84.9 253.505 84.9C253.505 83.4201 253.428 82.2412 253.276 81.359C253.123 80.4797 252.849 79.845 252.447 79.4583C252.049 79.0709 251.501 78.8779 250.794 78.8779C249.997 78.8779 249.327 79.1601 248.788 79.7224C248.248 80.2846 247.843 81.2545 247.573 82.6271C247.304 84.0004 247.168 85.9207 247.168 88.3852C247.168 90.6624 247.326 92.4928 247.644 93.8791C247.961 95.264 248.466 96.2623 249.156 96.8717C249.849 97.4825 250.76 97.7858 251.886 97.7858C252.683 97.7858 253.404 97.6349 254.051 97.3302C254.695 97.0233 255.242 96.5075 255.688 95.7806C256.132 95.0522 256.45 94.0772 256.636 92.8569C256.966 92.9512 257.22 93.1333 257.396 93.4025C257.572 93.6724 257.659 94.0075 257.659 94.4073C257.659 94.9702 257.425 95.5462 256.954 96.1317C256.484 96.7186 255.763 97.2068 254.788 97.5942C253.814 97.9809 252.565 98.1739 251.04 98.1739H251.041Z" fill="#BEEFE0"/>
<path d="M103.029 70.5125C101.799 68.9383 100.025 68.2215 97.7103 68.1497C95.2942 68.0742 93.8324 68.783 93.8324 68.783L87.5763 78.727V95.3714C87.5763 96.0265 87.4551 96.5278 87.217 96.8775C86.9782 97.2279 86.656 97.4731 86.251 97.6153C85.8446 97.7546 85.3917 97.8235 84.8895 97.8235H84.4961V98.1739H95.4531V97.8235H94.9168C94.4392 97.8235 93.9914 97.7546 93.5726 97.6153C93.1575 97.4731 92.828 97.2214 92.5892 96.8615C92.3497 96.4995 92.2299 95.9917 92.2299 95.338V84.554C92.2299 83.8176 92.2191 83.1117 92.1937 82.4356H92.2662C92.5536 84.2326 93.1575 85.5493 94.0763 86.3908C94.9951 87.2309 96.1586 87.651 97.5666 87.651C99.9551 87.651 101.768 86.8464 103.011 85.2345C104.252 83.6239 104.873 81.1624 104.873 77.8499C104.873 74.5374 104.257 72.089 103.029 70.5133V70.5125ZM99.7156 82.8179C99.4528 84.1963 99.0537 85.2236 98.5159 85.899C97.9795 86.5773 97.2813 86.9146 96.4213 86.9146C95.4901 86.9146 94.7143 86.5715 94.0952 85.883C93.4725 85.1946 93.0072 84.1557 92.6973 82.7657C92.386 81.3779 92.2307 79.6447 92.2307 77.5663C92.2307 75.6539 92.3069 73.6342 93.9645 71.2184C94.474 70.4763 95.5017 69.6057 96.4568 69.6057C97.2922 69.6057 97.9403 69.9518 98.5159 70.5343C99.5174 71.5478 100.11 75.5698 100.11 77.5322C100.11 79.6788 99.9783 81.4424 99.7156 82.8179Z" fill="#BEEFE0"/>
<path d="M86.3915 132.893L92.2522 119.722H94.8737V139.671H92.1426V124.73L92.2798 125.608L87.3663 136.899H85.4176L80.5041 125.882L80.6412 124.73V139.671H77.9102V119.722H80.5317L86.3923 132.893L86.3915 132.893Z" fill="#FCFCFC"/>
<path d="M106.349 139.876C104.957 139.876 103.741 139.567 102.698 138.95C101.655 138.332 100.845 137.466 100.269 136.349C99.6924 135.234 99.4043 133.93 99.4043 132.439V126.965C99.4043 125.465 99.6924 124.157 100.269 123.041C100.845 121.925 101.655 121.058 102.698 120.441C103.741 119.823 104.958 119.514 106.349 119.514C107.502 119.514 108.556 119.761 109.512 120.255C110.468 120.749 111.269 121.44 111.914 122.327C112.56 123.214 112.997 124.252 113.225 125.441H110.356C110.182 124.801 109.892 124.241 109.485 123.76C109.077 123.28 108.599 122.907 108.05 122.642C107.502 122.378 106.934 122.245 106.349 122.245C105.122 122.245 104.136 122.677 103.39 123.541C102.644 124.405 102.272 125.547 102.272 126.964V132.438C102.272 133.856 102.645 134.995 103.39 135.855C104.136 136.714 105.122 137.145 106.349 137.145C107.218 137.145 108.037 136.87 108.805 136.321C109.574 135.773 110.091 134.981 110.356 133.947H113.225C112.997 135.136 112.557 136.175 111.907 137.062C111.258 137.949 110.457 138.64 109.505 139.134C108.553 139.628 107.501 139.874 106.348 139.874L106.349 139.876Z" fill="#FCFCFC"/>
<path d="M123.258 139.876C121.849 139.876 120.618 139.572 119.566 138.963C118.514 138.355 117.697 137.498 117.116 136.391C116.534 135.284 116.244 133.995 116.244 132.522V126.869C116.244 125.388 116.534 124.096 117.116 122.994C117.696 121.892 118.514 121.036 119.566 120.428C120.618 119.82 121.849 119.516 123.258 119.516C124.667 119.516 125.898 119.82 126.95 120.428C128.002 121.037 128.819 121.892 129.4 122.994C129.981 124.096 130.272 125.388 130.272 126.869V132.522C130.272 133.995 129.982 135.284 129.4 136.391C128.819 137.498 128.002 138.355 126.95 138.963C125.898 139.572 124.667 139.876 123.258 139.876ZM123.258 137.118C124.511 137.118 125.516 136.707 126.271 135.884C127.026 135.06 127.403 133.972 127.403 132.618V126.774C127.403 125.412 127.026 124.32 126.271 123.502C125.516 122.684 124.511 122.275 123.258 122.275C122.005 122.275 121.012 122.684 120.252 123.502C119.492 124.321 119.112 125.412 119.112 126.774V132.618C119.112 133.972 119.492 135.06 120.252 135.884C121.011 136.707 122.013 137.118 123.258 137.118ZM130.656 139.999L123.217 134.141L124.672 132.289L132.111 138.133L130.656 139.999Z" fill="#FCFCFC"/>
<path d="M143.98 129.541C143.935 128.518 143.769 127.714 143.482 127.131C143.196 126.549 142.762 126.128 142.183 125.87C141.622 125.619 140.881 125.494 139.96 125.494C138.793 125.494 137.811 125.729 137.012 126.199C136.213 126.669 135.604 127.368 135.185 128.295C134.747 129.28 134.528 130.449 134.528 131.802C134.528 133.154 134.736 134.308 135.151 135.246C135.567 136.183 136.183 136.896 137.002 137.385C137.814 137.868 138.8 138.11 139.96 138.11C140.687 138.11 141.286 138.068 141.752 137.984C142.219 137.901 142.604 137.765 142.908 137.579C143.178 137.418 143.416 137.183 143.622 136.873C143.951 136.358 144.115 135.576 144.115 134.526L144.318 134.149H145.565C145.59 135.502 145.381 136.587 144.937 137.405C144.492 138.224 143.806 138.784 142.879 139.086C142.111 139.337 141.139 139.463 139.96 139.463C138.516 139.463 137.275 139.158 136.234 138.55C135.193 137.941 134.409 137.058 133.88 135.898C133.352 134.758 133.088 133.393 133.088 131.802C133.088 130.211 133.359 128.83 133.9 127.677C134.441 126.524 135.227 125.645 136.258 125.039C137.282 124.44 138.516 124.141 139.96 124.141C141.1 124.141 142.048 124.315 142.806 124.662C143.563 125.011 144.157 125.545 144.589 126.266C145.066 127.116 145.353 128.208 145.449 129.54H143.98V129.541Z" fill="#D7E1FF"/>
<path d="M146.115 139.269L151.789 124.334H152.89L158.592 139.269H156.988L155.229 134.419H149.411L147.633 139.269H146.115ZM152.349 126.662L149.923 133.067H154.745L152.349 126.662Z" fill="#D7E1FF"/>
<path d="M162.633 132.285H161.057V139.269H159.627V124.334H164.517C165.348 124.334 166.039 124.381 166.59 124.479C167.141 124.575 167.603 124.727 167.977 124.933C168.376 125.152 168.698 125.448 168.944 125.821C169.337 126.408 169.533 127.238 169.533 128.313C169.533 129.273 169.336 130.057 168.944 130.666C168.55 131.275 167.965 131.698 167.184 131.936C166.476 132.168 165.586 132.284 164.517 132.284H164.363L169.62 139.327H167.813L162.633 132.284V132.285ZM164.518 130.932C165.4 130.932 166.093 130.853 166.596 130.696C167.099 130.538 167.475 130.282 167.727 129.928C167.978 129.541 168.103 129.003 168.103 128.314C168.103 127.58 167.991 127.026 167.765 126.653C167.539 126.279 167.168 126.028 166.654 125.899C166.152 125.764 165.407 125.697 164.421 125.697H161.058V130.932H164.518Z" fill="#D7E1FF"/>
<path d="M172.848 132.671V137.917H179.941L180.657 139.269H171.418V124.334H180.484L180.116 125.697H172.848V131.319H178.377L177.353 132.671H172.849H172.848Z" fill="#D7E1FF"/>
<path d="M184.117 132.671V137.917H191.211L191.927 139.269H182.688V124.334H191.753L191.386 125.697H184.118V131.319H189.646L188.622 132.671H184.119H184.117Z" fill="#D7E1FF"/>
<path d="M196.961 132.285H195.386V139.269H193.955V124.334H198.845C199.676 124.334 200.367 124.381 200.918 124.479C201.469 124.575 201.931 124.727 202.305 124.933C202.704 125.152 203.027 125.448 203.272 125.821C203.665 126.408 203.861 127.238 203.861 128.313C203.861 129.273 203.664 130.057 203.272 130.666C202.878 131.275 202.293 131.698 201.513 131.936C200.804 132.168 199.914 132.284 198.845 132.284H198.691L203.948 139.327H202.141L196.961 132.284V132.285ZM198.846 130.932C199.729 130.932 200.421 130.853 200.924 130.696C201.427 130.538 201.804 130.282 202.055 129.928C202.306 129.541 202.431 129.003 202.431 128.314C202.431 127.58 202.319 127.026 202.093 126.653C201.867 126.279 201.497 126.028 200.982 125.899C200.48 125.764 199.735 125.697 198.75 125.697H195.386V130.932H198.846Z" fill="#D7E1FF"/>
<path d="M223.481 129.493C223.139 128.218 222.504 127.232 221.572 126.537C220.641 125.842 219.496 125.494 218.137 125.494C216.97 125.494 215.988 125.729 215.189 126.199C214.39 126.669 213.781 127.367 213.362 128.295C212.924 129.28 212.706 130.449 212.706 131.801C212.706 133.25 212.899 134.439 213.285 135.366C213.672 136.293 214.265 136.983 215.064 137.433C215.862 137.884 216.887 138.109 218.137 138.109C219.315 138.109 220.353 137.807 221.249 137.201C221.751 136.873 222.168 136.475 222.501 136.008C222.832 135.541 223.102 134.976 223.308 134.312C223.411 133.965 223.487 133.675 223.535 133.443C223.583 133.211 223.617 132.973 223.636 132.728H218.273L217.471 131.356H225.077C225.084 131.439 225.087 131.617 225.087 131.887C225.087 132.879 224.97 133.779 224.738 134.587C224.507 135.395 224.152 136.128 223.675 136.785C223.256 137.372 222.747 137.874 222.148 138.292C221.549 138.711 220.905 139.013 220.215 139.201H220.206C219.51 139.375 218.82 139.462 218.137 139.462C215.856 139.462 214.141 138.821 212.991 137.539C211.84 136.257 211.266 134.345 211.266 131.801C211.266 130.203 211.536 128.829 212.078 127.676C212.619 126.523 213.405 125.644 214.436 125.038C215.461 124.439 216.694 124.14 218.137 124.14C219.246 124.14 220.255 124.334 221.167 124.719C222.079 125.106 222.85 125.666 223.482 126.4C224.216 127.296 224.712 128.326 224.97 129.492H223.482L223.481 129.493Z" fill="#D7E1FF"/>
<path d="M225.057 139.269L230.73 124.334H231.832L237.533 139.269H235.929L234.17 134.419H228.352L226.574 139.269H225.057ZM231.29 126.662L228.864 133.067H233.687L231.29 126.662Z" fill="#D7E1FF"/>
<path d="M241.166 139.269V125.696H236.527V124.334H247.428V125.696H242.596V139.269H241.166H241.166Z" fill="#D7E1FF"/>
<path d="M250.127 132.671V137.917H257.221L257.936 139.269H248.697V124.334H257.763L257.396 125.697H250.128V131.319H255.656L254.632 132.671H250.129H250.127Z" fill="#D7E1FF"/>
<path d="M111.287 31.1588C108.661 35.3557 106.044 39.5576 103.408 43.7486C86.5166 70.609 69.5988 97.4528 52.7739 124.355C51.6098 126.215 50.3723 126.821 48.2516 126.765C42.6348 126.617 37.0115 126.715 30.7285 126.715C57.7179 94.4639 84.3117 62.6833 110.906 30.9035C111.033 30.9884 111.16 31.074 111.287 31.1588Z" fill="#DEDEDE"/>
</g>
<defs>
<clipPath id="clip0_564_5546">
<rect width="258.966" height="140" fill="white" transform="translate(0.0175781)"/>
</clipPath>
</defs>
</svg>
