<svg width="32" height="43" viewBox="0 0 32 43" fill="none" xmlns="http://www.w3.org/2000/svg">
<g id="XMLID_2268_">
<path id="XMLID_2287_" d="M31.9991 7.29153V40.9071C31.9991 41.7037 31.3491 42.3536 30.5522 42.3536H3.87857C3.08171 42.3536 2.43164 41.7037 2.43164 40.9071V2.40695C2.43164 1.61033 3.08171 0.960449 3.87857 0.960449H25.6558L31.9991 7.29153Z" fill="#F55B4B"/>
<path id="XMLID_2286_" d="M32 7.29153V40.9071C32 41.7037 31.3499 42.3536 30.5531 42.3536H28.4875C29.2844 42.3536 29.9345 41.7037 29.9345 40.9071V7.29153L23.6016 0.960449H25.6671L32 7.29153Z" fill="#DD4E43"/>
<path id="XMLID_2285_" d="M31.9996 7.29153H27.1032C26.3063 7.29153 25.6562 6.64165 25.6562 5.84503V0.960449L31.9996 7.29153Z" fill="#DD4E43"/>
<path id="XMLID_2284_" d="M25.8869 20.5616H8.71256C8.13588 20.5616 7.66406 20.0899 7.66406 19.5134C7.66406 18.9369 8.13588 18.4652 8.71256 18.4652H25.8869C26.4635 18.4652 26.9354 18.9369 26.9354 19.5134C26.9354 20.1004 26.474 20.5616 25.8869 20.5616Z" fill="white"/>
<path id="XMLID_2283_" d="M25.8869 25.9388H8.71256C8.13588 25.9388 7.66406 25.4671 7.66406 24.8906C7.66406 24.3141 8.13588 23.8424 8.71256 23.8424H25.8869C26.4635 23.8424 26.9354 24.3141 26.9354 24.8906C26.9354 25.4776 26.474 25.9388 25.8869 25.9388Z" fill="white"/>
<path id="XMLID_2282_" d="M25.8869 31.3161H8.71256C8.13588 31.3161 7.66406 30.8444 7.66406 30.2679C7.66406 29.6914 8.13588 29.2197 8.71256 29.2197H25.8869C26.4635 29.2197 26.9354 29.6914 26.9354 30.2679C26.9354 30.8549 26.474 31.3161 25.8869 31.3161Z" fill="white"/>
<path id="XMLID_2281_" d="M14.5216 15.1111H0V9.23069C0 8.79045 0.356482 8.42358 0.807334 8.42358H14.5216C14.962 8.42358 15.329 8.77997 15.329 9.23069V14.3039C15.329 14.7442 14.9725 15.1111 14.5216 15.1111Z" fill="white"/>
<path id="XMLID_2280_" d="M15.2 14.3843V14.4846C15.2 14.906 14.8465 15.2571 14.3995 15.2571H0V9.62947C0 9.20815 0.353483 8.85706 0.800542 8.85706H1.20602V10.8633C1.20602 12.8094 2.8383 14.3944 4.86566 14.3944H15.2V14.3843Z" fill="#EFEFEF"/>
<path id="XMLID_2279_" d="M0 15.111L2.4325 17.8782V15.111H0Z" fill="#CECECE"/>
<g id="XMLID_2270_">
<path id="XMLID_2276_" d="M3.93354 13.0357V13.738H1.74219V13.0357H2.27692V10.2789H1.74219V9.57666H3.93354C4.4473 9.57666 4.83524 9.69196 5.11834 9.93304C5.40143 10.1741 5.53773 10.4991 5.53773 10.8974C5.53773 11.128 5.48531 11.3376 5.39094 11.5263C5.29658 11.715 5.17076 11.8617 5.01349 11.9561C4.85621 12.0609 4.68845 12.1238 4.48924 12.1657C4.29003 12.2076 4.04887 12.2181 3.7553 12.2181H3.35687V13.0252H3.93354V13.0357ZM3.35687 11.5263H3.51414C3.88112 11.5263 4.12227 11.4634 4.22712 11.3481C4.33197 11.2328 4.38439 11.0756 4.38439 10.8974C4.38439 10.7506 4.34245 10.6144 4.26905 10.5096C4.19566 10.4047 4.11178 10.3418 4.01742 10.3104C3.92305 10.2894 3.76578 10.2685 3.5456 10.2685H3.34638V11.5263H3.35687Z" fill="#F55B4B"/>
<path id="XMLID_2273_" d="M5.78906 13.738V13.0357H6.41816V10.2789H5.78906V9.57666H7.76023C8.17963 9.57666 8.50466 9.59762 8.76678 9.65003C9.01842 9.70244 9.25958 9.81774 9.49025 9.98545C9.72092 10.1636 9.90964 10.3943 10.0459 10.6877C10.1823 10.9812 10.2556 11.3062 10.2556 11.6626C10.2556 11.9561 10.2032 12.2286 10.1089 12.4906C10.0145 12.7527 9.88867 12.9623 9.74188 13.13C9.59509 13.2873 9.42733 13.4235 9.21764 13.5179C9.01842 13.6122 8.82969 13.6751 8.66194 13.7065C8.49418 13.738 8.23205 13.7485 7.87557 13.7485H5.78906V13.738ZM7.50859 13.0357H7.77072C8.08526 13.0357 8.3369 12.9938 8.52563 12.9099C8.71436 12.8261 8.86115 12.6793 8.966 12.4802C9.08134 12.2705 9.13376 12.0085 9.13376 11.673C9.13376 11.3586 9.08134 11.0861 8.966 10.8659C8.85067 10.6458 8.70388 10.4886 8.50466 10.4047C8.31593 10.3209 8.06429 10.2789 7.77072 10.2789H7.50859V13.0357Z" fill="#F55B4B"/>
<path id="XMLID_2271_" d="M10.7402 13.738V13.0357H11.3379V10.2789H10.7402V9.57666H14.4729V10.8659H13.676V10.2894H12.4283V11.2538H13.33V11.9561H12.4283V13.0357H13.0679V13.738H10.7402Z" fill="#F55B4B"/>
</g>
<path id="XMLID_2269_" d="M12.9283 17.0606H2.44336V15.111H14.5744V15.4254C14.5639 16.3269 13.83 17.0606 12.9283 17.0606Z" fill="#CECECE"/>
</g>
</svg>
