<svg width="25" height="25" viewBox="0 0 25 25" fill="none" xmlns="http://www.w3.org/2000/svg">
<g id="Regular/ShareNetwork">
<path id="Vector" d="M6.5 15.5C8.15685 15.5 9.5 14.1569 9.5 12.5C9.5 10.8431 8.15685 9.5 6.5 9.5C4.84315 9.5 3.5 10.8431 3.5 12.5C3.5 14.1569 4.84315 15.5 6.5 15.5Z" stroke="#313131" stroke-width="1.5" stroke-linecap="round" stroke-linejoin="round"/>
<path id="Vector_2" d="M17 22.25C18.6569 22.25 20 20.9069 20 19.25C20 17.5931 18.6569 16.25 17 16.25C15.3431 16.25 14 17.5931 14 19.25C14 20.9069 15.3431 22.25 17 22.25Z" stroke="#313131" stroke-width="1.5" stroke-linecap="round" stroke-linejoin="round"/>
<path id="Vector_3" d="M17 8.75C18.6569 8.75 20 7.40685 20 5.75C20 4.09315 18.6569 2.75 17 2.75C15.3431 2.75 14 4.09315 14 5.75C14 7.40685 15.3431 8.75 17 8.75Z" stroke="#313131" stroke-width="1.5" stroke-linecap="round" stroke-linejoin="round"/>
<path id="Vector_4" d="M14.4777 7.37183L9.02148 10.8781" stroke="#313131" stroke-width="1.5" stroke-linecap="round" stroke-linejoin="round"/>
<path id="Vector_5" d="M9.02148 14.1218L14.4777 17.6281" stroke="#313131" stroke-width="1.5" stroke-linecap="round" stroke-linejoin="round"/>
</g>
</svg>
