<svg width="101" height="100" viewBox="0 0 101 100" fill="none" xmlns="http://www.w3.org/2000/svg">
<g id="vuesax/bold/sms-tracking">
<g id="sms-tracking">
<path id="Vector" d="M30.809 57.7135C21.3601 59.7219 15.3142 68.9864 17.3299 78.4695C19.3456 87.9527 28.637 93.9571 38.0859 91.9486C47.5348 89.9402 53.5735 80.6415 51.565 71.1926C49.5566 61.7437 40.2921 55.6978 30.809 57.7135ZM25.979 69.3316L32.963 67.8471C34.2639 67.5706 35.5165 68.4135 35.7858 69.6802C36.055 70.9469 35.2536 72.2265 33.9526 72.5031L26.9686 73.9876C25.6677 74.2641 24.4151 73.4211 24.1458 72.1544C23.8766 70.8877 24.678 69.6081 25.979 69.3316ZM42.9159 80.3305L28.948 83.2995C27.647 83.576 26.3944 82.7331 26.1251 81.4664C25.8559 80.1997 26.6916 78.9128 27.9583 78.6435L41.9605 75.6673C43.2614 75.3908 44.5141 76.2337 44.7833 77.5004C45.0525 78.7671 44.2168 80.054 42.9159 80.3305Z" fill="#2ECC9B"/>
<path id="Vector_2" d="M61.1906 15.4737L26.9555 22.7506C16.6849 24.9337 10.9294 31.5243 13.4763 43.5066L15.7613 54.2565C16.2925 56.7556 19.1949 57.7847 21.2776 56.3043C24.6942 53.8606 28.8426 52.3347 33.4802 52.1004C42.7627 51.6659 51.5954 57.1954 55.3018 65.7108C56.3684 68.2036 56.9754 70.7224 57.1497 73.2259C57.3051 75.304 59.3268 76.7349 61.3467 76.3056L73.5687 73.7077C83.8392 71.5246 89.5947 64.934 87.0478 52.9517L81.9467 28.9528C79.3998 16.9705 71.4612 13.2906 61.1906 15.4737ZM66.8675 34.2691L57.9711 45.1056C56.0973 47.4003 53.4107 48.9017 50.535 49.513C47.6592 50.1242 44.56 49.8526 41.949 48.5112L29.4142 42.2301C28.1295 41.5728 27.609 39.9659 28.232 38.6885C28.8893 37.4037 30.4547 36.8563 31.7394 37.5136L44.2742 43.7947C47.32 45.33 51.7363 44.3913 53.8943 41.7499L62.7907 30.9134C63.697 29.7904 65.3767 29.6123 66.4727 30.5601C67.5957 31.4665 67.7738 33.1461 66.8675 34.2691Z" fill="#2ECC9B"/>
</g>
</g>
</svg>
