<svg width="33" height="32" viewBox="0 0 33 32" fill="none" xmlns="http://www.w3.org/2000/svg">
<g id="vuesax/linear/user-octagon">
<g id="user-octagon">
<path id="Vector" d="M4.39247 11.4404V20.5603C4.39247 22.0537 5.19247 23.4404 6.48581 24.2004L14.4058 28.7737C15.6991 29.5204 17.2991 29.5204 18.6058 28.7737L26.5258 24.2004C27.8191 23.4537 28.6191 22.067 28.6191 20.5603V11.4404C28.6191 9.94704 27.8191 8.56032 26.5258 7.80032L18.6058 3.22699C17.3125 2.48033 15.7125 2.48033 14.4058 3.22699L6.48581 7.80032C5.19247 8.56032 4.39247 9.9337 4.39247 11.4404Z" stroke="#646464" stroke-width="1.5" stroke-linecap="round" stroke-linejoin="round"/>
<g id="Group">
<path id="Vector_2" d="M16.5008 14.6664C14.785 14.6664 13.3941 13.2755 13.3941 11.5597C13.3941 9.84397 14.785 8.45312 16.5008 8.45312C18.2165 8.45312 19.6074 9.84397 19.6074 11.5597C19.6074 13.2755 18.2165 14.6664 16.5008 14.6664Z" stroke="#646464" stroke-width="1.5" stroke-linecap="round" stroke-linejoin="round"/>
<path id="Vector_3" d="M11.1673 22.2128C11.1673 19.8128 13.554 17.8662 16.5007 17.8662C19.4473 17.8662 21.834 19.8128 21.834 22.2128" stroke="#646464" stroke-width="1.5" stroke-linecap="round" stroke-linejoin="round"/>
</g>
</g>
</g>
</svg>
