<svg width="59" height="40" viewBox="0 0 59 40" fill="none" xmlns="http://www.w3.org/2000/svg">
<g id="Processor/Visa">
<rect id="BASE" x="0.666992" width="58.3333" height="40" rx="4" fill="#00579F"/>
<path id="polygon9" d="M25.6235 26.8048H22.3252L24.3882 14.0488H27.6863L25.6235 26.8048Z" fill="white"/>
<path id="path11" d="M37.5795 14.3605C36.929 14.1024 35.8971 13.8174 34.6212 13.8174C31.3641 13.8174 29.0704 15.5543 29.0563 18.0375C29.0293 19.8696 30.6985 20.8873 31.947 21.4981C33.2231 22.1224 33.6568 22.5298 33.6568 23.0862C33.6438 23.9408 32.6257 24.3347 31.6761 24.3347C30.3592 24.3347 29.6537 24.1316 28.5814 23.6562L28.1471 23.4524L27.6855 26.3158C28.4591 26.6683 29.8844 26.981 31.3641 26.9947C34.8249 26.9947 37.078 25.2847 37.1046 22.6384C37.1178 21.1863 36.2364 20.0736 34.3361 19.1644C33.1825 18.5808 32.476 18.1872 32.476 17.59C32.4895 17.0471 33.0735 16.4911 34.3758 16.4911C35.448 16.4639 36.2358 16.7216 36.8327 16.9795L37.131 17.115L37.5795 14.3605Z" fill="white"/>
<path id="path13" d="M41.9643 22.2858C42.236 21.553 43.2812 18.7168 43.2812 18.7168C43.2675 18.744 43.5523 17.9705 43.7151 17.4956L43.9456 18.5947C43.9456 18.5947 44.5702 21.6481 44.7059 22.2858C44.1904 22.2858 42.6158 22.2858 41.9643 22.2858ZM46.0357 14.0488H43.4844C42.6977 14.0488 42.1 14.2793 41.7605 15.1072L36.8613 26.8046H40.3221C40.3221 26.8046 40.8919 25.2303 41.0144 24.8912C41.394 24.8912 44.7607 24.8912 45.2491 24.8912C45.3438 25.339 45.6427 26.8046 45.6427 26.8046H48.6966L46.0357 14.0488Z" fill="white"/>
<path id="path15" d="M19.57 14.0488L16.3398 22.7472L15.9869 20.9831C15.3897 18.9475 13.5168 16.7359 11.4268 15.6362L14.3854 26.7913H17.8733L23.0577 14.0488H19.57Z" fill="white"/>
<path id="path17" d="M13.3404 14.0488H8.03378L7.97949 14.3066C12.119 15.3651 14.8605 17.9167 15.9869 20.9836L14.8333 15.1211C14.6434 14.3064 14.0597 14.0757 13.3404 14.0488Z" fill="#FAA61A"/>
</g>
</svg>
