<svg width="70" height="49" viewBox="0 0 70 49" fill="none" xmlns="http://www.w3.org/2000/svg">
<g id="Processor/Visa">
<rect id="BASE" y="0.0639648" width="70" height="47.9945" rx="4" fill="white"/>
<path id="polygon9" d="M29.9482 32.2258H25.9902L28.4658 16.9204H32.4236L29.9482 32.2258Z" fill="#00579F"/>
<path id="path11" d="M44.2947 17.2947C43.514 16.985 42.2758 16.6431 40.7447 16.6431C36.8361 16.6431 34.0837 18.7271 34.0668 21.7066C34.0343 23.9049 36.0374 25.1259 37.5356 25.8589C39.0669 26.6079 39.5874 27.0968 39.5874 27.7644C39.5718 28.7898 38.35 29.2624 37.2105 29.2624C35.6303 29.2624 34.7836 29.0187 33.4969 28.4483L32.9757 28.2037L32.4219 31.6395C33.3502 32.0623 35.0604 32.4376 36.8361 32.454C40.989 32.454 43.6928 30.4022 43.7248 27.2271C43.7406 25.4847 42.6829 24.1497 40.4025 23.0588C39.0182 22.3585 38.1704 21.8863 38.1704 21.1697C38.1866 20.5183 38.8875 19.8511 40.4501 19.8511C41.7368 19.8185 42.6822 20.1277 43.3984 20.4372L43.7564 20.5997L44.2947 17.2947Z" fill="#00579F"/>
<path id="path13" d="M49.5572 26.8037C49.8832 25.9244 51.1374 22.5213 51.1374 22.5213C51.121 22.554 51.4627 21.6258 51.6582 21.056L51.9348 22.3748C51.9348 22.3748 52.6843 26.0384 52.847 26.8037C52.2285 26.8037 50.339 26.8037 49.5572 26.8037ZM54.4428 16.9204H51.3813C50.4372 16.9204 49.72 17.197 49.3126 18.1903L43.4336 32.2256H47.5866C47.5866 32.2256 48.2703 30.3366 48.4172 29.9297C48.8728 29.9297 52.9128 29.9297 53.4989 29.9297C53.6126 30.4671 53.9712 32.2256 53.9712 32.2256H57.6359L54.4428 16.9204Z" fill="#00579F"/>
<path id="path15" d="M22.684 16.9204L18.8078 27.3572L18.3843 25.2405C17.6676 22.7981 15.4202 20.1445 12.9121 18.825L16.4625 32.2096H20.648L26.8692 16.9204H22.684Z" fill="#00579F"/>
<path id="path17" d="M15.2085 16.9204H8.84054L8.77539 17.2297C13.7428 18.5 17.0326 21.5619 18.3843 25.2421L16.9999 18.2071C16.772 17.2295 16.0717 16.9527 15.2085 16.9204Z" fill="#FAA61A"/>
</g>
</svg>
