<svg width="41" height="40" viewBox="0 0 41 40" fill="none" xmlns="http://www.w3.org/2000/svg">
<g id="vuesax/bold/empty-wallet">
<g id="empty-wallet">
<path id="Vector" d="M25.2493 6.58366V12.917H22.7493V6.58366C22.7493 6.13366 22.3493 5.91699 22.0827 5.91699C21.9993 5.91699 21.916 5.93366 21.8327 5.96699L8.61602 10.9503C7.73268 11.2837 7.16602 12.117 7.16602 13.067V14.1837C5.64935 15.317 4.66602 17.1337 4.66602 19.1837V13.067C4.66602 11.0837 5.88268 9.31699 7.73268 8.61699L20.966 3.61699C21.3327 3.48366 21.716 3.41699 22.0827 3.41699C23.7493 3.41699 25.2493 4.76699 25.2493 6.58366Z" fill="#2ECC9B"/>
<path id="Vector_2" d="M36.3338 24.1663V25.833C36.3338 26.283 35.9838 26.6497 35.5171 26.6663H33.0838C32.2005 26.6663 31.4005 26.0163 31.3338 25.1497C31.2838 24.633 31.4838 24.1497 31.8171 23.8163C32.1171 23.4997 32.5338 23.333 32.9838 23.333H35.5005C35.9838 23.3497 36.3338 23.7163 36.3338 24.1663Z" fill="#2ECC9B"/>
<path id="Vector_3" d="M32.966 21.5837H34.666C35.5827 21.5837 36.3327 20.8337 36.3327 19.917V19.1837C36.3327 15.7337 33.516 12.917 30.066 12.917H10.9327C9.51602 12.917 8.21602 13.3837 7.16602 14.1837C5.64935 15.317 4.66602 17.1337 4.66602 19.1837V30.4003C4.66602 33.8503 7.48268 36.667 10.9327 36.667H30.066C33.516 36.667 36.3327 33.8503 36.3327 30.4003V30.0837C36.3327 29.167 35.5827 28.417 34.666 28.417H33.216C31.616 28.417 30.0827 27.4337 29.666 25.8837C29.316 24.617 29.7327 23.4003 30.566 22.5837C31.1827 21.9503 32.0327 21.5837 32.966 21.5837ZM23.8327 21.2503H12.166C11.4827 21.2503 10.916 20.6837 10.916 20.0003C10.916 19.317 11.4827 18.7503 12.166 18.7503H23.8327C24.516 18.7503 25.0827 19.317 25.0827 20.0003C25.0827 20.6837 24.516 21.2503 23.8327 21.2503Z" fill="#2ECC9B"/>
</g>
</g>
</svg>
