<svg width="145" height="78" viewBox="0 0 145 78" fill="none" xmlns="http://www.w3.org/2000/svg">
<g id="Object" clip-path="url(#clip0_3087_13464)">
<g id="Group">
<path id="Vector" d="M45.9003 54.6779C44.4895 52.8287 44.1555 52.1873 43.0593 50.4072C41.3476 53.1307 39.6364 55.8541 37.9268 58.5787C40.807 63.0301 42.2465 64.0151 43.198 64.8198C43.4709 65.0506 43.8191 65.1718 44.1761 65.1654L51.9322 65.0235C53.2455 64.9997 53.8808 63.4039 52.941 62.4868C50.9564 60.5499 48.1955 57.6863 45.9003 54.6783V54.6779Z" fill="#FCFCFC"/>
<path id="Vector_2" d="M21.7593 50.9104V50.0115C21.7593 49.2084 21.1163 48.5512 20.3129 48.5326C17.543 48.4679 15.8528 48.2056 15.2426 47.7452C14.5317 47.2097 14.1185 46.5812 14.002 45.8593C13.8852 45.1378 13.8274 44.1827 13.8274 42.9952V31.0979C13.8274 30.2806 14.4901 29.6182 15.3077 29.6182H21.5142C23.5639 29.6182 25.183 30.7127 26.371 32.9014C27.0204 34.0384 27.8789 36.4696 28.9452 40.1954C28.9528 40.2221 28.9613 40.2492 28.9702 40.275C30.4401 44.5344 31.2787 47.2222 32.7854 50.2379C34.7303 47.9134 36.6733 45.5917 38.6142 43.2725C37.8124 41.7067 36.7368 37.267 36.2248 35.9397C35.182 33.1762 33.7696 31.1302 31.9876 29.8017C31.0947 29.136 31.252 27.7355 32.2662 27.2747C34.4893 26.265 36.3389 24.9332 37.8148 23.2785C39.9227 20.9156 40.9769 18.0571 40.9769 14.704C40.9769 13.1442 40.8721 11.7821 40.6623 10.6176C39.3813 3.53948 33.0106 0 21.5498 0H1.57606C0.758449 0 0.0957031 0.662466 0.0957031 1.47974V2.40452C0.0957031 3.18824 0.708712 3.83373 1.49155 3.88102C3.21736 3.98571 4.45268 4.29896 5.19751 4.81955C5.70943 5.19221 5.9662 6.13519 5.9662 7.64888V44.7409C5.9662 45.4393 5.90797 46.0331 5.79151 46.5222C5.67465 47.0112 5.31397 47.4712 4.70823 47.9017C4.22866 48.2428 3.17329 48.4485 1.54169 48.5197C0.752383 48.554 0.130882 49.2076 0.130882 49.9978V50.91C0.130882 51.7273 0.793628 52.3898 1.61124 52.3898H20.2789C21.0965 52.3898 21.7593 51.7273 21.7593 50.91V50.9104ZM13.8278 5.32155C13.8278 4.50428 14.4905 3.84182 15.3081 3.84182H19.488C24.333 3.84182 27.7224 4.78479 29.656 6.67074C31.5893 8.55668 32.5561 11.3104 32.5561 14.9312C32.5561 18.5519 31.7292 21.3226 30.0753 23.2437C28.4211 25.1648 25.6027 26.1252 21.6194 26.1252H15.3077C14.4901 26.1252 13.8274 25.4627 13.8274 24.6454V5.32155H13.8278Z" fill="#FCFCFC"/>
</g>
<path id="Vector_3" d="M144.227 57.0779H43.6422C43.5594 57.0779 43.4922 57.1451 43.4922 57.2279V64.9321C43.4922 65.015 43.5594 65.0821 43.6422 65.0821H144.227C144.31 65.0821 144.377 65.015 144.377 64.9321V57.2279C144.377 57.1451 144.31 57.0779 144.227 57.0779Z" fill="#FCFCFC"/>
<g id="Group_2">
<path id="Vector_4" d="M128.561 54.6969V54.4923H128.826C129.098 54.4923 129.349 54.4515 129.581 54.3699C129.812 54.2882 130 54.1451 130.142 53.941C130.285 53.7365 130.357 53.4443 130.357 53.0627V45.3217C130.357 44.9539 130.285 44.6718 130.142 44.4745C129.999 44.2769 129.812 44.1411 129.581 44.0659C129.349 43.9915 129.098 43.9539 128.826 43.9539H128.642V43.7494H133.011V53.0425C133.011 53.4237 133.079 53.7199 133.216 53.9309C133.351 54.1423 133.539 54.2882 133.777 54.3699C134.015 54.4519 134.271 54.4923 134.543 54.4923H134.788V54.6969H128.561ZM131.582 41.8703C131.242 41.8703 130.953 41.7652 130.715 41.5538C130.476 41.3429 130.357 40.9993 130.357 40.5224C130.357 40.0454 130.476 39.6849 130.715 39.4808C130.952 39.2762 131.242 39.174 131.582 39.174C131.923 39.174 132.215 39.2762 132.46 39.4808C132.705 39.6845 132.828 40.0321 132.828 40.5224C132.828 41.0126 132.705 41.3429 132.46 41.5538C132.215 41.7652 131.922 41.8703 131.582 41.8703Z" fill="#2ECC9B"/>
<path id="Vector_5" d="M80.6155 54.6969V54.4923H80.8399C81.112 54.4923 81.3635 54.4515 81.5952 54.3699C81.8265 54.2886 82.0137 54.1451 82.1569 53.941C82.2996 53.7365 82.3708 53.4443 82.3708 53.0627V45.3217C82.3708 44.9539 82.2996 44.6718 82.1569 44.4745C82.0137 44.2769 81.8265 44.1411 81.5952 44.0659C81.3635 43.9915 81.112 43.9539 80.8399 43.9539H80.6563V43.7494H85.0048V45.6491H85.0456C85.2223 45.0363 85.4641 44.58 85.7707 44.2805C86.0772 43.9814 86.4273 43.7769 86.822 43.6677C87.2166 43.559 87.6186 43.5045 88.027 43.5045C88.9113 43.5045 89.6428 43.6989 90.2214 44.0865C90.7997 44.4745 91.1911 45.1046 91.3953 45.9753H91.4361C91.5587 45.3763 91.7528 44.8965 92.018 44.5355C92.2833 44.175 92.6169 43.9127 93.0184 43.7494C93.4195 43.5861 93.8926 43.5045 94.4373 43.5045C95.6213 43.5045 96.5024 43.8282 97.0814 44.4749C97.6596 45.1216 97.9488 46.126 97.9488 47.4873V52.9609C97.9488 53.3691 97.9997 53.686 98.102 53.9111C98.2039 54.1354 98.3673 54.289 98.5917 54.3703C98.8161 54.4523 99.0988 54.4927 99.4388 54.4927H99.5003V54.6973H95.2945V46.9154C95.2945 45.9486 95.1615 45.2271 94.8962 44.7502C94.631 44.274 94.1987 44.0352 93.5995 44.0352C93.096 44.0352 92.6876 44.1855 92.3747 44.4846C92.0613 44.7841 91.8369 45.2029 91.7006 45.7408C91.5643 46.2788 91.4964 46.9017 91.4964 47.6094V52.9605C91.4964 53.3687 91.5506 53.6856 91.6597 53.9107C91.7685 54.135 91.9319 54.2886 92.1498 54.3699C92.3674 54.4519 92.6464 54.4923 92.9869 54.4923H93.0479V54.6969H88.8422V46.915C88.8422 45.9482 88.7095 45.2267 88.4443 44.7498C88.179 44.2736 87.7399 44.0348 87.1277 44.0348C86.6239 44.0348 86.2155 44.1879 85.9025 44.4943C85.5891 44.8007 85.3647 45.24 85.2288 45.8116C85.0925 46.3839 85.0246 47.0646 85.0246 47.8539V53.0417C85.0246 53.4229 85.0925 53.7191 85.2288 53.9301C85.3647 54.1415 85.5519 54.2874 85.7901 54.3691C86.0282 54.4511 86.2834 54.4915 86.5555 54.4915H86.7391V54.696H80.6143L80.6155 54.6969Z" fill="#2ECC9B"/>
<path id="Vector_6" d="M74.6034 54.6969C73.0382 54.6969 71.8028 54.2244 70.8979 53.2774C69.9925 52.3312 69.54 50.8983 69.54 48.9784C69.54 47.0585 69.9723 45.6487 70.8364 44.7094C71.7009 43.77 72.9771 43.3 74.6645 43.3C76.2435 43.3 77.4821 43.77 78.3806 44.7094C79.279 45.6487 79.7279 47.0718 79.7279 48.9784C79.7279 50.885 79.2956 52.3312 78.4315 53.2774C77.567 54.224 76.2908 54.6969 74.6034 54.6969ZM74.6443 54.4928C75.2294 54.4928 75.6956 54.3125 76.0429 53.9516C76.3903 53.591 76.6386 53.0086 76.7882 52.205C76.9378 51.4015 77.013 50.326 77.013 48.978C77.013 47.63 76.9382 46.5779 76.7882 45.7817C76.6382 44.9846 76.3863 44.4062 76.0328 44.0453C75.6786 43.6847 75.2096 43.5041 74.6241 43.5041C74.0385 43.5041 73.5929 43.6843 73.246 44.0453C72.8991 44.4062 72.6467 44.9846 72.4907 45.7817C72.3346 46.5779 72.2561 47.6438 72.2561 48.978C72.2561 50.3122 72.3342 51.4015 72.4907 52.205C72.6467 53.0086 72.8995 53.5906 73.246 53.9516C73.5933 54.3125 74.0592 54.4928 74.6447 54.4928H74.6443Z" fill="#2ECC9B"/>
<path id="Vector_7" d="M59.3799 54.6969V54.4924H59.6047C59.8764 54.4924 60.1284 54.4515 60.3601 54.3699C60.5913 54.2887 60.7786 54.1452 60.9213 53.941C61.064 53.7365 61.1356 53.4443 61.1356 53.0627V45.3217C61.1356 44.9539 61.064 44.6718 60.9213 44.4745C60.7786 44.2769 60.5913 44.1411 60.3601 44.0659C60.1284 43.9915 59.8764 43.9539 59.6047 43.9539H59.523V43.7494H63.77V45.6083H63.8109C63.9467 45.1992 64.1271 44.8391 64.3519 44.5255C64.5767 44.2122 64.8796 43.9673 65.2605 43.7902C65.6414 43.6136 66.1113 43.5247 66.6693 43.5247C67.4044 43.5247 67.9624 43.6714 68.3433 43.964C68.7242 44.2567 68.9151 44.6685 68.9151 45.1992C68.9151 45.7299 68.7178 46.1289 68.3227 46.4353C67.928 46.7416 67.3494 46.8948 66.5876 46.8948C66.5876 45.928 66.4715 45.2639 66.2403 44.9034C66.0086 44.5424 65.7025 44.3622 65.3215 44.3622C65.0486 44.3622 64.8145 44.4475 64.6172 44.6172C64.4198 44.7874 64.2597 45.036 64.1372 45.3629C64.0147 45.6895 63.9265 46.0711 63.8719 46.5068C63.8173 46.9425 63.7906 47.4328 63.7906 47.9772V53.0425C63.7906 53.4237 63.8586 53.72 63.9944 53.9309C64.1303 54.1423 64.3175 54.2882 64.5561 54.3699C64.7939 54.4519 65.049 54.4924 65.3215 54.4924H65.8116V54.6969H59.3803H59.3799Z" fill="#2ECC9B"/>
<path id="Vector_8" d="M118.608 54.6969V54.4924H118.833C119.105 54.4924 119.357 54.4515 119.589 54.3699C119.82 54.2887 120.007 54.1452 120.15 53.941C120.293 53.7365 120.364 53.4443 120.364 53.0627V45.3217C120.364 44.9539 120.293 44.6718 120.15 44.4745C120.007 44.2769 119.82 44.1411 119.589 44.0659C119.357 43.9915 119.105 43.9539 118.833 43.9539H118.752V43.7494H122.999V45.6083H123.039C123.175 45.1992 123.356 44.8391 123.58 44.5255C123.805 44.2122 124.108 43.9673 124.489 43.7902C124.87 43.6136 125.34 43.5247 125.898 43.5247C126.633 43.5247 127.191 43.6714 127.572 43.964C127.953 44.2567 128.144 44.6685 128.144 45.1992C128.144 45.7299 127.946 46.1289 127.551 46.4353C127.157 46.7416 126.578 46.8948 125.816 46.8948C125.816 45.928 125.7 45.2639 125.469 44.9034C125.237 44.5424 124.931 44.3622 124.55 44.3622C124.277 44.3622 124.043 44.4475 123.846 44.6172C123.648 44.7874 123.488 45.036 123.366 45.3629C123.243 45.6895 123.155 46.0711 123.1 46.5068C123.046 46.9425 123.019 47.4328 123.019 47.9772V53.0425C123.019 53.4237 123.087 53.72 123.223 53.9309C123.359 54.1423 123.546 54.2882 123.785 54.3699C124.022 54.4519 124.278 54.4924 124.55 54.4924H125.04V54.6969H118.609H118.608Z" fill="#2ECC9B"/>
<path id="Vector_9" d="M114.481 54.6969C113.514 54.6969 112.776 54.4592 112.266 53.9823C111.755 53.5061 111.5 52.6751 111.5 51.4904V43.7498H109.948V43.5453C110.548 43.5453 111.071 43.4875 111.52 43.3719C111.969 43.2563 112.357 43.0692 112.684 42.8101C112.997 42.5647 113.256 42.2519 113.46 41.8707C113.664 41.4896 113.828 41.0405 113.95 40.5224H114.154V43.5453H116.849V43.7498H114.154V52.3481C114.154 53.0154 114.28 53.509 114.532 53.8291C114.784 54.1492 115.161 54.3089 115.665 54.3089C115.855 54.3089 116.059 54.2886 116.277 54.2478C116.495 54.207 116.727 54.1391 116.971 54.0433V54.2478C116.767 54.3432 116.443 54.4414 116.002 54.5437C115.559 54.6459 115.052 54.6969 114.48 54.6969H114.481Z" fill="#2ECC9B"/>
<path id="Vector_10" d="M105.535 54.6969C103.923 54.6969 102.687 54.2228 101.829 53.2717C100.971 52.3223 100.541 50.9949 100.541 49.29C100.541 47.4554 100.951 46.069 101.769 45.1321C102.589 44.194 103.738 43.7252 105.219 43.7252C106.595 43.7252 107.673 44.1217 108.452 44.9159C109.232 45.7081 109.622 46.8855 109.622 48.4441V48.9166H103.136C103.149 50.2532 103.244 51.3292 103.421 52.1416C103.598 52.954 103.886 53.5474 104.286 53.9204C104.686 54.2943 105.199 54.4802 105.828 54.4802C106.3 54.4802 106.727 54.386 107.106 54.1949C107.485 54.0057 107.803 53.7078 108.059 53.302C108.314 52.895 108.488 52.3708 108.58 51.7281C108.802 51.7673 108.963 51.8651 109.061 52.0236C109.16 52.1812 109.21 52.3574 109.21 52.5539C109.21 52.8817 109.071 53.2091 108.796 53.5368C108.521 53.865 108.114 54.1395 107.577 54.363C107.04 54.5857 106.359 54.6965 105.534 54.6965L105.535 54.6969ZM107.028 48.7205C107.028 47.5536 106.972 46.6204 106.861 45.9179C106.749 45.217 106.558 44.7081 106.291 44.3945C106.022 44.0804 105.658 43.9228 105.199 43.9228C104.74 43.9228 104.361 44.0804 104.06 44.3945C103.758 44.7085 103.539 45.217 103.401 45.9179C103.264 46.62 103.175 47.5536 103.136 48.7205H107.027H107.028Z" fill="#2ECC9B"/>
<path id="Vector_11" d="M139.952 54.6969C139.01 54.6969 138.183 54.5206 137.472 54.1682C136.758 53.8149 136.202 53.2394 135.804 52.4419C135.405 51.644 135.206 50.5782 135.206 49.2436C135.206 47.9089 135.408 46.7643 135.814 45.9668C136.219 45.1701 136.775 44.5998 137.481 44.2599C138.187 43.9196 138.991 43.7498 139.893 43.7498C140.599 43.7498 141.227 43.8319 141.776 43.9956C142.325 44.1597 142.759 44.3973 143.079 44.711C143.4 45.025 143.561 45.4054 143.561 45.8492C143.561 46.1115 143.493 46.3528 143.355 46.5743C143.217 46.797 142.985 46.9744 142.659 47.1046C142.332 47.2359 141.887 47.3014 141.324 47.3014C141.324 46.4769 141.282 45.8201 141.197 45.3286C141.112 44.8387 140.959 44.485 140.735 44.2696C140.513 44.0538 140.208 43.9463 139.814 43.9463C139.37 43.9463 138.997 44.1035 138.696 44.4167C138.395 44.73 138.17 45.2704 138.019 46.0351C137.87 46.8002 137.794 47.8701 137.794 49.2431C137.794 50.5119 137.882 51.5317 138.059 52.3041C138.236 53.0757 138.517 53.6318 138.901 53.9714C139.287 54.3117 139.795 54.4806 140.422 54.4806C140.866 54.4806 141.268 54.3966 141.628 54.2268C141.988 54.0558 142.292 53.7684 142.54 53.3635C142.788 52.9576 142.965 52.4144 143.069 51.7346C143.252 51.7871 143.394 51.8886 143.492 52.0385C143.59 52.1889 143.639 52.3756 143.639 52.5983C143.639 52.912 143.508 53.2329 143.246 53.5591C142.984 53.8861 142.582 54.1581 142.039 54.3739C141.497 54.5894 140.801 54.6969 139.951 54.6969H139.952Z" fill="#2ECC9B"/>
<path id="Vector_12" d="M57.4874 39.2855C56.802 38.4085 55.8142 38.0091 54.5243 37.9691C53.1782 37.9271 52.3638 38.322 52.3638 38.322L48.8782 43.8622V53.1355C48.8782 53.5005 48.8107 53.7798 48.6781 53.9746C48.545 54.1698 48.3655 54.3064 48.1399 54.3857C47.9134 54.4633 47.6611 54.5017 47.3813 54.5017H47.1621V54.6969H53.2667V54.5017H52.9679C52.7018 54.5017 52.4523 54.4633 52.219 54.3857C51.9877 54.3064 51.8042 54.1662 51.6711 53.9657C51.5377 53.764 51.471 53.4811 51.471 53.1169V47.1086C51.471 46.6984 51.4649 46.3051 51.4508 45.9284H51.4912C51.6513 46.9296 51.9877 47.6632 52.4997 48.132C53.0116 48.6001 53.6598 48.8341 54.4442 48.8341C55.775 48.8341 56.7851 48.3859 57.4773 47.4878C58.1692 46.5905 58.5149 45.219 58.5149 43.3735C58.5149 41.528 58.1716 40.1639 57.4874 39.286V39.2855ZM55.6415 46.1414C55.4952 46.9094 55.2728 47.4817 54.9731 47.858C54.6743 48.2359 54.2853 48.4239 53.8061 48.4239C53.2874 48.4239 52.8551 48.2327 52.5102 47.8491C52.1632 47.4655 51.904 46.8867 51.7314 46.1123C51.5579 45.3391 51.4714 44.3735 51.4714 43.2155C51.4714 42.15 51.5138 41.0248 52.4374 39.6788C52.7212 39.2653 53.2938 38.7803 53.826 38.7803C54.2914 38.7803 54.6525 38.9731 54.9731 39.2977C55.5311 39.8623 55.8615 42.1031 55.8615 43.1965C55.8615 44.3925 55.7879 45.3751 55.6415 46.1414Z" fill="#2ECC9B"/>
</g>
<g id="Group_3">
<path id="Vector_13" d="M48.2185 74.0406L51.4837 66.7025H52.9443V77.8169H51.4227V69.4926L51.4991 69.9817L48.7616 76.2725H47.6759L44.9383 70.1345L45.0148 69.4922V77.8165H43.4932V66.7021H44.9537L48.2189 74.0402L48.2185 74.0406Z" fill="#FCFCFC"/>
<path id="Vector_14" d="M59.3377 77.9309C58.5625 77.9309 57.8848 77.7587 57.3037 77.4147C56.7227 77.0708 56.2714 76.5882 55.9503 75.9661C55.6293 75.3445 55.4688 74.6182 55.4688 73.7875V70.7375C55.4688 69.9017 55.6293 69.1733 55.9503 68.5513C56.2714 67.9296 56.7227 67.4466 57.3037 67.1027C57.8848 66.7587 58.5629 66.5865 59.3377 66.5865C59.9802 66.5865 60.5673 66.7239 61.1003 66.9992C61.6328 67.2744 62.0792 67.6592 62.4387 68.1536C62.7982 68.6479 63.0416 69.2263 63.169 69.8887H61.5705C61.4735 69.5322 61.3117 69.2198 61.0849 68.9522C60.8581 68.6847 60.5916 68.4769 60.2859 68.3294C59.9802 68.1819 59.664 68.1079 59.3377 68.1079C58.6543 68.1079 58.1052 68.3488 57.6895 68.8302C57.2738 69.3116 57.0664 69.9473 57.0664 70.7371V73.7871C57.0664 74.5769 57.2742 75.2115 57.6895 75.6905C58.1048 76.1694 58.6543 76.4091 59.3377 76.4091C59.8221 76.4091 60.2782 76.2563 60.7064 75.9504C61.1346 75.6448 61.4225 75.2038 61.5705 74.6279H63.169C63.0416 75.2903 62.797 75.8687 62.4347 76.363C62.0728 76.8574 61.6267 77.2421 61.0962 77.5174C60.5661 77.7927 59.9798 77.9301 59.3373 77.9301L59.3377 77.9309Z" fill="#FCFCFC"/>
<path id="Vector_15" d="M68.7583 77.9309C67.9731 77.9309 67.2873 77.7616 66.7013 77.4224C66.115 77.0837 65.6601 76.606 65.3362 75.9892C65.0123 75.3728 64.8506 74.6541 64.8506 73.8336V70.6842C64.8506 69.8588 65.0123 69.139 65.3362 68.525C65.6597 67.9111 66.115 67.4345 66.7013 67.0958C67.2877 66.7571 67.9735 66.5873 68.7583 66.5873C69.5432 66.5873 70.229 66.7567 70.8153 67.0958C71.4016 67.4349 71.8565 67.9111 72.1804 68.525C72.5039 69.139 72.666 69.8588 72.666 70.6842V73.8336C72.666 74.6541 72.5043 75.3728 72.1804 75.9892C71.8565 76.606 71.4016 77.0837 70.8153 77.4224C70.229 77.7616 69.5432 77.9309 68.7583 77.9309ZM68.7583 76.3946C69.4566 76.3946 70.0163 76.1654 70.4368 75.7067C70.8573 75.2479 71.0676 74.6416 71.0676 73.8874V70.6312C71.0676 69.8722 70.8573 69.2643 70.4368 68.8084C70.0163 68.3524 69.4566 68.1245 68.7583 68.1245C68.06 68.1245 67.5068 68.3524 67.0835 68.8084C66.6601 69.2647 66.4486 69.8722 66.4486 70.6312V73.8874C66.4486 74.6416 66.6601 75.2479 67.0835 75.7067C67.5064 76.1654 68.0648 76.3946 68.7583 76.3946ZM72.88 77.9996L68.7353 74.7358L69.546 73.7039L73.6907 76.96L72.88 77.9996Z" fill="#FCFCFC"/>
</g>
<g id="Group_4">
<path id="Vector_16" d="M80.304 72.173C80.2789 71.6027 80.1863 71.1548 80.0266 70.8303C79.8669 70.5057 79.6255 70.2713 79.3024 70.1278C78.9902 69.9879 78.5774 69.918 78.0638 69.918C77.414 69.918 76.8669 70.049 76.4217 70.3109C75.9765 70.5728 75.6373 70.962 75.404 71.4786C75.1597 72.0275 75.0376 72.679 75.0376 73.4324C75.0376 74.1858 75.1537 74.8289 75.3849 75.3511C75.6166 75.8733 75.9599 76.2706 76.4161 76.5431C76.8685 76.8122 77.4177 76.9468 78.0638 76.9468C78.4694 76.9468 78.8026 76.9234 79.0626 76.8769C79.3226 76.8304 79.5373 76.7549 79.7063 76.651C79.8572 76.5612 79.9898 76.4303 80.1046 76.2581C80.2878 75.9711 80.3792 75.5354 80.3792 74.9501L80.492 74.7404H81.1867C81.2009 75.4938 81.0844 76.0985 80.8369 76.5544C80.5891 77.0103 80.2069 77.3223 79.6902 77.4909C79.2628 77.6307 78.7209 77.7007 78.0638 77.7007C77.2596 77.7007 76.5681 77.5309 75.9882 77.1922C75.4084 76.8531 74.9713 76.3608 74.6769 75.7145C74.3825 75.0795 74.2354 74.3188 74.2354 73.4324C74.2354 72.546 74.3862 71.7765 74.6878 71.1342C74.9895 70.4919 75.4274 70.0021 76.0016 69.6646C76.5721 69.3311 77.2596 69.1642 78.0638 69.1642C78.6995 69.1642 79.2276 69.2612 79.6497 69.4548C80.0715 69.6488 80.4026 69.9463 80.6432 70.3481C80.9089 70.8218 81.0686 71.4301 81.1224 72.1726H80.304V72.173Z" fill="#7D9DFF"/>
<path id="Vector_17" d="M81.4932 77.5926L84.654 69.2715H85.2679L88.4445 77.5926H87.5509L86.5707 74.8906H83.3294L82.3387 77.5926H81.4932ZM84.9662 70.5686L83.6144 74.1372H86.3014L84.9662 70.5686Z" fill="#7D9DFF"/>
<path id="Vector_18" d="M90.6963 73.7015H89.8185V77.5926H89.0215V69.2715H91.7461C92.2091 69.2715 92.594 69.2982 92.9009 69.3524C93.2078 69.4061 93.4654 69.4906 93.6736 69.6054C93.896 69.7275 94.0756 69.8924 94.2123 70.1005C94.4314 70.4271 94.5406 70.8899 94.5406 71.4889C94.5406 72.0237 94.431 72.4606 94.2123 72.7997C93.9931 73.1388 93.6668 73.3749 93.2321 73.5074C92.8374 73.6364 92.3417 73.7011 91.7461 73.7011H91.6599L94.5891 77.6249H93.5823L90.6963 73.7011V73.7015ZM91.7465 72.9481C92.2382 72.9481 92.6239 72.904 92.9041 72.8163C93.1844 72.7286 93.3942 72.5859 93.5341 72.3882C93.6741 72.1728 93.744 71.8733 93.744 71.4893C93.744 71.0803 93.6813 70.7719 93.5556 70.5637C93.4298 70.3556 93.2232 70.2157 92.9365 70.1438C92.6567 70.0686 92.2418 70.031 91.6927 70.031H89.8189V72.9481H91.7465Z" fill="#7D9DFF"/>
<path id="Vector_19" d="M96.3874 73.9169V76.8396H100.34L100.738 77.593H95.5908V69.2719H100.642L100.437 70.031H96.3878V73.1635H99.4678L98.8973 73.9169H96.3882H96.3874Z" fill="#7D9DFF"/>
<path id="Vector_20" d="M102.666 73.9169V76.8396H106.618L107.017 77.593H101.869V69.2719H106.92L106.715 70.031H102.666V73.1635H105.746L105.176 73.9169H102.667H102.666Z" fill="#7D9DFF"/>
<path id="Vector_21" d="M109.822 73.7015H108.944V77.5926H108.147V69.2715H110.872C111.335 69.2715 111.72 69.2982 112.027 69.3524C112.334 69.4061 112.591 69.4906 112.8 69.6054C113.022 69.7275 113.202 69.8924 113.338 70.1005C113.557 70.4271 113.667 70.8899 113.667 71.4889C113.667 72.0237 113.557 72.4606 113.338 72.7997C113.119 73.1388 112.793 73.3749 112.358 73.5074C111.963 73.6364 111.468 73.7011 110.872 73.7011H110.786L113.715 77.6249H112.708L109.822 73.7011V73.7015ZM110.872 72.9481C111.364 72.9481 111.75 72.904 112.03 72.8163C112.31 72.7286 112.52 72.5859 112.66 72.3882C112.8 72.1728 112.87 71.8733 112.87 71.4893C112.87 71.0803 112.807 70.7719 112.682 70.5637C112.556 70.3556 112.349 70.2157 112.062 70.1438C111.783 70.0686 111.368 70.031 110.819 70.031H108.945V72.9481H110.872Z" fill="#7D9DFF"/>
<path id="Vector_22" d="M124.598 72.1461C124.407 71.4356 124.053 70.8867 123.534 70.4991C123.016 70.1119 122.377 69.9178 121.62 69.9178C120.97 69.9178 120.423 70.0488 119.978 70.3107C119.533 70.5726 119.194 70.9619 118.96 71.4784C118.716 72.0273 118.594 72.6789 118.594 73.4323C118.594 74.2394 118.702 74.9015 118.917 75.4181C119.133 75.9346 119.463 76.319 119.908 76.57C120.353 76.821 120.924 76.9467 121.62 76.9467C122.277 76.9467 122.855 76.7781 123.354 76.4407C123.634 76.2576 123.866 76.0361 124.051 75.7758C124.236 75.5159 124.386 75.201 124.501 74.8312C124.559 74.6376 124.601 74.4759 124.628 74.3466C124.655 74.2176 124.673 74.085 124.684 73.9484H121.696L121.249 73.1841H125.487C125.491 73.2306 125.492 73.3296 125.492 73.48C125.492 74.0325 125.428 74.5341 125.298 74.9844C125.169 75.4346 124.971 75.8429 124.706 76.2091C124.472 76.5356 124.189 76.8153 123.855 77.0486C123.521 77.2818 123.162 77.4503 122.778 77.5546H122.773C122.385 77.6516 122.001 77.7001 121.62 77.7001C120.35 77.7001 119.394 77.3432 118.753 76.629C118.112 75.9148 117.792 74.8494 117.792 73.4319C117.792 72.5418 117.943 71.7759 118.244 71.1337C118.546 70.4914 118.984 70.0015 119.558 69.664C120.129 69.3306 120.817 69.1636 121.62 69.1636C122.238 69.1636 122.8 69.2716 123.309 69.4866C123.817 69.702 124.246 70.014 124.598 70.4231C125.007 70.9219 125.284 71.4962 125.428 72.1457H124.598L124.598 72.1461Z" fill="#7D9DFF"/>
<path id="Vector_23" d="M125.475 77.5926L128.635 69.2715H129.249L132.426 77.5926H131.532L130.552 74.8906H127.311L126.32 77.5926H125.475ZM128.948 70.5686L127.596 74.1372H130.283L128.948 70.5686Z" fill="#7D9DFF"/>
<path id="Vector_24" d="M134.451 77.5926V70.0306H131.866V69.2715H137.94V70.0306H135.247V77.5926H134.45H134.451Z" fill="#7D9DFF"/>
<path id="Vector_25" d="M139.442 73.9169V76.8396H143.394L143.793 77.593H138.646V69.2719H143.696L143.492 70.031H139.443V73.1635H142.523L141.952 73.9169H139.443H139.442Z" fill="#7D9DFF"/>
</g>
<path id="Vector_26" d="M62.0888 17.3599C60.6258 19.6982 59.1677 22.0392 57.699 24.3742C48.288 39.3393 38.8623 54.2951 29.4885 69.2833C28.8399 70.32 28.1505 70.6575 26.9689 70.6264C23.8396 70.5439 20.7066 70.5985 17.2061 70.5985C32.243 52.6299 47.0595 34.9236 61.8765 17.2177C61.9472 17.2649 62.018 17.3126 62.0888 17.3599Z" fill="#DEDEDE"/>
</g>
<defs>
<clipPath id="clip0_3087_13464">
<rect width="144.281" height="78" fill="white" transform="translate(0.0957031)"/>
</clipPath>
</defs>
</svg>
