<svg width="59" height="40" viewBox="0 0 59 40" fill="none" xmlns="http://www.w3.org/2000/svg">
<rect width="58.3333" height="40" rx="4" fill="#2E4369"/>
<path d="M50.2813 19.3987C50.2813 16.9453 48.5721 15.2197 46.1759 15.2197C43.1255 15.2197 41.0811 17.436 41.0811 20.6008C41.0811 23.0706 42.8066 24.7798 45.2436 24.7798C47.4599 24.7798 49.1118 23.7085 49.7906 21.9993H47.329C47.0019 22.5308 46.3068 22.8661 45.4563 22.8661C44.1478 22.8661 43.33 21.9993 43.2564 20.7726H50.1422C50.2322 20.3064 50.2813 19.9057 50.2813 19.3987ZM43.4445 19.1124C43.6653 17.9839 44.7611 17.0843 46.086 17.0843C47.2309 17.0843 48.0978 17.9185 48.0978 19.1124H43.4445Z" fill="white"/>
<path d="M34.4658 24.5594L34.9074 22.2041C36.2568 22.474 36.4612 21.7134 36.8129 19.8816L36.9846 18.9738C37.4753 16.4141 38.4648 15.1383 41.2944 15.4818L40.8528 17.8371C39.5034 17.5672 39.2663 18.5894 38.9637 20.176L38.792 21.0837C38.3013 23.6761 37.279 24.9028 34.4658 24.5594Z" fill="white"/>
<path d="M31.1611 24.567L32.8294 15.4404H35.0293L33.3692 24.567H31.1611Z" fill="white"/>
<path d="M18.5586 15.4404H20.693L21.3882 22.0401L24.185 15.4404H26.3031L27.0473 22.1055L29.7461 15.4404H31.8723L28.0041 24.567H25.5835L24.7984 18.2864L22.1242 24.567H19.7853L18.5586 15.4404Z" fill="white"/>
<path d="M10.585 17.8611L8.0498 20.2818H12.3596L12.8094 19.2268H10.6259L11.9916 17.8611L11.1983 16.4954H14.9029L11.4846 24.567H12.7685L16.6367 15.4404H9.16201L10.585 17.8611Z" fill="#00B9FF"/>
</svg>
