<svg width="70" height="49" viewBox="0 0 70 49" fill="none" xmlns="http://www.w3.org/2000/svg">
<rect y="0.0639648" width="70" height="47.9945" rx="4" fill="white"/>
<path d="M60.3376 23.3403C60.3376 20.3966 58.2866 18.3262 55.4112 18.3262C51.7508 18.3262 49.2974 20.9853 49.2974 24.7828C49.2974 27.7461 51.368 29.7969 54.2925 29.7969C56.9519 29.7969 58.9343 28.5115 59.7488 26.4607H56.7949C56.4024 27.0985 55.5682 27.5008 54.5476 27.5008C52.9774 27.5008 51.9961 26.4607 51.9078 24.9888H60.1708C60.2787 24.4295 60.3376 23.9487 60.3376 23.3403ZM52.1335 22.9969C52.3984 21.6428 53.7135 20.5634 55.3033 20.5634C56.6772 20.5634 57.7174 21.5643 57.7174 22.9969H52.1335Z" fill="#2E4369"/>
<path d="M41.3589 29.5321L41.8888 26.7061C43.5081 27.0299 43.7534 26.1173 44.1754 23.9194L44.3815 22.8302C44.9703 19.7589 46.1577 18.2281 49.5532 18.6403L49.0233 21.4663C47.404 21.1424 47.1194 22.369 46.7563 24.2726L46.5503 25.3618C45.9614 28.4723 44.7348 29.9442 41.3589 29.5321Z" fill="#2E4369"/>
<path d="M37.394 29.542L39.396 18.5913H42.0359L40.0437 29.542H37.394Z" fill="#2E4369"/>
<path d="M22.2705 18.5913H24.8318L25.666 26.5099L29.0222 18.5913H31.564L32.457 26.5884L35.6955 18.5913H38.247L33.6052 29.542H30.7004L29.7583 22.006L26.5492 29.542H23.7425L22.2705 18.5913Z" fill="#2E4369"/>
<path d="M12.7024 21.4953L9.66016 24.3998H14.8319L15.3716 23.134H12.7514L14.3903 21.4953L13.4384 19.8566H17.8839L13.7819 29.5415H15.3226L19.9644 18.5908H10.9948L12.7024 21.4953Z" fill="#00B9FF"/>
</svg>
