<svg width="41" height="41" viewBox="0 0 41 41" fill="none" xmlns="http://www.w3.org/2000/svg">
<path d="M33.9333 15.1957C32.8166 13.9624 31.1333 13.2457 28.8 12.9957V11.729C28.8 9.4457 27.8333 7.2457 26.1333 5.71237C24.4166 4.1457 22.1833 3.41237 19.8666 3.62903C15.8833 4.01237 12.5333 7.86237 12.5333 12.029V12.9957C10.2 13.2457 8.51665 13.9624 7.39998 15.1957C5.78332 16.9957 5.83332 19.3957 6.01665 21.0624L7.18332 30.3457C7.53332 33.5957 8.84998 36.929 16.0167 36.929H25.3166C32.4833 36.929 33.8 33.5957 34.15 30.3624L35.3167 21.0457C35.5 19.3957 35.55 16.9957 33.9333 15.1957ZM20.1 5.9457C21.7666 5.7957 23.35 6.31237 24.5833 7.42903C25.8 8.52903 26.4833 10.0957 26.4833 11.729V12.8957H14.85V12.029C14.85 9.06237 17.3 6.21237 20.1 5.9457ZM20.6666 31.229C17.1833 31.229 14.35 28.3957 14.35 24.9124C14.35 21.429 17.1833 18.5957 20.6666 18.5957C24.15 18.5957 26.9833 21.429 26.9833 24.9124C26.9833 28.3957 24.15 31.229 20.6666 31.229Z" fill="#313131"/>
<path d="M17.3333 25.2617H23.9999" stroke="#313131" stroke-width="1.5" stroke-linecap="round" stroke-linejoin="round"/>
<path d="M20.6666 28.5944V21.9277" stroke="#313131" stroke-width="1.5" stroke-linecap="round" stroke-linejoin="round"/>
</svg>
