<svg width="32" height="33" viewBox="0 0 32 33" fill="none" xmlns="http://www.w3.org/2000/svg">
<g id="Social Icons" clip-path="url(#clip0_1020_25714)">
<path id="Vector" d="M29.0559 25.438C28.572 26.556 27.9992 27.5851 27.3355 28.5312C26.4308 29.821 25.6901 30.7139 25.1193 31.2096C24.2344 32.0234 23.2862 32.4402 22.271 32.4639C21.5421 32.4639 20.6631 32.2565 19.6399 31.8358C18.6134 31.417 17.67 31.2096 16.8074 31.2096C15.9028 31.2096 14.9325 31.417 13.8947 31.8358C12.8554 32.2565 12.0181 32.4758 11.3779 32.4975C10.4043 32.539 9.43385 32.1104 8.46519 31.2096C7.84694 30.6704 7.07363 29.746 6.14724 28.4364C5.15329 27.0379 4.33613 25.4162 3.69596 23.5674C3.01035 21.5704 2.66666 19.6367 2.66666 17.7645C2.66666 15.62 3.13005 13.7704 4.05822 12.2204C4.78768 10.9754 5.75811 9.9933 6.97269 9.27233C8.18727 8.55136 9.49962 8.18397 10.9129 8.16046C11.6862 8.16046 12.7003 8.39967 13.9605 8.86977C15.2172 9.34146 16.0241 9.58067 16.3778 9.58067C16.6423 9.58067 17.5387 9.30097 19.0582 8.74336C20.4952 8.22624 21.708 8.01212 22.7016 8.09646C25.3938 8.31374 27.4165 9.37504 28.7616 11.2871C26.3538 12.746 25.1627 14.7894 25.1864 17.4108C25.2082 19.4526 25.9489 21.1517 27.4046 22.5008C28.0644 23.1269 28.8011 23.6109 29.6209 23.9546C29.4431 24.4701 29.2554 24.9639 29.0559 25.438ZM22.8813 1.14043C22.8813 2.74079 22.2966 4.23505 21.1313 5.61812C19.7249 7.26232 18.0238 8.21241 16.1791 8.06249C16.1556 7.8705 16.142 7.66843 16.142 7.45609C16.142 5.91974 16.8108 4.27554 17.9985 2.93119C18.5915 2.25052 19.3456 1.68455 20.2602 1.23306C21.1727 0.788318 22.0359 0.542363 22.8477 0.500244C22.8714 0.714188 22.8813 0.928145 22.8813 1.14041V1.14043Z" fill="black"/>
</g>
<defs>
<clipPath id="clip0_1020_25714">
<rect width="32" height="32" fill="white" transform="translate(0 0.5)"/>
</clipPath>
</defs>
</svg>
