<svg width="72" height="134" viewBox="0 0 72 134" fill="none" xmlns="http://www.w3.org/2000/svg">
<path id="Vector 14" d="M2.99209 0.704862C2.2375 0.362976 1.34863 0.697538 1.00674 1.45213C0.664855 2.20672 0.999418 3.09559 1.75401 3.43747L2.99209 0.704862ZM56.1881 61.68L57.4473 62.4952L56.1881 61.68ZM10.9249 67.8617L9.94239 68.9951L10.9249 67.8617ZM4.33644 55.0228L2.85587 54.7822L4.33644 55.0228ZM18.9696 54.5971L19.2542 53.1244L18.9696 54.5971ZM69.5893 86.8846L71.0778 86.6993L69.5893 86.8846ZM53.8496 133.37L69.8186 126.662L56.0252 116.186L53.8496 133.37ZM4.31661 4.58795C5.07278 4.92634 5.96008 4.58766 6.29847 3.83149C6.63685 3.07532 6.29817 2.18802 5.54201 1.84963L4.31661 4.58795ZM10.7286 4.19515C9.97585 3.84918 9.08518 4.17893 8.73922 4.93166C8.39326 5.68439 8.72301 6.57506 9.47574 6.92102L10.7286 4.19515ZM14.5719 9.31697C15.3182 9.67658 16.2147 9.3631 16.5744 8.6168C16.934 7.87049 16.6205 6.97397 15.8742 6.61436L14.5719 9.31697ZM20.9822 9.14576C20.2443 8.76919 19.3408 9.06209 18.9642 9.79998C18.5877 10.5379 18.8806 11.4413 19.6185 11.8179L20.9822 9.14576ZM24.5964 14.442C25.3237 14.8385 26.2348 14.5704 26.6314 13.843C27.0279 13.1157 26.7597 12.2046 26.0324 11.808L24.5964 14.442ZM30.9993 14.6179C30.2851 14.1981 29.3658 14.4367 28.946 15.1508C28.5261 15.865 28.7647 16.7843 29.4789 17.2041L30.9993 14.6179ZM34.2568 20.1352C34.9542 20.5824 35.882 20.3797 36.3293 19.6824C36.7765 18.9851 36.5738 18.0572 35.8765 17.61L34.2568 20.1352ZM40.631 20.8157C39.9557 20.3358 39.0192 20.4942 38.5394 21.1695C38.0595 21.8447 38.2179 22.7812 38.8931 23.2611L40.631 20.8157ZM43.3393 26.6161C43.9848 27.1354 44.929 27.0331 45.4483 26.3876C45.9675 25.7422 45.8652 24.7979 45.2198 24.2787L43.3393 26.6161ZM49.5877 28.0664C48.9842 27.4988 48.0349 27.5279 47.4673 28.1314C46.8998 28.7348 46.9289 29.6842 47.5323 30.2517L49.5877 28.0664ZM51.3539 34.2167C51.8955 34.8437 52.8427 34.9129 53.4696 34.3714C54.0966 33.8299 54.1658 32.8827 53.6243 32.2557L51.3539 34.2167ZM57.1526 36.9504C56.7064 36.2523 55.7789 36.0482 55.0809 36.4943C54.3828 36.9405 54.1787 37.868 54.6248 38.566L57.1526 36.9504ZM57.0638 43.3244C57.3608 44.0977 58.2286 44.4838 59.0019 44.1867C59.7752 43.8897 60.1614 43.022 59.8643 42.2486L57.0638 43.3244ZM61.2829 48.1224C61.202 47.2979 60.4681 46.6951 59.6436 46.776C58.8192 46.8569 58.2164 47.5908 58.2972 48.4153L61.2829 48.1224ZM58.0222 53.5972C57.855 54.4086 58.3772 55.2019 59.1885 55.3691C59.9999 55.5364 60.7932 55.0142 60.9605 54.2028L58.0222 53.5972ZM58.9445 59.8953C59.3179 59.1558 59.0211 58.2536 58.2816 57.8802C57.5421 57.5068 56.64 57.8035 56.2665 58.543L58.9445 59.8953ZM53.1228 63.3701C52.6046 64.0165 52.7086 64.9605 53.355 65.4787C54.0014 65.9968 54.9454 65.8928 55.4636 65.2464L53.1228 63.3701ZM50.6779 70.0599C51.3225 69.5395 51.4232 68.5951 50.9028 67.9505C50.3824 67.3059 49.438 67.2053 48.7935 67.7256L50.6779 70.0599ZM43.6263 71.0181C42.8821 71.3822 42.5741 72.2806 42.9382 73.0247C43.3024 73.7688 44.2008 74.0769 44.9449 73.7127L43.6263 71.0181ZM38.5481 76.0034C39.354 75.8116 39.8518 75.0028 39.66 74.1969C39.4682 73.391 38.6593 72.8931 37.8534 73.085L38.5481 76.0034ZM31.7581 73.8572C30.9299 73.8735 30.2716 74.5582 30.288 75.3865C30.3043 76.2147 30.989 76.8729 31.8172 76.8566L31.7581 73.8572ZM25.0646 76.2837C25.8784 76.4388 26.6639 75.9049 26.819 75.0912C26.9742 74.2774 26.4403 73.4919 25.6265 73.3368L25.0646 76.2837ZM19.7314 71.5659C18.967 71.2467 18.0885 71.6077 17.7693 72.3721C17.4501 73.1366 17.811 74.0151 18.5755 74.3343L19.7314 71.5659ZM12.6265 71.0795C13.3072 71.5517 14.2418 71.3828 14.714 70.7022C15.1863 70.0215 15.0173 69.0869 14.3367 68.6147L12.6265 71.0795ZM9.53535 64.2077C9.01423 63.5637 8.06972 63.4641 7.42573 63.9852C6.78173 64.5063 6.68212 65.4508 7.20325 66.0948L9.53535 64.2077ZM3.25967 59.1469C3.50427 59.9384 4.34419 60.3817 5.13569 60.1371C5.92718 59.8926 6.37053 59.0526 6.12593 58.2611L3.25967 59.1469ZM7.49922 54.3422C8.32008 54.2305 8.89498 53.4745 8.78329 52.6536C8.67159 51.8328 7.91561 51.2579 7.09475 51.3696L7.49922 54.3422ZM15.4644 52.1742C14.6564 51.9914 13.8532 52.4982 13.6704 53.3063C13.4876 54.1143 13.9944 54.9175 14.8025 55.1002L15.4644 52.1742ZM21.8071 56.6884C22.6188 56.8539 23.411 56.33 23.5765 55.5183C23.742 54.7065 23.2182 53.9143 22.4065 53.7488L21.8071 56.6884ZM28.6977 55.1305C27.8917 54.939 27.0831 55.4371 26.8915 56.2431C26.7 57.0491 27.1981 57.8577 28.0041 58.0492L28.6977 55.1305ZM34.1358 59.6429C34.9326 59.8695 35.7623 59.4073 35.989 58.6105C36.2156 57.8137 35.7534 56.984 34.9566 56.7574L34.1358 59.6429ZM41.1436 58.699C40.3608 58.428 39.5064 58.8428 39.2354 59.6257C38.9643 60.4085 39.3792 61.2628 40.162 61.5339L41.1436 58.699ZM46.0318 63.7965C46.793 64.1235 47.6751 63.7715 48.002 63.0103C48.329 62.2492 47.977 61.3671 47.2158 61.0401L46.0318 63.7965ZM53.1024 63.8918C52.3757 63.4939 51.4641 63.7604 51.0662 64.487C50.6684 65.2136 50.9348 66.1252 51.6615 66.5231L53.1024 63.8918ZM56.9104 69.8276C57.58 70.3153 58.5182 70.168 59.006 69.4984C59.4938 68.8288 59.3464 67.8905 58.6768 67.4027L56.9104 69.8276ZM63.7087 71.7553C63.1347 71.1579 62.1852 71.1389 61.5878 71.7129C60.9904 72.2869 60.9715 73.2364 61.5454 73.8338L63.7087 71.7553ZM65.2175 78.6243C65.6383 79.3379 66.5579 79.5754 67.2715 79.1546C67.9851 78.7339 68.2226 77.8143 67.8018 77.1007L65.2175 78.6243ZM70.4297 83.3545C70.2167 82.5539 69.3951 82.0775 68.5945 82.2905C67.7939 82.5034 67.3175 83.3251 67.5305 84.1257L70.4297 83.3545ZM68.3849 90.117C68.436 90.9438 69.1478 91.5726 69.9746 91.5215C70.8015 91.4703 71.4303 90.7585 71.3791 89.9317L68.3849 90.117ZM71.3704 96.4227C71.4239 95.596 70.7971 94.8825 69.9704 94.829C69.1437 94.7755 68.4302 95.4023 68.3767 96.229L71.3704 96.4227ZM67.6015 102.295C67.4461 103.109 67.9799 103.894 68.7936 104.049C69.6073 104.205 70.3929 103.671 70.5483 102.857L67.6015 102.295ZM68.9629 109.135C69.2111 108.345 68.7717 107.503 67.9813 107.255C67.191 107.007 66.349 107.446 66.1008 108.236L68.9629 109.135ZM63.9512 113.996C63.6227 114.756 63.9729 115.639 64.7334 115.968C65.4939 116.296 66.3767 115.946 66.7052 115.185L63.9512 113.996ZM63.8837 120.972C64.2789 120.244 64.009 119.333 63.281 118.938C62.5529 118.543 61.6423 118.813 61.2471 119.541L63.8837 120.972ZM58.0839 124.862C57.6348 125.558 57.835 126.486 58.5311 126.936C59.2272 127.385 60.1556 127.185 60.6048 126.488L58.0839 124.862ZM56.9632 131.75C57.4552 131.083 57.3136 130.144 56.6471 129.652C55.9806 129.16 55.0414 129.302 54.5495 129.968L56.9632 131.75ZM1.75401 3.43747C2.50803 3.7791 3.36907 4.16393 4.31661 4.58795L5.54201 1.84963C4.59125 1.42417 3.73814 1.04288 2.99209 0.704862L1.75401 3.43747ZM9.47574 6.92102C11.0677 7.65272 12.7779 8.45253 14.5719 9.31697L15.8742 6.61436C14.0605 5.74044 12.3335 4.93278 10.7286 4.19515L9.47574 6.92102ZM19.6185 11.8179C21.2475 12.6493 22.9139 13.5247 24.5964 14.442L26.0324 11.808C24.3235 10.8763 22.6328 9.98816 20.9822 9.14576L19.6185 11.8179ZM29.4789 17.2041C31.0823 18.1467 32.6809 19.1244 34.2568 20.1352L35.8765 17.61C34.2647 16.5762 32.6328 15.5782 30.9993 14.6179L29.4789 17.2041ZM38.8931 23.2611C40.4245 24.3493 41.9126 25.4683 43.3393 26.6161L45.2198 24.2787C43.7416 23.0895 42.2054 21.9346 40.631 20.8157L38.8931 23.2611ZM47.5323 30.2517C48.9092 31.5467 50.1901 32.8693 51.3539 34.2167L53.6243 32.2557C52.3842 30.8201 51.0299 29.4229 49.5877 28.0664L47.5323 30.2517ZM54.6248 38.566C55.6265 40.1333 56.4477 41.7205 57.0638 43.3244L59.8643 42.2486C59.1662 40.4312 58.2478 38.6639 57.1526 36.9504L54.6248 38.566ZM58.2972 48.4153C58.4639 50.1144 58.3842 51.8412 58.0222 53.5972L60.9605 54.2028C61.3845 52.1458 61.4785 50.1159 61.2829 48.1224L58.2972 48.4153ZM56.2665 58.543C55.8797 59.3092 55.4351 60.0832 54.929 60.8647L57.4473 62.4952C58.0087 61.6281 58.5072 60.7613 58.9445 59.8953L56.2665 58.543ZM54.929 60.8647C54.3575 61.7475 53.7543 62.5823 53.1228 63.3701L55.4636 65.2464C56.1589 64.379 56.8213 63.462 57.4473 62.4952L54.929 60.8647ZM48.7935 67.7256C47.1673 69.0384 45.4335 70.1337 43.6263 71.0181L44.9449 73.7127C46.9507 72.7312 48.8747 71.5156 50.6779 70.0599L48.7935 67.7256ZM37.8534 73.085C35.8516 73.5614 33.8068 73.8168 31.7581 73.8572L31.8172 76.8566C34.0756 76.8121 36.3336 76.5305 38.5481 76.0034L37.8534 73.085ZM25.6265 73.3368C23.6108 72.9525 21.6326 72.3598 19.7314 71.5659L18.5755 74.3343C20.6692 75.2086 22.8466 75.8608 25.0646 76.2837L25.6265 73.3368ZM14.3367 68.6147C13.4973 68.0323 12.686 67.4032 11.9074 66.7282L9.94239 68.9951C10.8032 69.7413 11.6997 70.4364 12.6265 71.0795L14.3367 68.6147ZM11.9074 66.7282C11.303 66.2043 10.4362 65.3209 9.53535 64.2077L7.20325 66.0948C8.19412 67.3193 9.18172 68.3358 9.94239 68.9951L11.9074 66.7282ZM6.12593 58.2611C5.7849 57.1576 5.6735 56.1465 5.81701 55.2635L2.85587 54.7822C2.61662 56.2542 2.82791 57.7498 3.25967 59.1469L6.12593 58.2611ZM5.81701 55.2635C5.85307 55.0416 5.94334 54.9024 6.14522 54.7655C6.39495 54.5962 6.82731 54.4336 7.49922 54.3422L7.09475 51.3696C6.18248 51.4937 5.24207 51.7532 4.46132 52.2827C3.63272 52.8447 3.03481 53.6812 2.85587 54.7822L5.81701 55.2635ZM14.8025 55.1002C15.7371 55.3117 16.5773 55.5274 17.2396 55.7016C17.851 55.8625 18.4203 56.0187 18.685 56.0699L19.2542 53.1244C19.1197 53.0984 18.7301 52.9917 18.0029 52.8003C17.3265 52.6224 16.4482 52.3967 15.4644 52.1742L14.8025 55.1002ZM18.685 56.0699C19.6712 56.2604 20.7152 56.4657 21.8071 56.6884L22.4065 53.7488C21.3016 53.5236 20.2471 53.3162 19.2542 53.1244L18.685 56.0699ZM28.0041 58.0492C29.9863 58.5203 32.0445 59.048 34.1358 59.6429L34.9566 56.7574C32.8166 56.1486 30.7153 55.61 28.6977 55.1305L28.0041 58.0492ZM40.162 61.5339C42.14 62.2188 44.1082 62.9702 46.0318 63.7965L47.2158 61.0401C45.2172 60.1815 43.1806 59.4043 41.1436 58.699L40.162 61.5339ZM51.6615 66.5231C53.5126 67.5368 55.2742 68.6356 56.9104 69.8276L58.6768 67.4027C56.9226 66.1248 55.0501 64.9583 53.1024 63.8918L51.6615 66.5231ZM61.5454 73.8338C62.97 75.3165 64.2068 76.91 65.2175 78.6243L67.8018 77.1007C66.66 75.164 65.2763 73.3867 63.7087 71.7553L61.5454 73.8338ZM67.5305 84.1257C67.7823 85.0726 67.9742 86.0534 68.1008 87.07L71.0778 86.6993C70.9345 85.5481 70.7167 84.4335 70.4297 83.3545L67.5305 84.1257ZM68.1008 87.07C68.2284 88.0946 68.3226 89.1103 68.3849 90.117L71.3791 89.9317C71.313 88.863 71.2131 87.7856 71.0778 86.6993L68.1008 87.07ZM68.3767 96.229C68.2435 98.2872 67.9806 100.309 67.6015 102.295L70.5483 102.857C70.9499 100.754 71.2289 98.6089 71.3704 96.4227L68.3767 96.229ZM66.1008 108.236C65.4868 110.191 64.7657 112.111 63.9512 113.996L66.7052 115.185C67.558 113.212 68.316 111.195 68.9629 109.135L66.1008 108.236ZM61.2471 119.541C60.266 121.348 59.207 123.121 58.0839 124.862L60.6048 126.488C61.7652 124.69 62.8634 122.851 63.8837 120.972L61.2471 119.541Z" fill="#313131"/>
</svg>
