<svg width="33" height="33" viewBox="0 0 33 33" fill="none" xmlns="http://www.w3.org/2000/svg">
<rect y="12.1074" width="24" height="24" rx="12" transform="rotate(-30 0 12.1074)" fill="#313131"/>
<path d="M20.6515 9.2152C20.5765 9.0853 20.4533 8.99189 20.3098 8.95346L16.4986 7.93225C16.2015 7.85264 15.8897 8.03264 15.8101 8.32975C15.7305 8.62686 15.9105 8.93863 16.2076 9.01824L18.7177 9.69081L8.1955 15.7658C7.9292 15.9196 7.83586 16.2679 7.98961 16.5342C8.14336 16.8005 8.48795 16.8873 8.75425 16.7336L19.27 10.6623L18.6001 13.1622C18.5205 13.4593 18.7005 13.771 18.9976 13.8507C19.1513 13.8918 19.301 13.8661 19.4244 13.7948C19.5478 13.7236 19.6449 13.6068 19.6861 13.4532L20.7046 9.65219C20.7238 9.58048 20.729 9.49952 20.7175 9.41957C20.7138 9.41307 20.71 9.40658 20.7128 9.39633C20.7022 9.33312 20.6852 9.27366 20.6515 9.2152Z" fill="#FCFCFC"/>
<path d="M23.8362 15.855L13.3205 21.9263L13.9903 19.4264C14.0699 19.1293 13.8899 18.8176 13.5928 18.738C13.2957 18.6583 12.984 18.8383 12.9043 19.1355L11.8859 22.9364C11.8667 23.0081 11.8614 23.0891 11.873 23.169C11.8767 23.1755 11.8805 23.182 11.8777 23.1923C11.8882 23.2555 11.909 23.3214 11.9427 23.3799C12.0177 23.5098 12.1409 23.6032 12.2844 23.6416L16.0956 24.6629C16.2493 24.704 16.3989 24.6783 16.5223 24.607C16.6457 24.5358 16.7429 24.419 16.7841 24.2654C16.8637 23.9682 16.6837 23.6565 16.3866 23.5769L13.8765 22.9043L24.3987 16.8293C24.665 16.6755 24.7584 16.3272 24.6046 16.0609C24.4509 15.7946 24.1025 15.7013 23.8362 15.855Z" fill="#FCFCFC"/>
</svg>
