<svg width="24" height="25" viewBox="0 0 24 25" fill="none" xmlns="http://www.w3.org/2000/svg">
<g id="vuesax/bold/notification-bing">
<g id="vuesax/bold/notification-bing_2">
<g id="notification-bing">
<path id="Vector" d="M20.1902 14.56L19.0602 12.68C18.8102 12.27 18.5902 11.48 18.5902 11V9.13005C18.5902 5.50005 15.6402 2.55005 12.0202 2.55005C8.3902 2.56005 5.4402 5.50005 5.4402 9.13005V10.99C5.4402 11.47 5.2202 12.26 4.9802 12.67L3.8502 14.55C3.4202 15.28 3.3202 16.11 3.5902 16.83C3.8602 17.56 4.4702 18.14 5.2702 18.4C6.3502 18.76 7.4402 19.02 8.5502 19.21C8.6602 19.23 8.7702 19.24 8.8802 19.26C9.0202 19.2801 9.1702 19.3 9.3202 19.32C9.5802 19.3601 9.8402 19.39 10.1102 19.41C10.7402 19.47 11.3802 19.5 12.0202 19.5C12.6502 19.5 13.2802 19.47 13.9002 19.41C14.1302 19.39 14.3602 19.3701 14.5802 19.34C14.7602 19.32 14.9402 19.3001 15.1202 19.2701C15.2302 19.26 15.3402 19.24 15.4502 19.22C16.5702 19.04 17.6802 18.76 18.7602 18.4C19.5302 18.14 20.1202 17.56 20.4002 16.82C20.6802 16.07 20.6002 15.25 20.1902 14.56ZM12.7502 10.5C12.7502 10.92 12.4102 11.26 11.9902 11.26C11.5702 11.26 11.2302 10.92 11.2302 10.5V7.40005C11.2302 6.98005 11.5702 6.64005 11.9902 6.64005C12.4102 6.64005 12.7502 6.98005 12.7502 7.40005V10.5Z" fill="#313131"/>
<path id="Vector_2" d="M14.8302 20.51C14.4102 21.67 13.3002 22.5 12.0002 22.5C11.2102 22.5 10.4302 22.18 9.88018 21.61C9.56018 21.31 9.32018 20.91 9.18018 20.5C9.31018 20.52 9.44018 20.53 9.58018 20.55C9.81018 20.58 10.0502 20.61 10.2902 20.63C10.8602 20.68 11.4402 20.71 12.0202 20.71C12.5902 20.71 13.1602 20.68 13.7202 20.63C13.9302 20.61 14.1402 20.6 14.3402 20.57C14.5002 20.55 14.6602 20.53 14.8302 20.51Z" fill="#313131"/>
</g>
</g>
<path id="Vector_3" d="M17 6.5C18.6569 6.5 20 5.15685 20 3.5C20 1.84315 18.6569 0.5 17 0.5C15.3431 0.5 14 1.84315 14 3.5C14 5.15685 15.3431 6.5 17 6.5Z" fill="#1CCD4E"/>
</g>
</svg>
