<svg width="24" height="25" viewBox="0 0 24 25" fill="none" xmlns="http://www.w3.org/2000/svg">
<g id="vuesax/linear/box">
<g id="box">
<g id="Group">
<g id="Group_2">
<path id="Vector" d="M3.17188 7.94043L12.0019 13.0504L20.7719 7.9704" stroke="#646464" stroke-width="1.5" stroke-linecap="round" stroke-linejoin="round"/>
<path id="Vector_2" d="M12 22.11V13.04" stroke="#646464" stroke-width="1.5" stroke-linecap="round" stroke-linejoin="round"/>
</g>
<path id="Vector_3" d="M9.9306 2.98L4.59061 5.95003C3.38061 6.62003 2.39062 8.30001 2.39062 9.68001V15.33C2.39062 16.71 3.38061 18.39 4.59061 19.06L9.9306 22.03C11.0706 22.66 12.9406 22.66 14.0806 22.03L19.4206 19.06C20.6306 18.39 21.6206 16.71 21.6206 15.33V9.68001C21.6206 8.30001 20.6306 6.62003 19.4206 5.95003L14.0806 2.98C12.9306 2.34 11.0706 2.34 9.9306 2.98Z" stroke="#646464" stroke-width="1.5" stroke-linecap="round" stroke-linejoin="round"/>
</g>
<path id="Vector_4" d="M17.0017 13.7396V10.0797L7.51172 4.59961" stroke="#646464" stroke-width="1.5" stroke-linecap="round" stroke-linejoin="round"/>
</g>
</g>
</svg>
