<svg width="24" height="25" viewBox="0 0 24 25" fill="none" xmlns="http://www.w3.org/2000/svg">
<path d="M2 10.5H22" stroke="#313131" stroke-width="1.5" stroke-miterlimit="10" stroke-linecap="round" stroke-linejoin="round"/>
<path d="M11.5483 20.9998H6.43829C2.88829 20.9998 1.98828 20.1198 1.98828 16.6098V8.38977C1.98828 5.20977 2.72831 4.18977 5.51831 4.02977C5.79831 4.01977 6.10829 4.00977 6.43829 4.00977H17.5483C21.0983 4.00977 21.9983 4.88977 21.9983 8.39977V12.8098" stroke="#313131" stroke-width="1.5" stroke-linecap="round" stroke-linejoin="round"/>
<path d="M6 16.5H10" stroke="#313131" stroke-width="1.5" stroke-miterlimit="10" stroke-linecap="round" stroke-linejoin="round"/>
<path d="M22 18.5C22 19.25 21.79 19.96 21.42 20.56C20.73 21.72 19.46 22.5 18 22.5C16.54 22.5 15.27 21.72 14.58 20.56C14.21 19.96 14 19.25 14 18.5C14 16.29 15.79 14.5 18 14.5C20.21 14.5 22 16.29 22 18.5Z" stroke="#313131" stroke-width="1.5" stroke-miterlimit="10" stroke-linecap="round" stroke-linejoin="round"/>
<path d="M16.4414 18.4995L17.4314 19.4895L19.5614 17.5195" stroke="#313131" stroke-width="1.5" stroke-linecap="round" stroke-linejoin="round"/>
</svg>
