<svg width="41" height="40" viewBox="0 0 41 40" fill="none" xmlns="http://www.w3.org/2000/svg">
<g id="vuesax/bold/cards">
<g id="cards">
<path id="Vector" d="M25.8654 10.917H10.132C9.66537 10.917 9.23203 10.9337 8.83203 10.9503C4.88203 11.1837 3.83203 12.6337 3.83203 17.1337V18.1003C3.83203 19.017 4.58203 19.767 5.4987 19.767H30.4987C31.4154 19.767 32.1654 19.017 32.1654 18.1003V17.1337C32.1654 12.167 30.8987 10.917 25.8654 10.917Z" fill="#2ECC9B"/>
<path id="Vector_2" d="M5.4987 22.2666C4.58203 22.2666 3.83203 23.0166 3.83203 23.9333V28.7833C3.83203 33.7499 5.0987 34.9999 10.132 34.9999H25.8654C30.8154 34.9999 32.1154 33.7999 32.1654 29.0499V23.9333C32.1654 23.0166 31.4154 22.2666 30.4987 22.2666H5.4987ZM12.0987 30.9333H9.2487C8.56536 30.9333 7.9987 30.3666 7.9987 29.6833C7.9987 28.9999 8.56536 28.4333 9.2487 28.4333H12.1154C12.7987 28.4333 13.3654 28.9999 13.3654 29.6833C13.3654 30.3666 12.7987 30.9333 12.0987 30.9333ZM21.4154 30.9333H15.682C14.9987 30.9333 14.432 30.3666 14.432 29.6833C14.432 28.9999 14.9987 28.4333 15.682 28.4333H21.4154C22.0987 28.4333 22.6654 28.9999 22.6654 29.6833C22.6654 30.3666 22.1154 30.9333 21.4154 30.9333Z" fill="#2ECC9B"/>
<path id="Vector_3" d="M37.1667 22.2167V13.4833C37.1667 8.26667 34.1833 6 29.6833 6H14.8C13.5334 6 12.4 6.18333 11.4 6.56667C10.6167 6.85 9.91668 7.26667 9.35002 7.81667C9.05002 8.1 9.28335 8.56667 9.71668 8.56667H27.8333C31.5833 8.56667 34.6167 11.6 34.6167 15.35V27.3C34.6167 27.7167 35.0667 27.95 35.3667 27.65C36.5167 26.4333 37.1667 24.65 37.1667 22.2167Z" fill="#2ECC9B"/>
</g>
</g>
</svg>
