<svg width="24" height="25" viewBox="0 0 24 25" fill="none" xmlns="http://www.w3.org/2000/svg">
<g id="vuesax/bold/card-pos">
<g id="card-pos">
<path id="Vector" d="M22 21.75C22 22.16 21.66 22.5 21.25 22.5H2.75C2.34 22.5 2 22.16 2 21.75C2 21.34 2.34 21 2.75 21H21.25C21.66 21 22 21.34 22 21.75Z" fill="#292D32"/>
<path id="Vector_2" d="M15.3914 5.01977L4.65141 15.7598C4.24141 16.1698 3.58141 16.1698 3.18141 15.7598H3.17141C1.78141 14.3598 1.78141 12.0998 3.17141 10.7098L10.3214 3.55977C11.7214 2.15977 13.9814 2.15977 15.3814 3.55977C15.7914 3.94977 15.7914 4.61977 15.3914 5.01977Z" fill="#292D32"/>
<path id="Vector_3" d="M20.8214 8.99031L17.7714 5.94031C17.3614 5.53031 16.7014 5.53031 16.3014 5.94031L5.56141 16.6803C5.15141 17.0803 5.15141 17.7403 5.56141 18.1503L8.61141 21.2103C10.0114 22.6003 12.2714 22.6003 13.6714 21.2103L20.8114 14.0603C22.2314 12.6603 22.2314 10.3903 20.8214 8.99031ZM12.7614 18.0203L11.5514 19.2403C11.3014 19.4903 10.8914 19.4903 10.6314 19.2403C10.3814 18.9903 10.3814 18.5803 10.6314 18.3203L11.8514 17.1003C12.0914 16.8603 12.5114 16.8603 12.7614 17.1003C13.0114 17.3503 13.0114 17.7803 12.7614 18.0203ZM16.7314 14.0503L14.2914 16.5003C14.0414 16.7403 13.6314 16.7403 13.3714 16.5003C13.1214 16.2503 13.1214 15.8403 13.3714 15.5803L15.8214 13.1303C16.0614 12.8903 16.4814 12.8903 16.7314 13.1303C16.9814 13.3903 16.9814 13.8003 16.7314 14.0503Z" fill="#292D32"/>
</g>
</g>
</svg>
