<svg width="33" height="32" viewBox="0 0 33 32" fill="none" xmlns="http://www.w3.org/2000/svg">
<g id="vuesax/linear/book">
<g id="book">
<path id="Vector" d="M29.8327 22.3199V6.22659C29.8327 4.62659 28.526 3.43993 26.9393 3.57326H26.8593C24.0593 3.81326 19.806 5.23993 17.4327 6.73326L17.206 6.87993C16.8193 7.11993 16.1793 7.11993 15.7927 6.87993L15.4593 6.67993C13.086 5.19993 8.84601 3.78659 6.04602 3.55993C4.45935 3.42659 3.16602 4.62659 3.16602 6.21326V22.3199C3.16602 23.5999 4.20602 24.7999 5.48602 24.9599L5.87268 25.0133C8.76602 25.3999 13.2327 26.8666 15.7927 28.2666L15.846 28.2933C16.206 28.4933 16.7793 28.4933 17.126 28.2933C19.686 26.8799 24.166 25.3999 27.0727 25.0133L27.5127 24.9599C28.7927 24.7999 29.8327 23.5999 29.8327 22.3199Z" stroke="#646464" stroke-width="1.5" stroke-linecap="round" stroke-linejoin="round"/>
<path id="Vector_2" d="M16.5 7.32031V27.3203" stroke="#646464" stroke-width="1.5" stroke-linecap="round" stroke-linejoin="round"/>
<path id="Vector_3" d="M10.834 11.3203H7.83398" stroke="#646464" stroke-width="1.5" stroke-linecap="round" stroke-linejoin="round"/>
<path id="Vector_4" d="M11.834 15.3203H7.83398" stroke="#646464" stroke-width="1.5" stroke-linecap="round" stroke-linejoin="round"/>
</g>
</g>
</svg>
