<svg width="25" height="25" viewBox="0 0 25 25" fill="none" xmlns="http://www.w3.org/2000/svg">
<path d="M4.4889 15.1604L2.96891 13.6404C2.34891 13.0204 2.34891 12.0004 2.96891 11.3804L4.4889 9.86039C4.7489 9.60039 4.9589 9.09038 4.9589 8.73038V6.58036C4.9589 5.70036 5.6789 4.98038 6.5589 4.98038H8.7089C9.0689 4.98038 9.5789 4.77041 9.8389 4.51041L11.3589 2.99039C11.9789 2.37039 12.9989 2.37039 13.6189 2.99039L15.1389 4.51041C15.3989 4.77041 15.9089 4.98038 16.2689 4.98038H18.4189C19.2989 4.98038 20.0189 5.70036 20.0189 6.58036V8.73038C20.0189 9.09038 20.2289 9.60039 20.4889 9.86039L22.0089 11.3804C22.6289 12.0004 22.6289 13.0204 22.0089 13.6404L20.4889 15.1604C20.2289 15.4204 20.0189 15.9304 20.0189 16.2904V18.4403C20.0189 19.3203 19.2989 20.0404 18.4189 20.0404H16.2689C15.9089 20.0404 15.3989 20.2504 15.1389 20.5104L13.6189 22.0304C12.9989 22.6504 11.9789 22.6504 11.3589 22.0304L9.8389 20.5104C9.5789 20.2504 9.0689 20.0404 8.7089 20.0404H6.5589C5.6789 20.0404 4.9589 19.3203 4.9589 18.4403V16.2904C4.9589 15.9204 4.7489 15.4104 4.4889 15.1604Z" fill="#7D9DFF" stroke="#7D9DFF" stroke-width="1.5" stroke-linecap="round" stroke-linejoin="round"/>
<path d="M8.5 12.33L11.33 15.16L17 9.5" stroke="#FCFCFC" stroke-width="1.5" stroke-linecap="round" stroke-linejoin="round"/>
</svg>
