<svg width="180" height="206" viewBox="0 0 180 206" fill="none" xmlns="http://www.w3.org/2000/svg">
<g id="Group 358">
<path id="Vector" d="M132.997 158.76C128.9 153.391 127.931 151.528 124.748 146.36C119.778 154.267 114.809 162.175 109.845 170.086C118.208 183.011 122.388 185.871 125.15 188.207C125.943 188.877 126.954 189.229 127.991 189.211L150.511 188.799C154.324 188.729 156.168 184.096 153.44 181.433C147.677 175.809 139.661 167.495 132.997 158.761V158.76Z" fill="#2ECC9B"/>
<path id="Vector_2" d="M62.9011 147.821V145.211C62.9011 142.879 61.0344 140.971 58.7015 140.917C50.659 140.729 45.7514 139.967 43.9797 138.63C41.9157 137.075 40.7158 135.251 40.3777 133.154C40.0384 131.06 39.8705 128.286 39.8705 124.838V90.2941C39.8705 87.9212 41.7948 85.9977 44.1688 85.9977H62.1897C68.141 85.9977 72.842 89.1757 76.2915 95.5307C78.177 98.8319 80.6696 105.891 83.7657 116.709C83.788 116.787 83.8126 116.865 83.8384 116.94C88.1062 129.307 90.5413 137.112 94.9159 145.868C100.563 139.119 106.205 132.378 111.84 125.644C109.512 121.097 106.389 108.207 104.903 104.352C101.875 96.3287 97.7736 90.388 92.5994 86.5305C90.007 84.5976 90.4638 80.5311 93.4083 79.1932C99.8634 76.2616 105.234 72.3947 109.519 67.59C115.639 60.7293 118.7 52.4297 118.7 42.6937C118.7 38.1649 118.396 34.2099 117.787 30.8288C114.067 10.277 95.5698 0 62.293 0H4.29829C1.92431 0 0 1.9235 0 4.29648V6.98163C0 9.25721 1.7799 11.1314 4.05291 11.2687C9.06387 11.5727 12.6507 12.4822 14.8133 13.9938C16.2997 15.0758 17.0452 17.8138 17.0452 22.2088V129.907C17.0452 131.935 16.8762 133.659 16.538 135.079C16.1987 136.499 15.1515 137.835 13.3927 139.085C12.0002 140.075 8.93589 140.672 4.1985 140.879C1.9067 140.979 0.102145 142.876 0.102145 145.171V147.82C0.102145 150.193 2.02646 152.116 4.40044 152.116H58.6029C60.9768 152.116 62.9011 150.193 62.9011 147.82V147.821ZM39.8716 15.4514C39.8716 13.0784 41.7959 11.1549 44.1699 11.1549H56.3064C70.3741 11.1549 80.2152 13.8928 85.8297 19.3688C91.4429 24.8447 94.2502 32.8403 94.2502 43.3533C94.2502 53.8662 91.8492 61.9111 87.0472 67.4891C82.244 73.0671 74.0607 75.8556 62.4949 75.8556H44.1688C41.7948 75.8556 39.8705 73.9321 39.8705 71.5591V15.4514H39.8716Z" fill="#2ECC9B"/>
<path id="Vector_3" d="M180 50.4053C175.752 57.1945 171.518 63.9918 167.254 70.7716C139.929 114.223 112.561 157.648 85.3435 201.167C83.4603 204.177 81.4585 205.157 78.0278 205.067C68.9416 204.827 59.8449 204.986 49.6809 204.986C93.3413 152.813 136.362 101.402 179.383 49.9922C179.589 50.1295 179.794 50.268 180 50.4053Z" fill="#7D9DFF"/>
</g>
</svg>
