<svg width="200" height="109" viewBox="0 0 200 109" fill="none" xmlns="http://www.w3.org/2000/svg">
<g clip-path="url(#clip0_2646_729)">
<path d="M63.4943 75.794C61.5386 73.2307 61.0756 72.3415 59.5561 69.874C57.1834 73.6492 54.8113 77.4244 52.4414 81.2012C56.434 87.3716 58.4294 88.737 59.7483 89.8525C60.1267 90.1724 60.6093 90.3405 61.1042 90.3316L71.8555 90.1349C73.6761 90.1019 74.5566 87.8899 73.254 86.6186C70.503 83.9337 66.6758 79.9641 63.4943 75.7945V75.794Z" fill="#FCFCFC"/>
<path d="M30.0297 70.5713V69.3253C30.0297 68.212 29.1385 67.301 28.0248 67.2752C24.1852 67.1855 21.8423 66.8219 20.9964 66.1838C20.011 65.4414 19.4382 64.5702 19.2768 63.5695C19.1148 62.5694 19.0346 61.2454 19.0346 59.5993V43.1075C19.0346 41.9746 19.9533 41.0563 21.0867 41.0563H29.6901C32.5313 41.0563 34.7756 42.5735 36.4224 45.6074C37.3226 47.1835 38.5126 50.5536 39.9907 55.7183C40.0013 55.7553 40.0131 55.7928 40.0254 55.8287C42.0629 61.7329 43.2254 65.4588 45.3139 69.639C48.01 66.4168 50.7033 63.1986 53.3938 59.9837C52.2823 57.8132 50.7913 51.659 50.0817 49.8191C48.6361 45.9884 46.6782 43.1523 44.208 41.3106C42.9704 40.3879 43.1884 38.4465 44.5942 37.8078C47.6759 36.4082 50.2398 34.5621 52.2856 32.2683C55.2076 28.9929 56.6689 25.0306 56.6689 20.3825C56.6689 18.2203 56.5237 16.3322 56.2328 14.718C54.4571 4.90638 45.6261 0 29.7394 0H2.05206C0.918688 0 0 0.918301 0 2.05119V3.33311C0 4.4195 0.849745 5.31427 1.93491 5.37982C4.3272 5.52493 6.03958 5.95915 7.07205 6.68079C7.78167 7.19737 8.1376 8.50451 8.1376 10.6028V62.0192C8.1376 62.9874 8.05688 63.8104 7.89545 64.4884C7.73346 65.1663 7.23348 65.8039 6.39382 66.4006C5.72905 66.8735 4.2661 67.1587 2.00441 67.2573C0.910281 67.3049 0.048765 68.2109 0.048765 69.3062V70.5708C0.048765 71.7037 0.967453 72.622 2.10082 72.622H27.9777C29.111 72.622 30.0297 71.7037 30.0297 70.5708V70.5713ZM19.0352 7.37666C19.0352 6.24377 19.9539 5.32547 21.0872 5.32547H26.8813C33.5974 5.32547 38.2957 6.63261 40.9761 9.24688C43.6559 11.8612 44.9961 15.6783 44.9961 20.6973C44.9961 25.7163 43.8499 29.5571 41.5573 32.2201C39.2643 34.8831 35.3575 36.2143 29.8358 36.2143H21.0867C19.9533 36.2143 19.0346 35.296 19.0346 34.1631V7.37666H19.0352Z" fill="#FCFCFC"/>
<path d="M199.792 79.1206H60.3637C60.2489 79.1206 60.1558 79.2137 60.1558 79.3285V90.008C60.1558 90.1228 60.2489 90.2158 60.3637 90.2158H199.792C199.907 90.2158 200 90.1228 200 90.008V79.3285C200 79.2137 199.907 79.1206 199.792 79.1206Z" fill="#FCFCFC"/>
<path d="M178.077 75.8198V75.5363H178.445C178.822 75.5363 179.171 75.4798 179.492 75.3666C179.813 75.2534 180.072 75.0551 180.27 74.7721C180.468 74.4886 180.567 74.0835 180.567 73.5546V62.8241C180.567 62.3143 180.468 61.9232 180.27 61.6498C180.071 61.3758 179.812 61.1875 179.492 61.0833C179.171 60.9802 178.822 60.9281 178.445 60.9281H178.19V60.6446H184.247V73.5266C184.247 74.055 184.341 74.4656 184.53 74.7581C184.718 75.0511 184.978 75.2534 185.308 75.3666C185.638 75.4803 185.992 75.5363 186.369 75.5363H186.709V75.8198H178.077ZM182.266 58.0399C181.794 58.0399 181.393 57.8942 181.063 57.6012C180.733 57.3087 180.568 56.8325 180.568 56.1713C180.568 55.5102 180.733 55.0104 181.063 54.7275C181.393 54.444 181.794 54.3022 182.266 54.3022C182.738 54.3022 183.143 54.444 183.483 54.7275C183.822 55.0099 183.992 55.4917 183.992 56.1713C183.992 56.851 183.822 57.3087 183.483 57.6012C183.143 57.8942 182.737 58.0399 182.266 58.0399Z" fill="#BEEFE0"/>
<path d="M111.616 75.8199V75.5364H111.927C112.304 75.5364 112.653 75.4798 112.974 75.3667C113.295 75.254 113.554 75.0551 113.753 74.7722C113.95 74.4887 114.049 74.0836 114.049 73.5547V62.8242C114.049 62.3143 113.95 61.9233 113.753 61.6499C113.554 61.3759 113.295 61.1876 112.974 61.0834C112.653 60.9803 112.304 60.9282 111.927 60.9282H111.673V60.6447H117.7V63.278H117.757C118.002 62.4286 118.337 61.7961 118.762 61.3809C119.187 60.9663 119.672 60.6828 120.219 60.5315C120.766 60.3808 121.324 60.3052 121.89 60.3052C123.116 60.3052 124.13 60.5747 124.932 61.112C125.733 61.6499 126.276 62.5233 126.559 63.7302H126.615C126.785 62.8998 127.054 62.2348 127.422 61.7345C127.79 61.2347 128.252 60.8711 128.809 60.6447C129.365 60.4184 130.021 60.3052 130.776 60.3052C132.417 60.3052 133.638 60.754 134.441 61.6504C135.242 62.5469 135.643 63.9392 135.643 65.8262V73.4135C135.643 73.9794 135.714 74.4187 135.856 74.7307C135.997 75.0417 136.223 75.2546 136.534 75.3672C136.845 75.481 137.237 75.537 137.709 75.537H137.794V75.8205H131.964V65.0334C131.964 63.6932 131.779 62.6931 131.412 62.032C131.044 61.372 130.445 61.0408 129.614 61.0408C128.916 61.0408 128.35 61.2492 127.916 61.6639C127.482 62.079 127.171 62.6595 126.982 63.4052C126.793 64.1509 126.699 65.0143 126.699 65.9954V73.413C126.699 73.9788 126.774 74.4181 126.925 74.7302C127.076 75.0411 127.303 75.254 127.605 75.3667C127.906 75.4804 128.293 75.5364 128.765 75.5364H128.85V75.8199H123.02V65.0328C123.02 63.6926 122.836 62.6925 122.468 62.0314C122.1 61.3714 121.492 61.0403 120.643 61.0403C119.945 61.0403 119.379 61.2526 118.945 61.6773C118.51 62.102 118.199 62.711 118.011 63.5033C117.822 64.2966 117.728 65.2401 117.728 66.3344V73.5256C117.728 74.0539 117.822 74.4646 118.011 74.7571C118.199 75.0501 118.459 75.2524 118.789 75.3655C119.119 75.4793 119.473 75.5353 119.85 75.5353H120.104V75.8188H111.614L111.616 75.8199Z" fill="#BEEFE0"/>
<path d="M103.282 75.8202C101.112 75.8202 99.3998 75.1653 98.1454 73.8525C96.8904 72.5409 96.2632 70.5547 96.2632 67.8934C96.2632 65.232 96.8624 63.2778 98.0602 61.9757C99.2586 60.6736 101.028 60.022 103.367 60.022C105.555 60.022 107.272 60.6736 108.518 61.9757C109.763 63.2778 110.385 65.2505 110.385 67.8934C110.385 70.5362 109.786 72.5409 108.588 73.8525C107.39 75.1647 105.621 75.8202 103.282 75.8202ZM103.339 75.5373C104.15 75.5373 104.796 75.2874 105.277 74.7871C105.759 74.2873 106.103 73.4799 106.31 72.3661C106.518 71.2522 106.622 69.7613 106.622 67.8928C106.622 66.0243 106.518 64.5659 106.31 63.4621C106.103 62.3572 105.753 61.5555 105.263 61.0551C104.772 60.5554 104.122 60.3049 103.311 60.3049C102.499 60.3049 101.881 60.5548 101.4 61.0551C100.919 61.5555 100.57 62.3572 100.353 63.4621C100.137 64.5659 100.028 66.0433 100.028 67.8928C100.028 69.7423 100.136 71.2522 100.353 72.3661C100.57 73.4799 100.92 74.2867 101.4 74.7871C101.882 75.2874 102.528 75.5373 103.339 75.5373H103.339Z" fill="#BEEFE0"/>
<path d="M82.1787 75.8202V75.5367H82.4904C82.867 75.5367 83.2162 75.4801 83.5374 75.367C83.858 75.2543 84.1175 75.0554 84.3154 74.7725C84.5133 74.489 84.6125 74.0839 84.6125 73.555V62.8245C84.6125 62.3147 84.5133 61.9236 84.3154 61.6502C84.1175 61.3762 83.858 61.1879 83.5374 61.0837C83.2162 60.9806 82.867 60.9285 82.4904 60.9285H82.3771V60.645H88.2642V63.2217H88.3209C88.5092 62.6547 88.7592 62.1555 89.0708 61.7208C89.3825 61.2865 89.8023 60.947 90.3303 60.7016C90.8583 60.4568 91.5097 60.3335 92.2832 60.3335C93.3022 60.3335 94.0757 60.5369 94.6037 60.9425C95.1317 61.3482 95.3963 61.9191 95.3963 62.6547C95.3963 63.3904 95.1227 63.9434 94.5751 64.3681C94.0281 64.7928 93.226 65.0051 92.1699 65.0051C92.1699 63.6649 92.0091 62.7444 91.6885 62.2446C91.3673 61.7443 90.943 61.4944 90.415 61.4944C90.0366 61.4944 89.7121 61.6126 89.4385 61.8479C89.165 62.0838 88.943 62.4284 88.7732 62.8817C88.6034 63.3344 88.4812 63.8633 88.4055 64.4673C88.3298 65.0712 88.2928 65.7509 88.2928 66.5056V73.527C88.2928 74.0553 88.387 74.466 88.5753 74.7585C88.7637 75.0515 89.0232 75.2538 89.3539 75.367C89.6835 75.4807 90.0372 75.5367 90.415 75.5367H91.0943V75.8202H82.1793H82.1787Z" fill="#BEEFE0"/>
<path d="M164.281 75.8202V75.5367H164.593C164.97 75.5367 165.319 75.4801 165.64 75.367C165.961 75.2543 166.22 75.0554 166.418 74.7725C166.616 74.489 166.715 74.0839 166.715 73.555V62.8245C166.715 62.3147 166.616 61.9236 166.418 61.6502C166.22 61.3762 165.961 61.1879 165.64 61.0837C165.319 60.9806 164.97 60.9285 164.593 60.9285H164.48V60.645H170.367V63.2217H170.423C170.612 62.6547 170.862 62.1555 171.173 61.7208C171.485 61.2865 171.905 60.947 172.433 60.7016C172.961 60.4568 173.612 60.3335 174.386 60.3335C175.405 60.3335 176.178 60.5369 176.706 60.9425C177.234 61.3482 177.499 61.9191 177.499 62.6547C177.499 63.3904 177.225 63.9434 176.678 64.3681C176.131 64.7928 175.328 65.0051 174.272 65.0051C174.272 63.6649 174.112 62.7444 173.791 62.2446C173.47 61.7443 173.046 61.4944 172.518 61.4944C172.139 61.4944 171.815 61.6126 171.541 61.8479C171.268 62.0838 171.046 62.4284 170.876 62.8817C170.706 63.3344 170.584 63.8633 170.508 64.4673C170.432 65.0712 170.395 65.7509 170.395 66.5056V73.527C170.395 74.0553 170.49 74.466 170.678 74.7585C170.866 75.0515 171.126 75.2538 171.456 75.367C171.786 75.4807 172.14 75.5367 172.518 75.5367H173.197V75.8202H164.282H164.281Z" fill="#BEEFE0"/>
<path d="M158.56 75.8199C157.22 75.8199 156.197 75.4904 155.489 74.8293C154.782 74.1693 154.428 73.0174 154.428 71.3752V60.6452H152.277V60.3617C153.108 60.3617 153.833 60.2816 154.456 60.1214C155.078 59.9611 155.616 59.7017 156.069 59.3426C156.503 59.0025 156.861 58.5688 157.145 58.0405C157.428 57.5121 157.654 56.8897 157.824 56.1714H158.107V60.3617H161.843V60.6452H158.107V72.5641C158.107 73.4891 158.281 74.1732 158.63 74.617C158.98 75.0607 159.503 75.282 160.201 75.282C160.465 75.282 160.748 75.254 161.05 75.1974C161.352 75.1408 161.673 75.0467 162.012 74.9139V75.1974C161.729 75.3296 161.28 75.4658 160.668 75.6075C160.055 75.7493 159.352 75.8199 158.559 75.8199H158.56Z" fill="#BEEFE0"/>
<path d="M146.159 75.8202C143.924 75.8202 142.212 75.1629 141.022 73.8446C139.833 72.5285 139.236 70.6885 139.236 68.3253C139.236 65.7822 139.805 63.8604 140.939 62.5617C142.075 61.2613 143.668 60.6113 145.72 60.6113C147.628 60.6113 149.122 61.161 150.202 62.2619C151.284 63.3601 151.824 64.9922 151.824 67.1526V67.8076H142.834C142.851 69.6604 142.983 71.1519 143.228 72.2781C143.474 73.4042 143.873 74.2267 144.427 74.7439C144.982 75.2621 145.693 75.5198 146.565 75.5198C147.22 75.5198 147.811 75.3893 148.337 75.1243C148.863 74.8621 149.303 74.4491 149.658 73.8866C150.012 73.3224 150.253 72.5957 150.381 71.7049C150.687 71.7592 150.911 71.8948 151.047 72.1145C151.183 72.333 151.253 72.5772 151.253 72.8495C151.253 73.3039 151.061 73.7578 150.679 74.2122C150.298 74.6671 149.734 75.0475 148.99 75.3574C148.245 75.6661 147.301 75.8196 146.158 75.8196L146.159 75.8202ZM148.228 67.5358C148.228 65.9183 148.15 64.6246 147.997 63.6509C147.841 62.6793 147.577 61.9739 147.207 61.5392C146.834 61.1038 146.33 60.8853 145.693 60.8853C145.057 60.8853 144.532 61.1038 144.115 61.5392C143.695 61.9745 143.391 62.6793 143.201 63.6509C143.01 64.6241 142.888 65.9183 142.834 67.5358H148.228H148.228Z" fill="#BEEFE0"/>
<path d="M193.866 75.8202C192.561 75.8202 191.415 75.5759 190.429 75.0873C189.439 74.5976 188.669 73.7998 188.117 72.6943C187.563 71.5884 187.288 70.1109 187.288 68.2608C187.288 66.4108 187.568 64.8241 188.131 63.7186C188.692 62.6143 189.463 61.8238 190.441 61.3526C191.42 60.8808 192.535 60.6455 193.784 60.6455C194.764 60.6455 195.634 60.7592 196.395 60.9862C197.156 61.2136 197.758 61.5431 198.202 61.9779C198.646 62.4132 198.869 62.9404 198.869 63.5556C198.869 63.9192 198.775 64.2537 198.584 64.5608C198.393 64.8695 198.071 65.1154 197.62 65.2958C197.166 65.4779 196.549 65.5687 195.769 65.5687C195.769 64.4257 195.71 63.5153 195.592 62.834C195.474 62.1549 195.263 61.6647 194.952 61.366C194.645 61.0668 194.221 60.9178 193.675 60.9178C193.06 60.9178 192.542 61.1358 192.126 61.57C191.709 62.0042 191.397 62.7533 191.188 63.8133C190.98 64.8739 190.875 66.357 190.875 68.2603C190.875 70.019 190.997 71.4326 191.243 72.5033C191.487 73.5729 191.878 74.3438 192.411 74.8145C192.945 75.2862 193.649 75.5204 194.519 75.5204C195.134 75.5204 195.691 75.4039 196.191 75.1686C196.689 74.9316 197.111 74.5332 197.455 73.9718C197.798 73.4093 198.043 72.6562 198.187 71.7139C198.442 71.7867 198.638 71.9273 198.774 72.1352C198.91 72.3436 198.978 72.6025 198.978 72.9112C198.978 73.346 198.797 73.7908 198.433 74.243C198.07 74.6962 197.513 75.0733 196.76 75.3725C196.008 75.6711 195.043 75.8202 193.866 75.8202H193.866Z" fill="#BEEFE0"/>
<path d="M79.556 54.4571C78.6059 53.2413 77.2366 52.6877 75.4485 52.6323C73.5826 52.574 72.4537 53.1214 72.4537 53.1214L67.622 60.8012V73.6557C67.622 74.1616 67.5284 74.5488 67.3445 74.8188C67.1601 75.0895 66.9113 75.2788 66.5985 75.3887C66.2846 75.4962 65.9348 75.5495 65.547 75.5495H65.2432V75.8201H73.7053V75.5495H73.2911C72.9223 75.5495 72.5764 75.4962 72.253 75.3887C71.9324 75.2788 71.6779 75.0844 71.4935 74.8065C71.3085 74.5269 71.216 74.1347 71.216 73.6299V65.3013C71.216 64.7327 71.2076 64.1875 71.188 63.6653H71.2441C71.466 65.0531 71.9324 66.0701 72.642 66.72C73.3516 67.3688 74.2501 67.6932 75.3375 67.6932C77.1822 67.6932 78.5824 67.0718 79.542 65.8269C80.501 64.5831 80.9803 62.682 80.9803 60.1238C80.9803 57.5655 80.5044 55.6746 79.556 54.4577V54.4571ZM76.9972 63.9606C76.7943 65.0251 76.486 65.8185 76.0707 66.3401C75.6565 66.864 75.1172 67.1245 74.453 67.1245C73.7339 67.1245 73.1347 66.8595 72.6566 66.3278C72.1756 65.7961 71.8164 64.9938 71.577 63.9203C71.3366 62.8484 71.2166 61.5099 71.2166 59.9047C71.2166 58.4278 71.2755 56.868 72.5557 55.0023C72.9492 54.4291 73.7429 53.7568 74.4805 53.7568C75.1257 53.7568 75.6262 54.024 76.0707 54.4739C76.8442 55.2566 77.3021 58.3628 77.3021 59.8784C77.3021 61.5363 77.2001 62.8983 76.9972 63.9606Z" fill="#BEEFE0"/>
<path d="M66.7065 102.634L71.2326 92.462H73.2572V107.869H71.148V96.3296L71.2539 97.0075L67.4592 105.728H65.9542L62.1595 97.2193L62.2655 96.329V107.868H60.1562V92.4614H62.1808L66.707 102.633L66.7065 102.634Z" fill="#FCFCFC"/>
<path d="M82.1189 108.027C81.0444 108.027 80.105 107.788 79.2995 107.311C78.494 106.834 77.8685 106.165 77.4234 105.303C76.9784 104.441 76.7559 103.435 76.7559 102.283V98.0554C76.7559 96.8967 76.9784 95.8871 77.4234 95.0248C77.8685 94.1631 78.494 93.4935 79.2995 93.0167C80.105 92.54 81.0449 92.3013 82.1189 92.3013C83.0096 92.3013 83.8234 92.4918 84.5622 92.8733C85.3004 93.2549 85.9192 93.7883 86.4175 94.4735C86.9158 95.1587 87.2532 95.9605 87.4298 96.8788H85.2141C85.0795 96.3846 84.8553 95.9515 84.5409 95.5806C84.2264 95.2097 83.8571 94.9217 83.4333 94.7172C83.0096 94.5127 82.5712 94.4102 82.1189 94.4102C81.1716 94.4102 80.4104 94.7441 79.8342 95.4114C79.258 96.0787 78.9705 96.96 78.9705 98.0548V102.283C78.9705 103.377 79.2586 104.257 79.8342 104.921C80.4099 105.585 81.1716 105.917 82.1189 105.917C82.7904 105.917 83.4227 105.705 84.0162 105.281C84.6098 104.858 85.0089 104.246 85.2141 103.448H87.4298C87.2532 104.366 86.9141 105.168 86.4119 105.853C85.9102 106.539 85.292 107.072 84.5566 107.454C83.8217 107.835 83.009 108.026 82.1183 108.026L82.1189 108.027Z" fill="#FCFCFC"/>
<path d="M95.1791 108.027C94.0905 108.027 93.1399 107.792 92.3277 107.322C91.5149 106.852 90.8844 106.19 90.4354 105.335C89.9864 104.481 89.7622 103.484 89.7622 102.347V97.9813C89.7622 96.8372 89.9864 95.8393 90.4354 94.9882C90.8838 94.1372 91.5149 93.4766 92.3277 93.0071C93.1404 92.5376 94.0911 92.3022 95.1791 92.3022C96.267 92.3022 97.2177 92.537 98.0304 93.0071C98.8432 93.4772 99.4737 94.1372 99.9227 94.9882C100.371 95.8393 100.596 96.8372 100.596 97.9813V102.347C100.596 103.484 100.372 104.481 99.9227 105.335C99.4737 106.19 98.8432 106.852 98.0304 107.322C97.2177 107.792 96.267 108.027 95.1791 108.027ZM95.1791 105.897C96.1471 105.897 96.9228 105.579 97.5058 104.943C98.0887 104.307 98.3802 103.467 98.3802 102.421V97.9079C98.3802 96.8556 98.0887 96.013 97.5058 95.381C96.9228 94.749 96.1471 94.433 95.1791 94.433C94.211 94.433 93.4442 94.749 92.8574 95.381C92.2705 96.0135 91.9774 96.8556 91.9774 97.9079V102.421C91.9774 103.467 92.2705 104.307 92.8574 104.943C93.4437 105.579 94.2178 105.897 95.1791 105.897ZM100.892 108.122L95.1471 103.598L96.2709 102.167L102.016 106.681L100.892 108.122Z" fill="#FCFCFC"/>
<path d="M111.183 100.045C111.148 99.2542 111.02 98.6334 110.799 98.1835C110.577 97.7336 110.243 97.4086 109.795 97.2097C109.362 97.0159 108.79 96.9189 108.078 96.9189C107.177 96.9189 106.419 97.1005 105.802 97.4635C105.185 97.8266 104.714 98.3661 104.391 99.0822C104.052 99.843 103.883 100.746 103.883 101.791C103.883 102.835 104.044 103.726 104.365 104.45C104.686 105.174 105.162 105.725 105.794 106.103C106.421 106.476 107.182 106.662 108.078 106.662C108.64 106.662 109.102 106.63 109.462 106.565C109.823 106.501 110.121 106.396 110.355 106.252C110.564 106.128 110.748 105.946 110.907 105.708C111.161 105.31 111.287 104.706 111.287 103.894L111.444 103.604H112.407C112.426 104.648 112.265 105.486 111.922 106.118C111.578 106.75 111.049 107.183 110.332 107.416C109.74 107.61 108.989 107.707 108.078 107.707C106.963 107.707 106.005 107.472 105.201 107.002C104.397 106.532 103.791 105.85 103.383 104.954C102.975 104.074 102.771 103.019 102.771 101.791C102.771 100.562 102.98 99.4951 103.398 98.6048C103.816 97.7145 104.423 97.0355 105.219 96.5677C106.01 96.1054 106.963 95.874 108.078 95.874C108.959 95.874 109.691 96.0085 110.276 96.2769C110.861 96.5458 111.32 96.9582 111.654 97.5151C112.022 98.1717 112.243 99.015 112.318 100.044H111.183V100.045Z" fill="#D7E1FF"/>
<path d="M112.833 107.557L117.214 96.0229H118.065L122.468 107.557H121.23L119.871 103.812H115.378L114.005 107.557H112.833ZM117.647 97.8209L115.773 102.768H119.498L117.647 97.8209Z" fill="#D7E1FF"/>
<path d="M125.589 102.164H124.372V107.557H123.267V96.0229H127.044C127.686 96.0229 128.219 96.0599 128.645 96.135C129.07 96.2095 129.427 96.3266 129.716 96.4857C130.024 96.6549 130.273 96.8835 130.462 97.1721C130.766 97.6248 130.918 98.2663 130.918 99.0967C130.918 99.8379 130.766 100.444 130.462 100.914C130.159 101.384 129.706 101.711 129.104 101.895C128.557 102.073 127.87 102.163 127.044 102.163H126.924L130.985 107.602H129.589L125.589 102.163V102.164ZM127.044 101.119C127.726 101.119 128.261 101.058 128.649 100.937C129.038 100.815 129.329 100.617 129.522 100.343C129.716 100.045 129.813 99.6295 129.813 99.0972C129.813 98.5302 129.727 98.1027 129.552 97.8142C129.378 97.5256 129.091 97.3318 128.694 97.232C128.306 97.1278 127.731 97.0757 126.97 97.0757H124.372V101.119H127.044Z" fill="#D7E1FF"/>
<path d="M133.478 102.463V106.514H138.956L139.509 107.558H132.374V96.0239H139.375L139.091 97.0761H133.478V101.418H137.748L136.957 102.463H133.479H133.478Z" fill="#D7E1FF"/>
<path d="M142.181 102.463V106.514H147.659L148.212 107.558H141.077V96.0239H148.078L147.794 97.0761H142.181V101.418H146.451L145.66 102.463H142.182H142.181Z" fill="#D7E1FF"/>
<path d="M152.1 102.164H150.884V107.557H149.779V96.0229H153.556C154.197 96.0229 154.731 96.0599 155.156 96.135C155.582 96.2095 155.939 96.3266 156.228 96.4857C156.536 96.6549 156.785 96.8835 156.974 97.1721C157.278 97.6248 157.429 98.2663 157.429 99.0967C157.429 99.8379 157.277 100.444 156.974 100.914C156.67 101.384 156.218 101.711 155.615 101.895C155.068 102.073 154.381 102.163 153.556 102.163H153.436L157.497 107.602H156.101L152.1 102.163V102.164ZM153.556 101.119C154.238 101.119 154.772 101.058 155.161 100.937C155.549 100.815 155.84 100.617 156.034 100.343C156.228 100.045 156.325 99.6295 156.325 99.0972C156.325 98.5302 156.238 98.1027 156.064 97.8142C155.89 97.5256 155.603 97.3318 155.206 97.232C154.818 97.1278 154.243 97.0757 153.482 97.0757H150.884V101.119H153.556Z" fill="#D7E1FF"/>
<path d="M172.583 100.008C172.319 99.0229 171.827 98.262 171.108 97.7247C170.389 97.188 169.505 96.919 168.455 96.919C167.554 96.919 166.795 97.1006 166.179 97.4636C165.561 97.8267 165.091 98.3662 164.768 99.0823C164.429 99.8431 164.261 100.746 164.261 101.791C164.261 102.91 164.41 103.827 164.708 104.543C165.007 105.259 165.465 105.792 166.082 106.14C166.698 106.488 167.49 106.662 168.455 106.662C169.365 106.662 170.167 106.429 170.858 105.961C171.246 105.707 171.569 105.4 171.825 105.039C172.081 104.679 172.289 104.242 172.449 103.73C172.528 103.461 172.587 103.237 172.624 103.058C172.662 102.879 172.687 102.696 172.702 102.506H168.56L167.941 101.447H173.815C173.82 101.511 173.822 101.648 173.822 101.857C173.822 102.623 173.733 103.318 173.553 103.942C173.375 104.566 173.1 105.132 172.732 105.64C172.409 106.092 172.016 106.48 171.553 106.803C171.09 107.127 170.593 107.36 170.06 107.505H170.053C169.515 107.639 168.983 107.707 168.455 107.707C166.694 107.707 165.369 107.212 164.481 106.222C163.592 105.232 163.148 103.755 163.148 101.79C163.148 100.556 163.358 99.4946 163.776 98.6043C164.194 97.7141 164.801 97.035 165.597 96.5672C166.388 96.1049 167.341 95.8735 168.455 95.8735C169.311 95.8735 170.091 96.0231 170.796 96.3212C171.5 96.6198 172.095 97.0524 172.583 97.6194C173.15 98.3108 173.533 99.1069 173.733 100.007H172.583L172.583 100.008Z" fill="#D7E1FF"/>
<path d="M173.798 107.557L178.18 96.0229H179.031L183.434 107.557H182.195L180.837 103.812H176.344L174.97 107.557H173.798ZM178.613 97.8209L176.739 102.768H180.463L178.613 97.8209Z" fill="#D7E1FF"/>
<path d="M186.241 107.557V97.0752H182.658V96.0229H191.077V97.0752H187.345V107.557H186.24H186.241Z" fill="#D7E1FF"/>
<path d="M193.16 102.463V106.514H198.638L199.191 107.558H192.056V96.0239H199.057L198.773 97.0761H193.16V101.418H197.43L196.639 102.463H193.161H193.16Z" fill="#D7E1FF"/>
<path d="M85.934 24.0639C83.9061 27.3051 81.8849 30.5503 79.8491 33.787C66.8036 54.5314 53.7379 75.263 40.744 96.0393C39.8449 97.4764 38.8892 97.9443 37.2514 97.9011C32.9136 97.7868 28.5707 97.8625 23.7183 97.8625C44.5622 72.9546 65.1007 48.4104 85.6398 23.8667C85.7379 23.9323 85.836 23.9984 85.934 24.0639Z" fill="#DEDEDE"/>
</g>
<defs>
<clipPath id="clip0_2646_729">
<rect width="200" height="108.122" fill="white"/>
</clipPath>
</defs>
</svg>
