<svg width="32" height="33" viewBox="0 0 32 33" fill="none" xmlns="http://www.w3.org/2000/svg">
<g id="Vector">
<path id="Vector_2" d="M16.4998 13.5908V19.7872H25.1106C24.7325 21.7799 23.5978 23.4673 21.8961 24.6018L27.0888 28.6309C30.1142 25.8383 31.8597 21.7364 31.8597 16.8637C31.8597 15.7292 31.7579 14.6382 31.5687 13.591L16.4998 13.5908Z" fill="#4285F4"/>
<path id="Vector_3" d="M7.53291 19.5454L6.36176 20.4419L2.21623 23.671C4.84895 28.8927 10.2449 32.5001 16.4994 32.5001C20.8193 32.5001 24.4411 31.0746 27.0884 28.631L21.8957 24.6019C20.4702 25.5619 18.6521 26.1438 16.4994 26.1438C12.3394 26.1438 8.80499 23.3365 7.53945 19.5546L7.53291 19.5454Z" fill="#34A853"/>
<path id="Vector_4" d="M2.21624 9.3291C1.12539 11.4817 0.5 13.9109 0.5 16.4999C0.5 19.089 1.12539 21.5181 2.21624 23.6707C2.21624 23.6852 7.53997 19.5398 7.53997 19.5398C7.21997 18.5798 7.03082 17.5617 7.03082 16.4997C7.03082 15.4378 7.21997 14.4197 7.53997 13.4597L2.21624 9.3291Z" fill="#FBBC05"/>
<path id="Vector_5" d="M16.4997 6.8709C18.8561 6.8709 20.9506 7.68543 22.6234 9.25636L27.2051 4.6746C24.427 2.08555 20.8198 0.5 16.4997 0.5C10.2452 0.5 4.84895 4.09272 2.21623 9.3291L7.5398 13.46C8.80518 9.67816 12.3398 6.8709 16.4997 6.8709Z" fill="#EA4335"/>
</g>
</svg>
