<svg width="52" height="52" viewBox="0 0 52 52" fill="none" xmlns="http://www.w3.org/2000/svg">
<g id="headset alt">
<path id="secondary" d="M33.0418 45.5H26.0002C25.4255 45.5 24.8744 45.2717 24.4681 44.8654C24.0618 44.4591 23.8335 43.908 23.8335 43.3333C23.8335 42.7587 24.0618 42.2076 24.4681 41.8013C24.8744 41.3949 25.4255 41.1667 26.0002 41.1667H33.0418C33.9302 41.1667 34.6668 40.17 34.6668 39V36.8333C34.6668 36.2587 34.8951 35.7076 35.3014 35.3013C35.7078 34.8949 36.2589 34.6667 36.8335 34.6667C37.4081 34.6667 37.9592 34.8949 38.3656 35.3013C38.7719 35.7076 39.0002 36.2587 39.0002 36.8333V39C39.0649 40.6502 38.4751 42.2592 37.3591 43.4766C36.2432 44.694 34.6914 45.4213 33.0418 45.5Z" fill="#BEEFE0"/>
<path id="primary" d="M40.755 10.8333C37.9365 7.7366 34.2163 5.60379 30.1198 4.73627C26.0234 3.86875 21.7579 4.31039 17.9261 5.99878C14.0943 7.68716 10.8899 10.5369 8.76575 14.1454C6.64156 17.7539 5.70496 21.9386 6.0883 26.1083L6.4783 30.4417C6.50684 32.7251 7.43549 34.9051 9.0624 36.5076C10.6893 38.1102 12.883 39.0059 15.1666 39H17.3333C18.4826 39 19.5848 38.5435 20.3974 37.7308C21.2101 36.9181 21.6666 35.8159 21.6666 34.6667V23.8333C21.6666 22.6841 21.2101 21.5819 20.3974 20.7692C19.5848 19.9566 18.4826 19.5 17.3333 19.5H15.1666C13.6386 19.5224 12.1436 19.9485 10.8333 20.735C11.6369 17.3115 13.5706 14.2585 16.3224 12.0689C19.0741 9.87933 22.4834 8.68077 26 8.66667C29.5165 8.68077 32.9258 9.87933 35.6775 12.0689C38.4293 14.2585 40.363 17.3115 41.1666 20.735C39.8563 19.9485 38.3614 19.5224 36.8333 19.5H34.6666C33.5174 19.5 32.4152 19.9566 31.6025 20.7692C30.7899 21.5819 30.3333 22.6841 30.3333 23.8333V34.6667C30.3333 35.8159 30.7899 36.9181 31.6025 37.7308C32.4152 38.5435 33.5174 39 34.6666 39H36.8333C39.0875 39.001 41.2534 38.1237 42.8714 36.5542C44.4895 34.9847 45.4323 32.8465 45.5 30.5933L45.89 26.26C46.1621 23.4724 45.8456 20.6588 44.961 18.0013C44.0764 15.3438 42.6434 12.9018 40.755 10.8333Z" fill="#FCFCFC"/>
</g>
</svg>
