<svg width="41" height="40" viewBox="0 0 41 40" fill="none" xmlns="http://www.w3.org/2000/svg">
<g id="vuesax/bold/logout">
<g id="logout">
<path id="Vector" d="M13.6332 20.1167C13.6332 19.4334 14.1999 18.8667 14.8832 18.8667H24.0166V4.76671C23.9999 3.96671 23.3666 3.33337 22.5666 3.33337C12.7499 3.33337 5.8999 10.1834 5.8999 20C5.8999 29.8167 12.7499 36.6667 22.5666 36.6667C23.3499 36.6667 23.9999 36.0334 23.9999 35.2334V21.35H14.8832C14.1832 21.3667 13.6332 20.8 13.6332 20.1167Z" fill="#2ECC9B"/>
<path id="Vector_2" d="M34.7333 19.2334L30 14.4833C29.5167 14 28.7167 14 28.2333 14.4833C27.75 14.9667 27.75 15.7667 28.2333 16.25L30.8333 18.85H24V21.35H30.8167L28.2167 23.95C27.7333 24.4334 27.7333 25.2334 28.2167 25.7167C28.4667 25.9667 28.7833 26.0834 29.1 26.0834C29.4167 26.0834 29.7333 25.9667 29.9833 25.7167L34.7167 20.9667C35.2167 20.5 35.2167 19.7167 34.7333 19.2334Z" fill="#2ECC9B"/>
</g>
</g>
</svg>
