<svg width="752" height="406" viewBox="0 0 752 406" fill="none" xmlns="http://www.w3.org/2000/svg">
<g clip-path="url(#clip0_439_20748)">
<path d="M238.921 284.605C231.578 274.98 229.839 271.641 224.133 262.376C215.224 276.552 206.317 290.728 197.418 304.91C212.41 328.08 219.903 333.207 224.855 337.395C226.276 338.597 228.088 339.228 229.947 339.194L270.318 338.456C277.154 338.332 280.46 330.026 275.569 325.252C265.239 315.17 250.868 300.264 238.921 284.608V284.605Z" fill="#3C5256"/>
<path d="M113.262 264.995V260.316C113.262 256.136 109.915 252.715 105.733 252.618C91.3155 252.282 82.5177 250.916 79.3416 248.52C75.6415 245.732 73.4904 242.461 72.8842 238.703C72.276 234.948 71.975 229.977 71.975 223.796V161.869C71.975 157.615 75.4247 154.166 79.6805 154.166H111.986C122.655 154.166 131.083 159.864 137.266 171.256C140.646 177.174 145.115 189.829 150.665 209.222C150.705 209.361 150.749 209.502 150.796 209.637C158.446 231.807 162.812 245.798 170.654 261.495C180.778 249.395 190.891 237.311 200.994 225.239C196.82 217.088 191.221 193.98 188.557 187.071C183.129 172.687 175.777 162.037 166.501 155.122C161.854 151.656 162.673 144.367 167.951 141.968C179.523 136.713 189.15 129.781 196.833 121.167C207.805 108.868 213.292 93.9898 213.292 76.5362C213.292 68.4174 212.747 61.3274 211.654 55.2662C204.986 18.4235 171.826 0 112.171 0H8.20547C3.94968 0 0.5 3.44822 0.5 7.70222V12.5158C0.5 16.5952 3.69079 19.9551 7.76558 20.2012C16.7486 20.7461 23.1786 22.3766 27.0556 25.0864C29.7202 27.0261 31.0567 31.9344 31.0567 39.8134V232.882C31.0567 236.518 30.7536 239.608 30.1474 242.154C29.5392 244.699 27.6617 247.094 24.5088 249.334C22.0126 251.11 16.5192 252.181 8.02656 252.551C3.9181 252.73 0.683113 256.132 0.683113 260.245V264.993C0.683113 269.247 4.13279 272.695 8.38858 272.695H105.556C109.812 272.695 113.262 269.247 113.262 264.993V264.995ZM71.9771 27.6994C71.9771 23.4454 75.4268 19.9972 79.6826 19.9972H101.439C126.658 19.9972 144.3 24.9054 154.365 34.722C164.428 44.5386 169.46 58.8722 169.46 77.7185C169.46 96.5649 165.156 110.987 156.548 120.986C147.937 130.986 133.267 135.985 112.533 135.985H79.6805C75.4247 135.985 71.975 132.537 71.975 128.283V27.6994H71.9771Z" fill="#3C5256"/>
<path d="M750.721 297.098H227.166C226.735 297.098 226.385 297.448 226.385 297.879V337.98C226.385 338.411 226.735 338.761 227.166 338.761H750.721C751.153 338.761 751.502 338.411 751.502 337.98V297.879C751.502 297.448 751.153 297.098 750.721 297.098Z" fill="#3C5256"/>
<path d="M669.179 284.704V283.64H670.56C671.977 283.64 673.286 283.427 674.492 283.002C675.696 282.577 676.67 281.833 677.413 280.77C678.156 279.706 678.529 278.184 678.529 276.198V235.905C678.529 233.991 678.156 232.522 677.413 231.496C676.668 230.467 675.694 229.76 674.492 229.369C673.286 228.982 671.977 228.786 670.56 228.786H669.604V227.721H692.346V276.093C692.346 278.077 692.7 279.619 693.409 280.717C694.116 281.818 695.091 282.577 696.333 283.002C697.57 283.429 698.9 283.64 700.317 283.64H701.592V284.704H669.179ZM684.908 217.941C683.136 217.941 681.631 217.394 680.391 216.293C679.152 215.195 678.531 213.407 678.531 210.924C678.531 208.442 679.152 206.565 680.391 205.503C681.629 204.438 683.136 203.906 684.908 203.906C686.68 203.906 688.202 204.438 689.477 205.503C690.753 206.563 691.391 208.372 691.391 210.924C691.391 213.476 690.753 215.195 689.477 216.293C688.202 217.394 686.678 217.941 684.908 217.941Z" fill="#2ECC9B"/>
<path d="M419.618 284.704V283.64H420.786C422.202 283.64 423.512 283.427 424.718 283.002C425.921 282.579 426.896 281.833 427.641 280.77C428.384 279.706 428.754 278.184 428.754 276.198V235.905C428.754 233.991 428.384 232.522 427.641 231.496C426.896 230.467 425.921 229.76 424.718 229.369C423.512 228.982 422.202 228.786 420.786 228.786H419.83V227.721H442.465V237.609H442.677C443.597 234.42 444.856 232.045 446.451 230.486C448.047 228.929 449.869 227.864 451.923 227.296C453.978 226.73 456.07 226.446 458.196 226.446C462.799 226.446 466.606 227.458 469.618 229.476C472.628 231.496 474.665 234.776 475.728 239.307H475.941C476.578 236.189 477.589 233.692 478.969 231.813C480.35 229.937 482.087 228.571 484.177 227.721C486.264 226.871 488.727 226.446 491.562 226.446C497.725 226.446 502.311 228.132 505.325 231.498C508.335 234.864 509.84 240.092 509.84 247.178V275.668C509.84 277.793 510.105 279.443 510.637 280.614C511.168 281.782 512.018 282.582 513.186 283.004C514.354 283.431 515.826 283.642 517.596 283.642H517.916V284.706H496.024V244.201C496.024 239.168 495.332 235.413 493.951 232.931C492.57 230.452 490.32 229.209 487.201 229.209C484.581 229.209 482.455 229.991 480.826 231.548C479.195 233.107 478.027 235.287 477.317 238.087C476.608 240.887 476.254 244.129 476.254 247.813V275.666C476.254 277.791 476.536 279.44 477.105 280.612C477.671 281.78 478.521 282.579 479.656 283.002C480.788 283.429 482.24 283.64 484.012 283.64H484.33V284.704H462.439V244.199C462.439 239.166 461.748 235.411 460.368 232.928C458.987 230.45 456.701 229.207 453.515 229.207C450.892 229.207 448.766 230.004 447.137 231.599C445.506 233.193 444.338 235.48 443.631 238.455C442.921 241.434 442.568 244.977 442.568 249.086V276.089C442.568 278.073 442.921 279.615 443.631 280.713C444.338 281.814 445.312 282.573 446.552 282.998C447.792 283.425 449.12 283.636 450.536 283.636H451.492V284.7H419.611L419.618 284.704Z" fill="#2ECC9B"/>
<path d="M388.324 284.704C380.177 284.704 373.747 282.245 369.036 277.316C364.324 272.39 361.969 264.932 361.969 254.939C361.969 244.946 364.219 237.607 368.717 232.718C373.216 227.829 379.859 225.382 388.642 225.382C396.861 225.382 403.308 227.829 407.985 232.718C412.662 237.607 414.998 245.015 414.998 254.939C414.998 264.863 412.748 272.39 408.25 277.316C403.75 282.243 397.107 284.704 388.324 284.704ZM388.537 283.642C391.582 283.642 394.009 282.703 395.817 280.825C397.625 278.948 398.918 275.916 399.696 271.734C400.475 267.552 400.867 261.953 400.867 254.937C400.867 247.92 400.477 242.444 399.696 238.3C398.915 234.151 397.604 231.14 395.765 229.261C393.921 227.385 391.479 226.444 388.432 226.444C385.384 226.444 383.065 227.383 381.259 229.261C379.453 231.14 378.139 234.151 377.327 238.3C376.515 242.444 376.106 247.992 376.106 254.937C376.106 261.882 376.513 267.552 377.327 271.734C378.139 275.916 379.455 278.946 381.259 280.825C383.067 282.703 385.491 283.642 388.539 283.642H388.537Z" fill="#2ECC9B"/>
<path d="M309.081 284.704V283.64H310.251C311.665 283.64 312.977 283.427 314.183 283.002C315.387 282.579 316.361 281.833 317.104 280.77C317.847 279.706 318.22 278.184 318.22 276.198V235.905C318.22 233.991 317.847 232.522 317.104 231.496C316.361 230.467 315.387 229.76 314.183 229.369C312.977 228.982 311.665 228.786 310.251 228.786H309.826V227.721H331.932V237.397H332.145C332.852 235.268 333.79 233.393 334.961 231.761C336.131 230.13 337.707 228.855 339.69 227.934C341.673 227.014 344.118 226.552 347.023 226.552C350.849 226.552 353.754 227.315 355.737 228.838C357.719 230.362 358.713 232.505 358.713 235.268C358.713 238.03 357.686 240.107 355.629 241.701C353.575 243.296 350.563 244.094 346.598 244.094C346.598 239.061 345.994 235.604 344.79 233.728C343.584 231.849 341.991 230.911 340.008 230.911C338.587 230.911 337.369 231.355 336.341 232.238C335.314 233.124 334.481 234.418 333.843 236.12C333.205 237.82 332.747 239.806 332.462 242.074C332.178 244.342 332.039 246.894 332.039 249.728V276.093C332.039 278.077 332.393 279.619 333.1 280.717C333.807 281.818 334.782 282.577 336.024 283.002C337.261 283.429 338.589 283.64 340.008 283.64H342.559V284.704H309.083H309.081Z" fill="#2ECC9B"/>
<path d="M617.375 284.704V283.64H618.545C619.96 283.64 621.271 283.427 622.477 283.002C623.681 282.579 624.656 281.833 625.399 280.77C626.142 279.706 626.514 278.184 626.514 276.198V235.905C626.514 233.991 626.142 232.522 625.399 231.496C624.656 230.467 623.681 229.76 622.477 229.369C621.271 228.982 619.96 228.786 618.545 228.786H618.12V227.721H640.226V237.397H640.439C641.146 235.268 642.085 233.393 643.255 231.761C644.425 230.13 646.002 228.855 647.985 227.934C649.967 227.014 652.413 226.552 655.317 226.552C659.144 226.552 662.048 227.315 664.031 228.838C666.014 230.362 667.007 232.505 667.007 235.268C667.007 238.03 665.98 240.107 663.924 241.701C661.87 243.296 658.858 244.094 654.892 244.094C654.892 239.061 654.288 235.604 653.084 233.728C651.878 231.849 650.285 230.911 648.302 230.911C646.882 230.911 645.663 231.355 644.636 232.238C643.609 233.124 642.775 234.418 642.138 236.12C641.5 237.82 641.041 239.806 640.757 242.074C640.473 244.342 640.334 246.894 640.334 249.728V276.093C640.334 278.077 640.687 279.619 641.395 280.717C642.102 281.818 643.076 282.577 644.318 283.002C645.556 283.429 646.884 283.64 648.302 283.64H650.853V284.704H617.377H617.375Z" fill="#2ECC9B"/>
<path d="M595.892 284.704C590.86 284.704 587.019 283.467 584.362 280.985C581.706 278.506 580.378 274.181 580.378 268.014V227.723H572.3V226.659C575.419 226.659 578.145 226.358 580.483 225.756C582.82 225.155 584.838 224.181 586.541 222.832C588.17 221.555 589.515 219.927 590.58 217.943C591.643 215.959 592.493 213.621 593.131 210.924H594.191V226.659H608.222V227.723H594.191V272.479C594.191 275.952 594.846 278.521 596.157 280.187C597.469 281.854 599.434 282.685 602.055 282.685C603.046 282.685 604.109 282.579 605.244 282.367C606.376 282.154 607.582 281.801 608.855 281.302V282.367C607.794 282.863 606.109 283.375 603.808 283.907C601.505 284.439 598.866 284.704 595.89 284.704H595.892Z" fill="#2ECC9B"/>
<path d="M549.327 284.704C540.935 284.704 534.505 282.236 530.039 277.286C525.573 272.344 523.333 265.435 523.333 256.561C523.333 247.012 525.47 239.795 529.727 234.919C533.994 230.036 539.975 227.595 547.681 227.595C554.843 227.595 560.455 229.659 564.51 233.793C568.57 237.917 570.599 244.045 570.599 252.158V254.617H536.841C536.907 261.574 537.401 267.175 538.323 271.404C539.247 275.632 540.744 278.721 542.825 280.663C544.907 282.609 547.58 283.577 550.853 283.577C553.311 283.577 555.529 283.086 557.506 282.091C559.48 281.107 561.134 279.556 562.467 277.444C563.795 275.325 564.7 272.597 565.18 269.251C566.331 269.456 567.173 269.965 567.682 270.789C568.194 271.61 568.455 272.527 568.455 273.55C568.455 275.256 567.735 276.96 566.302 278.666C564.868 280.375 562.751 281.803 559.958 282.966C557.161 284.126 553.616 284.702 549.325 284.702L549.327 284.704ZM557.098 253.597C557.098 247.523 556.805 242.665 556.228 239.009C555.645 235.36 554.654 232.712 553.263 231.079C551.863 229.444 549.969 228.624 547.58 228.624C545.191 228.624 543.219 229.444 541.651 231.079C540.076 232.714 538.936 235.36 538.222 239.009C537.504 242.663 537.046 247.523 536.841 253.597H557.095H557.098Z" fill="#2ECC9B"/>
<path d="M728.468 284.704C723.566 284.704 719.264 283.787 715.559 281.952C711.845 280.114 708.953 277.118 706.879 272.967C704.8 268.814 703.767 263.266 703.767 256.319C703.767 249.372 704.817 243.414 706.93 239.263C709.037 235.116 711.933 232.148 715.606 230.379C719.281 228.607 723.469 227.723 728.161 227.723C731.838 227.723 735.106 228.151 737.964 229.003C740.821 229.857 743.081 231.094 744.748 232.726C746.415 234.361 747.253 236.341 747.253 238.651C747.253 240.016 746.899 241.272 746.181 242.425C745.464 243.584 744.256 244.508 742.561 245.185C740.856 245.869 738.541 246.21 735.613 246.21C735.613 241.918 735.39 238.499 734.948 235.941C734.506 233.391 733.711 231.55 732.545 230.429C731.391 229.306 729.8 228.746 727.75 228.746C725.439 228.746 723.496 229.564 721.933 231.195C720.367 232.825 719.194 235.638 718.409 239.619C717.631 243.601 717.237 249.17 717.237 256.317C717.237 262.921 717.694 268.229 718.616 272.249C719.535 276.266 721 279.161 723.002 280.928C725.01 282.699 727.651 283.579 730.918 283.579C733.229 283.579 735.321 283.141 737.196 282.257C739.065 281.368 740.65 279.872 741.942 277.764C743.233 275.651 744.152 272.824 744.693 269.285C745.649 269.559 746.386 270.087 746.897 270.867C747.406 271.65 747.661 272.622 747.661 273.781C747.661 275.414 746.981 277.084 745.615 278.782C744.253 280.484 742.161 281.9 739.335 283.023C736.51 284.145 732.888 284.704 728.466 284.704H728.468Z" fill="#2ECC9B"/>
<path d="M299.233 204.486C295.665 199.921 290.523 197.842 283.809 197.634C276.802 197.415 272.563 199.471 272.563 199.471L254.421 228.308V276.577C254.421 278.477 254.069 279.931 253.379 280.945C252.686 281.961 251.752 282.672 250.577 283.084C249.399 283.488 248.085 283.688 246.629 283.688H245.488V284.704H277.263V283.688H275.708C274.323 283.688 273.024 283.488 271.81 283.084C270.606 282.672 269.65 281.942 268.958 280.898C268.263 279.849 267.916 278.376 267.916 276.48V245.206C267.916 243.071 267.885 241.024 267.811 239.063H268.021C268.855 244.274 270.606 248.093 273.271 250.533C275.935 252.97 279.309 254.188 283.392 254.188C290.319 254.188 295.577 251.855 299.18 247.18C302.781 242.509 304.581 235.371 304.581 225.765C304.581 216.159 302.794 209.058 299.233 204.488V204.486ZM289.625 240.172C288.863 244.169 287.705 247.148 286.145 249.107C284.59 251.074 282.565 252.052 280.071 252.052C277.371 252.052 275.121 251.057 273.325 249.061C271.52 247.064 270.17 244.051 269.272 240.02C268.369 235.996 267.918 230.97 267.918 224.942C267.918 219.396 268.139 213.539 272.947 206.533C274.424 204.381 277.404 201.857 280.174 201.857C282.597 201.857 284.476 202.86 286.145 204.549C289.05 207.489 290.77 219.152 290.77 224.843C290.77 231.069 290.386 236.183 289.625 240.172Z" fill="#2ECC9B"/>
<path d="M250.983 385.391L267.979 347.195H275.582V405.047H267.661V361.718L268.059 364.264L253.81 397.008H248.159L233.91 365.059L234.308 361.716V405.045H226.387V347.193H233.99L250.986 385.388L250.983 385.391Z" fill="#3C5256"/>
<path d="M308.858 405.64C304.823 405.64 301.295 404.744 298.271 402.954C295.246 401.163 292.897 398.651 291.226 395.413C289.555 392.178 288.719 388.397 288.719 384.074V368.198C288.719 363.847 289.555 360.056 291.226 356.818C292.897 353.582 295.246 351.068 298.271 349.278C301.295 347.488 304.825 346.591 308.858 346.591C312.202 346.591 315.258 347.307 318.032 348.739C320.804 350.172 323.128 352.175 324.999 354.748C326.87 357.321 328.137 360.332 328.8 363.78H320.48C319.975 361.924 319.133 360.298 317.952 358.905C316.772 357.512 315.384 356.431 313.793 355.663C312.202 354.895 310.556 354.51 308.858 354.51C305.301 354.51 302.442 355.764 300.279 358.27C298.115 360.776 297.035 364.085 297.035 368.196V384.072C297.035 388.182 298.117 391.485 300.279 393.979C302.44 396.472 305.301 397.719 308.858 397.719C311.379 397.719 313.753 396.924 315.982 395.331C318.211 393.741 319.71 391.445 320.48 388.448H328.8C328.137 391.896 326.864 394.906 324.978 397.479C323.094 400.052 320.773 402.055 318.011 403.488C315.252 404.921 312.2 405.636 308.856 405.636L308.858 405.64Z" fill="#3C5256"/>
<path d="M357.898 405.64C353.811 405.64 350.241 404.759 347.191 402.994C344.139 401.231 341.772 398.744 340.086 395.533C338.4 392.325 337.558 388.584 337.558 384.313V367.92C337.558 363.624 338.4 359.877 340.086 356.681C341.77 353.486 344.139 351.005 347.191 349.242C350.243 347.479 353.813 346.596 357.898 346.596C361.984 346.596 365.553 347.477 368.605 349.242C371.657 351.007 374.025 353.486 375.711 356.681C377.394 359.877 378.238 363.624 378.238 367.92V384.313C378.238 388.584 377.397 392.325 375.711 395.533C374.025 398.744 371.657 401.231 368.605 402.994C365.553 404.759 361.984 405.64 357.898 405.64ZM357.898 397.644C361.533 397.644 364.446 396.451 366.635 394.063C368.824 391.675 369.918 388.519 369.918 384.593V367.645C369.918 363.694 368.824 360.529 366.635 358.156C364.446 355.783 361.533 354.597 357.898 354.597C354.263 354.597 351.384 355.783 349.18 358.156C346.977 360.532 345.876 363.694 345.876 367.645V384.593C345.876 388.519 346.977 391.675 349.18 394.063C351.382 396.451 354.289 397.644 357.898 397.644ZM379.352 405.998L357.778 389.009L361.998 383.638L383.572 400.587L379.352 405.998Z" fill="#3C5256"/>
<path d="M417.993 375.669C417.862 372.7 417.38 370.369 416.549 368.68C415.718 366.99 414.461 365.77 412.779 365.023C411.154 364.295 409.006 363.931 406.333 363.931C402.95 363.931 400.102 364.613 397.785 365.976C395.468 367.339 393.702 369.365 392.488 372.054C391.216 374.911 390.581 378.303 390.581 382.224C390.581 386.146 391.185 389.493 392.389 392.211C393.595 394.929 395.382 396.997 397.756 398.415C400.111 399.817 402.969 400.517 406.333 400.517C408.444 400.517 410.178 400.395 411.531 400.153C412.885 399.911 414.002 399.518 414.882 398.977C415.667 398.51 416.357 397.828 416.955 396.932C417.909 395.438 418.384 393.171 418.384 390.124L418.971 389.032H422.587C422.661 392.954 422.055 396.101 420.767 398.474C419.477 400.847 417.488 402.472 414.798 403.349C412.573 404.077 409.753 404.441 406.333 404.441C402.146 404.441 398.547 403.557 395.529 401.794C392.511 400.029 390.235 397.467 388.703 394.103C387.171 390.797 386.405 386.838 386.405 382.224C386.405 377.61 387.19 373.605 388.76 370.262C390.33 366.919 392.61 364.369 395.598 362.612C398.568 360.876 402.146 360.007 406.333 360.007C409.641 360.007 412.39 360.512 414.587 361.52C416.783 362.53 418.506 364.078 419.759 366.17C421.141 368.635 421.973 371.802 422.253 375.666H417.993V375.669Z" fill="#7D9DFF"/>
<path d="M424.185 403.879L440.638 360.567H443.833L460.368 403.879H455.716L450.614 389.815H433.743L428.586 403.879H424.185ZM442.263 367.319L435.226 385.893H449.212L442.263 367.319Z" fill="#7D9DFF"/>
<path d="M472.085 383.626H467.515V403.879H463.367V360.567H477.549C479.959 360.567 481.962 360.706 483.56 360.988C485.157 361.268 486.498 361.708 487.582 362.305C488.74 362.94 489.674 363.799 490.385 364.882C491.526 366.582 492.094 368.991 492.094 372.109C492.094 374.892 491.524 377.167 490.385 378.932C489.245 380.697 487.546 381.926 485.284 382.616C483.229 383.287 480.649 383.623 477.549 383.623H477.1L492.347 404.048H487.106L472.085 383.623V383.626ZM477.551 379.704C480.11 379.704 482.118 379.475 483.577 379.018C485.035 378.562 486.128 377.819 486.856 376.79C487.584 375.669 487.948 374.11 487.948 372.111C487.948 369.982 487.622 368.377 486.967 367.293C486.313 366.21 485.237 365.482 483.745 365.107C482.288 364.716 480.129 364.52 477.271 364.52H467.517V379.704H477.551Z" fill="#7D9DFF"/>
<path d="M501.709 384.747V399.96H522.281L524.356 403.881H497.563V360.569H523.853L522.788 364.52H501.711V380.825H517.743L514.773 384.747H501.713H501.709Z" fill="#7D9DFF"/>
<path d="M534.389 384.747V399.96H554.961L557.036 403.881H530.243V360.569H556.533L555.468 364.52H534.392V380.825H550.423L547.454 384.747H534.394H534.389Z" fill="#7D9DFF"/>
<path d="M571.637 383.626H567.068V403.879H562.919V360.567H577.101C579.511 360.567 581.515 360.706 583.112 360.988C584.71 361.268 586.05 361.708 587.134 362.305C588.292 362.94 589.226 363.799 589.938 364.882C591.079 366.582 591.647 368.991 591.647 372.109C591.647 374.892 591.076 377.167 589.938 378.932C588.797 380.697 587.099 381.926 584.836 382.616C582.782 383.287 580.201 383.623 577.101 383.623H576.653L591.899 404.048H586.659L571.637 383.623V383.626ZM577.103 379.704C579.662 379.704 581.67 379.475 583.129 379.018C584.588 378.562 585.68 377.819 586.408 376.79C587.136 375.669 587.501 374.11 587.501 372.111C587.501 369.982 587.174 368.377 586.52 367.293C585.865 366.21 584.79 365.482 583.297 365.107C581.841 364.716 579.681 364.52 576.823 364.52H567.07V379.704H577.103Z" fill="#7D9DFF"/>
<path d="M648.546 375.53C647.555 371.831 645.711 368.974 643.011 366.957C640.311 364.941 636.989 363.931 633.047 363.931C629.665 363.931 626.815 364.613 624.5 365.976C622.182 367.34 620.417 369.366 619.202 372.054C617.931 374.911 617.297 378.303 617.297 382.224C617.297 386.426 617.859 389.872 618.979 392.561C620.101 395.249 621.818 397.25 624.136 398.557C626.451 399.863 629.423 400.517 633.047 400.517C636.465 400.517 639.475 399.64 642.072 397.883C643.529 396.93 644.739 395.777 645.703 394.422C646.665 393.07 647.446 391.431 648.043 389.506C648.342 388.498 648.563 387.656 648.702 386.983C648.843 386.312 648.94 385.622 648.997 384.911H633.443L631.117 380.933H653.175C653.194 381.174 653.202 381.69 653.202 382.473C653.202 385.349 652.865 387.959 652.192 390.303C651.52 392.647 650.491 394.772 649.108 396.678C647.894 398.378 646.419 399.834 644.68 401.048C642.944 402.261 641.075 403.139 639.075 403.682H639.048C637.029 404.186 635.03 404.439 633.049 404.439C626.434 404.439 621.46 402.581 618.124 398.864C614.788 395.146 613.121 389.6 613.121 382.222C613.121 377.59 613.907 373.603 615.477 370.26C617.047 366.917 619.326 364.367 622.315 362.61C625.287 360.874 628.865 360.005 633.049 360.005C636.263 360.005 639.191 360.567 641.837 361.686C644.48 362.808 646.717 364.432 648.549 366.561C650.679 369.157 652.116 372.147 652.865 375.528H648.549L648.546 375.53Z" fill="#7D9DFF"/>
<path d="M653.112 403.879L669.565 360.567H672.759L689.294 403.879H684.643L679.541 389.815H662.669L657.513 403.879H653.112ZM671.189 367.319L664.153 385.893H678.139L671.189 367.319Z" fill="#7D9DFF"/>
<path d="M699.835 403.879V364.518H686.381V360.567H717.995V364.518H703.981V403.879H699.833H699.835Z" fill="#7D9DFF"/>
<path d="M725.816 384.747V399.96H746.388L748.463 403.881H721.669V360.569H747.96L746.895 364.52H725.818V380.825H741.85L738.88 384.747H725.82H725.816Z" fill="#7D9DFF"/>
<path d="M323.183 90.3606C315.568 102.531 307.978 114.717 300.333 126.871C251.348 204.766 202.286 282.613 153.494 360.628C150.118 366.025 146.529 367.781 140.379 367.619C124.091 367.19 107.783 367.474 89.5623 367.474C167.831 273.945 244.953 181.782 322.078 89.6201C322.446 89.8662 322.814 90.1145 323.183 90.3606Z" fill="#DEDEDE"/>
</g>
<defs>
<clipPath id="clip0_439_20748">
<rect width="751" height="406" fill="white" transform="translate(0.5)"/>
</clipPath>
</defs>
</svg>
