<svg width="33" height="32" viewBox="0 0 33 32" fill="none" xmlns="http://www.w3.org/2000/svg">
<g id="vuesax/linear/message-notif">
<g id="message-notif">
<path id="Vector" d="M29.8327 13.3337V17.3337C29.8327 22.667 27.166 25.3337 21.8327 25.3337H21.166C20.7527 25.3337 20.3527 25.5337 20.0993 25.867L18.0993 28.5337C17.2193 29.707 15.7793 29.707 14.8993 28.5337L12.8993 25.867C12.686 25.5737 12.1927 25.3337 11.8327 25.3337H11.166C5.83268 25.3337 3.16602 24.0003 3.16602 17.3337V10.667C3.16602 5.33366 5.83268 2.66699 11.166 2.66699H19.166" stroke="#646464" stroke-width="1.5" stroke-miterlimit="10" stroke-linecap="round" stroke-linejoin="round"/>
<path id="Vector_2" d="M26.4993 9.33366C28.3403 9.33366 29.8327 7.84127 29.8327 6.00033C29.8327 4.15938 28.3403 2.66699 26.4993 2.66699C24.6584 2.66699 23.166 4.15938 23.166 6.00033C23.166 7.84127 24.6584 9.33366 26.4993 9.33366Z" stroke="#646464" stroke-width="1.5" stroke-linecap="round" stroke-linejoin="round"/>
<path id="Vector_3" d="M21.8293 14.6667H21.8412" stroke="#646464" stroke-width="2" stroke-linecap="round" stroke-linejoin="round"/>
<path id="Vector_4" d="M16.4933 14.6667H16.5053" stroke="#646464" stroke-width="2" stroke-linecap="round" stroke-linejoin="round"/>
<path id="Vector_5" d="M11.1593 14.6667H11.1713" stroke="#646464" stroke-width="2" stroke-linecap="round" stroke-linejoin="round"/>
</g>
</g>
</svg>
