<svg width="41" height="40" viewBox="0 0 41 40" fill="none" xmlns="http://www.w3.org/2000/svg">
<g id="vuesax/bold/message-notif">
<g id="message-notif">
<path id="Vector" d="M33.8333 11.2497C36.3646 11.2497 38.4167 9.19765 38.4167 6.66634C38.4167 4.13504 36.3646 2.08301 33.8333 2.08301C31.302 2.08301 29.25 4.13504 29.25 6.66634C29.25 9.19765 31.302 11.2497 33.8333 11.2497Z" fill="#2ECC9B"/>
<path id="Vector_2" d="M32.234 13.583C29.6173 13.0163 27.484 10.883 26.9173 8.26634C26.7007 7.24967 26.684 6.26634 26.8673 5.33301C27.084 4.29967 26.3173 3.33301 25.2507 3.33301H12.1673C7.56732 3.33301 3.83398 7.06634 3.83398 11.6663V23.2497C3.83398 27.8497 7.56732 31.583 12.1673 31.583H14.6673C15.134 31.583 15.734 31.883 16.0007 32.2497L18.5007 35.5663C19.6007 37.033 21.4007 37.033 22.5007 35.5663L25.0007 32.2497C25.3173 31.833 25.8006 31.583 26.334 31.583H28.8507C33.4507 31.583 37.1673 27.8663 37.1673 23.2663V15.2497C37.1673 14.1997 36.2006 13.433 35.1673 13.633C34.234 13.7997 33.2507 13.7997 32.234 13.583ZM13.834 19.9997C12.9007 19.9997 12.1673 19.2497 12.1673 18.333C12.1673 17.4163 12.9007 16.6663 13.834 16.6663C14.7507 16.6663 15.5007 17.4163 15.5007 18.333C15.5007 19.2497 14.7673 19.9997 13.834 19.9997ZM20.5007 19.9997C19.5673 19.9997 18.834 19.2497 18.834 18.333C18.834 17.4163 19.5673 16.6663 20.5007 16.6663C21.4173 16.6663 22.1673 17.4163 22.1673 18.333C22.1673 19.2497 21.434 19.9997 20.5007 19.9997ZM27.1673 19.9997C26.234 19.9997 25.5007 19.2497 25.5007 18.333C25.5007 17.4163 26.234 16.6663 27.1673 16.6663C28.084 16.6663 28.834 17.4163 28.834 18.333C28.834 19.2497 28.1007 19.9997 27.1673 19.9997Z" fill="#2ECC9B"/>
</g>
</g>
</svg>
