<svg width="70" height="49" viewBox="0 0 70 49" fill="none" xmlns="http://www.w3.org/2000/svg">
<rect y="0.0639648" width="70" height="47.9945" rx="4" fill="white"/>
<path fill-rule="evenodd" clip-rule="evenodd" d="M18.2471 18.189H14.8182C14.5836 18.189 14.384 18.3595 14.3475 18.591L12.9606 27.3827C12.9331 27.5562 13.0674 27.7126 13.2434 27.7126H14.8804C15.1151 27.7126 15.3146 27.5421 15.3512 27.3101L15.7252 24.9389C15.7613 24.7066 15.9614 24.5364 16.1955 24.5364H17.281C19.5397 24.5364 20.8432 23.4434 21.1839 21.2778C21.3372 20.3303 21.1903 19.5858 20.7465 19.0643C20.2592 18.4919 19.3947 18.189 18.2471 18.189ZM18.6427 21.4C18.4553 22.6303 17.5152 22.6303 16.6062 22.6303H16.0887L16.4517 20.3326C16.4733 20.1939 16.5936 20.0916 16.734 20.0916H16.9712C17.5904 20.0916 18.1745 20.0916 18.4764 20.4444C18.6562 20.6551 18.7114 20.9678 18.6427 21.4ZM28.497 21.3606H26.8549C26.715 21.3606 26.5941 21.4629 26.5726 21.6019L26.4999 22.061L26.3851 21.8946C26.0296 21.3787 25.237 21.2063 24.4459 21.2063C22.6312 21.2063 21.0815 22.5804 20.7797 24.5081C20.6228 25.4695 20.8458 26.3888 21.3913 27.0301C21.8918 27.6196 22.6078 27.8653 23.4595 27.8653C24.9215 27.8653 25.7324 26.9252 25.7324 26.9252L25.6591 27.3816C25.6315 27.556 25.7658 27.7124 25.9408 27.7124H27.4199C27.6552 27.7124 27.8536 27.5419 27.8907 27.3099L28.7782 21.6905C28.8062 21.5176 28.6724 21.3606 28.497 21.3606ZM26.2081 24.5561C26.0496 25.494 25.305 26.1237 24.3556 26.1237C23.8788 26.1237 23.4976 25.9708 23.253 25.681C23.0103 25.3934 22.918 24.9837 22.9952 24.5275C23.1433 23.5975 23.9004 22.9474 24.8354 22.9474C25.3016 22.9474 25.6807 23.1022 25.9303 23.3945C26.1805 23.6898 26.2798 24.1018 26.2081 24.5561ZM35.592 21.3603H37.2421C37.4732 21.3603 37.608 21.6195 37.4767 21.809L31.9887 29.7298C31.8998 29.8581 31.7534 29.9344 31.597 29.9344H29.949C29.7169 29.9344 29.5814 29.6732 29.7158 29.4832L31.4246 27.0714L29.6072 21.7383C29.5443 21.5529 29.6812 21.3603 29.8784 21.3603H31.4998C31.7105 21.3603 31.8963 21.4986 31.9571 21.7002L32.9216 24.9212L35.1975 21.5694C35.2866 21.4385 35.4347 21.3603 35.592 21.3603Z" fill="#253B80"/>
<path fill-rule="evenodd" clip-rule="evenodd" d="M53.483 27.3822L54.8902 18.4297C54.9118 18.2908 55.0322 18.1885 55.1721 18.188H56.7563C56.9313 18.188 57.0656 18.3448 57.038 18.5183L55.6503 27.3096C55.6141 27.5416 55.4146 27.7121 55.1795 27.7121H53.7646C53.5897 27.7121 53.4554 27.5557 53.483 27.3822ZM42.7058 18.1885H39.2762C39.0421 18.1885 38.8426 18.359 38.8059 18.5905L37.4191 27.3822C37.3915 27.5557 37.5259 27.7121 37.701 27.7121H39.4607C39.6243 27.7121 39.7642 27.5929 39.7897 27.4305L40.1832 24.9384C40.2194 24.7061 40.4194 24.5359 40.6535 24.5359H41.7385C43.9977 24.5359 45.3009 23.4429 45.6418 21.2772C45.7956 20.3298 45.6478 19.5853 45.2042 19.0638C44.7172 18.4914 43.8533 18.1885 42.7058 18.1885ZM43.1014 21.3995C42.9144 22.6298 41.9742 22.6298 41.0647 22.6298H40.5477L40.9113 20.3321C40.9329 20.1934 41.0521 20.091 41.193 20.091H41.4301C42.0489 20.091 42.6336 20.091 42.9352 20.4439C43.1153 20.6546 43.17 20.9673 43.1014 21.3995ZM52.9547 21.3601H51.3138C51.1727 21.3601 51.053 21.4624 51.0319 21.6013L50.9593 22.0605L50.8439 21.8941C50.4885 21.3782 49.6964 21.2058 48.9052 21.2058C47.0905 21.2058 45.5413 22.5799 45.2394 24.5075C45.0831 25.4689 45.3051 26.3883 45.8506 27.0296C46.352 27.6191 47.0671 27.8648 47.9188 27.8648C49.3808 27.8648 50.1915 26.9247 50.1915 26.9247L50.1184 27.381C50.0908 27.5555 50.2251 27.7119 50.4012 27.7119H51.8797C52.1138 27.7119 52.3133 27.5414 52.35 27.3094L53.238 21.69C53.2651 21.5171 53.1308 21.3601 52.9547 21.3601ZM50.666 24.5556C50.5084 25.4935 49.763 26.1232 48.8133 26.1232C48.3374 26.1232 47.9555 25.9703 47.7107 25.6805C47.468 25.3928 47.3768 24.9831 47.4532 24.527C47.6019 23.597 48.3581 22.9469 49.2931 22.9469C49.7595 22.9469 50.1384 23.1017 50.3883 23.394C50.6393 23.6893 50.7386 24.1013 50.666 24.5556Z" fill="#179BD7"/>
</svg>
