<svg width="59" height="40" viewBox="0 0 59 40" fill="none" xmlns="http://www.w3.org/2000/svg">
<rect width="58.3333" height="40" rx="4" fill="#253B80"/>
<path fill-rule="evenodd" clip-rule="evenodd" d="M15.2063 15.1064H12.3489C12.1533 15.1064 11.987 15.2486 11.9565 15.4415L10.8008 22.7688C10.7779 22.9134 10.8898 23.0437 11.0365 23.0437H12.4007C12.5962 23.0437 12.7625 22.9016 12.793 22.7083L13.1047 20.732C13.1348 20.5385 13.3015 20.3966 13.4966 20.3966H14.4012C16.2834 20.3966 17.3697 19.4857 17.6535 17.6807C17.7813 16.8911 17.6589 16.2706 17.2891 15.836C16.883 15.359 16.1626 15.1064 15.2063 15.1064ZM15.5359 17.7826C15.3797 18.808 14.5963 18.808 13.8388 18.808H13.4076L13.7101 16.893C13.7281 16.7774 13.8283 16.6921 13.9453 16.6921H14.143C14.659 16.6921 15.1458 16.6921 15.3973 16.9862C15.5472 17.1618 15.5932 17.4224 15.5359 17.7826ZM23.7478 17.7498H22.3794C22.2629 17.7498 22.1621 17.835 22.1441 17.9508L22.0836 18.3335L21.9879 18.1949C21.6917 17.7648 21.0312 17.6212 20.3719 17.6212C18.8597 17.6212 17.5683 18.7664 17.3167 20.373C17.186 21.1742 17.3718 21.9405 17.8264 22.4749C18.2435 22.9662 18.8401 23.171 19.5499 23.171C20.7682 23.171 21.444 22.3875 21.444 22.3875L21.3829 22.7678C21.3599 22.9132 21.4718 23.0435 21.6176 23.0435H22.8503C23.0463 23.0435 23.2116 22.9014 23.2426 22.7081L23.9821 18.0247C24.0055 17.8807 23.894 17.7498 23.7478 17.7498ZM21.8404 20.413C21.7083 21.1947 21.0879 21.7195 20.2967 21.7195C19.8993 21.7195 19.5816 21.5921 19.3778 21.3506C19.1756 21.1108 19.0986 20.7693 19.163 20.3892C19.2864 19.6141 19.9173 19.0723 20.6965 19.0723C21.085 19.0723 21.4009 19.2013 21.6089 19.4449C21.8174 19.691 21.9001 20.0344 21.8404 20.413ZM29.6603 17.7496H31.0354C31.228 17.7496 31.3403 17.9655 31.2309 18.1235L26.6575 24.7249C26.5835 24.8319 26.4615 24.8955 26.3312 24.8955H24.9578C24.7644 24.8955 24.6515 24.6778 24.7635 24.5194L26.1875 22.5093L24.673 18.0645C24.6206 17.91 24.7347 17.7496 24.899 17.7496H26.2502C26.4257 17.7496 26.5806 17.8648 26.6313 18.0328L27.435 20.7173L29.3316 17.9238C29.4059 17.8147 29.5292 17.7496 29.6603 17.7496Z" fill="white"/>
<path fill-rule="evenodd" clip-rule="evenodd" d="M44.5692 22.7682L45.7419 15.3069C45.7599 15.1911 45.8602 15.1059 45.9768 15.1055H47.297C47.4428 15.1055 47.5548 15.2362 47.5318 15.3808L46.3753 22.7077C46.3452 22.901 46.1789 23.0431 45.983 23.0431H44.804C44.6582 23.0431 44.5462 22.9128 44.5692 22.7682ZM35.5882 15.1059H32.7303C32.5352 15.1059 32.3689 15.248 32.3384 15.4409L31.1827 22.7682C31.1597 22.9128 31.2716 23.0431 31.4176 23.0431H32.884C33.0203 23.0431 33.1369 22.9438 33.1582 22.8084L33.4861 20.7314C33.5163 20.5379 33.6829 20.396 33.878 20.396H34.7821C36.6648 20.396 37.7509 19.4851 38.0349 17.6801C38.1631 16.8905 38.0399 16.27 37.6702 15.8354C37.2644 15.3584 36.5445 15.1059 35.5882 15.1059ZM35.9179 17.782C35.762 18.8074 34.9786 18.8074 34.2206 18.8074H33.7899L34.0928 16.8924C34.1108 16.7768 34.2102 16.6915 34.3276 16.6915H34.5252C35.0408 16.6915 35.5281 16.6915 35.7794 16.9856C35.9295 17.1612 35.9751 17.4218 35.9179 17.782ZM44.129 17.7492H42.7616C42.644 17.7492 42.5442 17.8344 42.5267 17.9503L42.4661 18.3329L42.37 18.1943C42.0738 17.7643 41.4137 17.6206 40.7544 17.6206C39.2422 17.6206 37.9512 18.7658 37.6996 20.3724C37.5693 21.1736 37.7543 21.9399 38.2089 22.4743C38.6267 22.9656 39.2227 23.1704 39.9325 23.1704C41.1508 23.1704 41.8263 22.3869 41.8263 22.3869L41.7654 22.7672C41.7424 22.9126 41.8544 23.043 42.0011 23.043H43.2332C43.4283 23.043 43.5945 22.9008 43.6251 22.7075L44.365 18.0241C44.3877 17.8801 44.2757 17.7492 44.129 17.7492ZM42.2217 20.4124C42.0905 21.1941 41.4692 21.7189 40.6778 21.7189C40.2813 21.7189 39.963 21.5915 39.759 21.35C39.5568 21.1102 39.4808 20.7687 39.5444 20.3886C39.6683 19.6135 40.2985 19.0717 41.0777 19.0717C41.4663 19.0717 41.7821 19.2007 41.9903 19.4443C42.1995 19.6904 42.2823 20.0338 42.2217 20.4124Z" fill="#179BD7"/>
</svg>
