<svg width="249" height="100" viewBox="0 0 249 100" fill="none" xmlns="http://www.w3.org/2000/svg">
<g id="PDF" opacity="0.4">
<path d="M1.45771 99.6571C0.485902 99.6571 0 99.1718 0 98.2012V2.11292C0 1.14234 0.485902 0.657043 1.45771 0.657043H41.1073C47.1325 0.657043 52.4288 1.48204 56.9963 3.13204C61.6609 4.78204 65.4996 7.06292 68.5122 9.97468C71.6219 12.8865 73.9543 16.3806 75.5091 20.457C77.064 24.4365 77.8415 28.8041 77.8415 33.56C77.8415 38.3159 77.064 42.732 75.5091 46.8085C73.9543 50.7879 71.6219 54.282 68.5122 57.2909C65.4024 60.2026 61.5638 62.4835 56.9963 64.1335C52.4288 65.7835 47.1325 66.6085 41.1073 66.6085H26.5302C25.9472 66.6085 25.6556 66.8997 25.6556 67.482V98.2012C25.6556 99.1718 25.1697 99.6571 24.1979 99.6571H1.45771ZM39.6496 44.9159C43.7312 44.9159 46.8409 43.8968 48.9789 41.8585C51.1169 39.7232 52.1859 36.957 52.1859 33.56C52.1859 30.1629 51.1169 27.4453 48.9789 25.407C46.8409 23.3688 43.7312 22.3497 39.6496 22.3497H26.5302C25.9472 22.3497 25.6556 22.6409 25.6556 23.2232V44.0423C25.6556 44.6247 25.9472 44.9159 26.5302 44.9159H39.6496Z" fill="#F5F5F5"/>
<path d="M89.256 2.11292C89.256 1.14234 89.7419 0.657043 90.7137 0.657043H129.051C137.895 0.657043 145.329 2.50116 151.354 6.1894C157.477 9.87763 161.801 15.5556 164.328 23.2232C164.814 24.8732 165.251 26.4747 165.64 28.0276C166.028 29.5806 166.32 31.3762 166.514 33.4144C166.806 35.4526 167 37.8306 167.097 40.5482C167.195 43.1688 167.243 46.3717 167.243 50.157C167.243 53.8453 167.195 57.0482 167.097 59.7659C167 62.3865 166.806 64.7159 166.514 66.7541C166.32 68.7923 166.028 70.6365 165.64 72.2865C165.251 73.9365 164.814 75.5379 164.328 77.0909C161.801 84.7585 157.477 90.4365 151.354 94.1247C145.329 97.8129 137.895 99.6571 129.051 99.6571H90.7137C89.7419 99.6571 89.256 99.1718 89.256 98.2012V2.11292ZM114.912 76.0718C114.912 76.6541 115.203 76.9453 115.786 76.9453H123.512C128.08 76.9453 131.627 76.2659 134.153 74.9071C136.777 73.4512 138.672 70.9762 139.838 67.482C140.033 66.8026 140.227 66.0262 140.421 65.1526C140.616 64.2791 140.762 63.2115 140.859 61.9497C141.053 60.5909 141.15 58.9894 141.15 57.1453C141.247 55.3012 141.296 52.9718 141.296 50.157C141.296 47.4394 141.247 45.1585 141.15 43.3144C141.15 41.3732 141.053 39.7718 140.859 38.51C140.762 37.1512 140.616 36.0835 140.421 35.307C140.227 34.4335 140.033 33.6085 139.838 32.832C138.672 29.3379 136.777 26.9115 134.153 25.5526C131.627 24.0967 128.08 23.3688 123.512 23.3688H115.786C115.203 23.3688 114.912 23.66 114.912 24.2423V76.0718Z" fill="#F5F5F5"/>
<path d="M181.217 2.11292C181.217 1.14234 181.703 0.657043 182.674 0.657043H247.542C248.514 0.657043 249 1.14234 249 2.11292V20.8938C249 21.8644 248.514 22.3497 247.542 22.3497H207.747C207.164 22.3497 206.872 22.6409 206.872 23.2232V39.5291C206.872 40.1115 207.164 40.4026 207.747 40.4026H240.4C241.371 40.4026 241.857 40.8879 241.857 41.8585V60.2026C241.857 61.1732 241.371 61.6585 240.4 61.6585H207.747C207.164 61.6585 206.872 61.9497 206.872 62.532V98.2012C206.872 99.1718 206.386 99.6571 205.415 99.6571H182.674C181.703 99.6571 181.217 99.1718 181.217 98.2012V2.11292Z" fill="#F5F5F5"/>
</g>
</svg>
