<svg width="81" height="81" viewBox="0 0 81 81" fill="none" xmlns="http://www.w3.org/2000/svg">
<g id="vuesax/bold/percentage-square">
<g id="percentage-square">
<path id="Vector" d="M54.3288 7.3161L26.3955 7.3161C14.2621 7.3161 7.02881 14.5494 7.02881 26.6828L7.02881 54.5828C7.02881 66.7494 14.2621 73.9828 26.3955 73.9828L54.2955 73.9828C66.4288 73.9828 73.6621 66.7494 73.6621 54.6161L73.6621 26.6828C73.6955 14.5494 66.4621 7.3161 54.3288 7.3161ZM26.1955 31.1161C26.1955 28.4161 28.3955 26.1828 31.1288 26.1828C33.8288 26.1828 36.0621 28.3828 36.0621 31.1161C36.0621 33.8161 33.8621 36.0494 31.1288 36.0494C28.3955 36.0161 26.1955 33.8161 26.1955 31.1161ZM29.7621 54.0494C29.1288 54.0494 28.4955 53.8161 27.9955 53.3161C27.0288 52.3494 27.0288 50.7828 27.9955 49.7828L49.8288 27.9494C50.7955 26.9828 52.3955 26.9828 53.3621 27.9494C54.3288 28.9161 54.3288 30.5161 53.3621 31.4828L31.5288 53.3161C31.0288 53.8161 30.3955 54.0494 29.7621 54.0494ZM52.9288 55.1161C50.2288 55.1161 47.9955 52.9161 47.9955 50.1828C47.9955 47.4828 50.1955 45.2494 52.9288 45.2494C55.6288 45.2494 57.8621 47.4494 57.8621 50.1828C57.8621 52.9161 55.6621 55.1161 52.9288 55.1161Z" fill="#557AEC"/>
</g>
</g>
</svg>
