<svg width="120" height="121" viewBox="0 0 120 121" fill="none" xmlns="http://www.w3.org/2000/svg">
<g id="vuesax/bold/play-circle">
<g id="play-circle">
<path id="Vector" d="M59.8496 10.657C32.2496 10.657 9.84961 33.057 9.84961 60.657C9.84961 88.257 32.2496 110.657 59.8496 110.657C87.4496 110.657 109.85 88.257 109.85 60.657C109.85 33.057 87.4996 10.657 59.8496 10.657ZM74.8496 71.807L60.3496 80.157C58.5496 81.207 56.5496 81.707 54.5996 81.707C52.5996 81.707 50.6496 81.207 48.8496 80.157C45.2496 78.057 43.0996 74.357 43.0996 70.157V53.407C43.0996 49.257 45.2496 45.507 48.8496 43.407C52.4496 41.307 56.7496 41.307 60.3996 43.407L74.8996 51.757C78.4996 53.857 80.6496 57.557 80.6496 61.757C80.6496 65.957 78.4996 69.707 74.8496 71.807Z" fill="#F5F5F5"/>
</g>
</g>
</svg>
