<svg width="40" height="40" viewBox="0 0 40 40" fill="none" xmlns="http://www.w3.org/2000/svg">
<rect width="40" height="40" rx="20" fill="#EAFAF5"/>
<path d="M19.5 29C24.7467 29 29 24.7467 29 19.5C29 14.2533 24.7467 10 19.5 10C14.2533 10 10 14.2533 10 19.5C10 24.7467 14.2533 29 19.5 29Z" fill="#2ECC9B"/>
<path d="M29.3001 30.0001C29.1201 30.0001 28.9401 29.9301 28.8101 29.8001L26.9501 27.9401C26.6801 27.6701 26.6801 27.2301 26.9501 26.9501C27.2201 26.6801 27.6601 26.6801 27.9401 26.9501L29.8001 28.8101C30.0701 29.0801 30.0701 29.5201 29.8001 29.8001C29.6601 29.9301 29.4801 30.0001 29.3001 30.0001Z" fill="#2ECC9B"/>
</svg>
