<svg width="70" height="49" viewBox="0 0 70 49" fill="none" xmlns="http://www.w3.org/2000/svg">
<g id="Processor/Stripe">
<rect id="BASE" y="0.0639648" width="70" height="47.9945" rx="4" fill="white"/>
<path id="Stripe" fill-rule="evenodd" clip-rule="evenodd" d="M37.6109 16.3463L34.055 17.1095V14.2265L37.6109 13.4775V16.3463ZM23.1607 15.1167L19.704 15.8514L19.6899 27.1699C19.6899 29.2612 21.2624 30.8014 23.359 30.8014C24.5207 30.8014 25.3707 30.5895 25.8382 30.3351V27.4667C25.3849 27.6503 23.1465 28.3003 23.1465 26.209V21.1927H25.8382V18.183H23.1465L23.1607 15.1167ZM61 24.4145C61 20.7971 59.2433 17.9427 55.8858 17.9427C52.5142 17.9427 50.4742 20.7971 50.4742 24.3862C50.4742 28.6395 52.8825 30.7873 56.3392 30.7873C58.025 30.7873 59.3 30.4058 60.2633 29.8688V27.0427C59.3 27.5232 58.195 27.8199 56.7925 27.8199C55.4183 27.8199 54.2 27.3395 54.0442 25.6721H60.9717C60.9717 25.5942 60.9768 25.4174 60.9826 25.2136V25.2135V25.2135V25.2134C60.9906 24.9365 61 24.6098 61 24.4145ZM54.0016 23.0724C54.0016 21.4754 54.9791 20.8112 55.8716 20.8112C56.7358 20.8112 57.6566 21.4754 57.6566 23.0724H54.0016ZM14.7884 21.0091C14.0375 21.0091 13.5842 21.221 13.5842 21.7721C13.5842 22.3738 14.3644 22.6385 15.3323 22.9669C16.9102 23.5022 18.9871 24.2068 18.9959 26.8167C18.9959 29.346 16.97 30.8015 14.0234 30.8015C12.805 30.8015 11.4733 30.5613 10.1558 29.996V26.633C11.3458 27.283 12.8475 27.7634 14.0234 27.7634C14.8167 27.7634 15.3834 27.5515 15.3834 26.9015C15.3834 26.235 14.5376 25.9303 13.5166 25.5626C11.9616 25.0024 10 24.2959 10 21.9417C10 19.4406 11.9125 17.9428 14.7884 17.9428C15.9642 17.9428 17.1259 18.1265 18.3017 18.5928V21.9134C17.225 21.3341 15.865 21.0091 14.7884 21.0091ZM30.2443 19.2286L30.0176 18.183H26.9576V30.5471H30.4993V22.1678C31.3351 21.0797 32.7518 21.2775 33.1909 21.433V18.183C32.7376 18.0134 31.0801 17.7025 30.2443 19.2286ZM34.0548 18.183H37.6107V30.5471H34.0548V18.183ZM42.229 19.0449C42.7248 18.5927 43.6173 17.9427 45.0057 17.9427C47.4848 17.9427 49.8223 20.1754 49.8365 24.2732C49.8365 28.7525 47.5273 30.7873 44.9915 30.7873C43.7448 30.7873 42.994 30.2645 42.484 29.8971L42.4698 33.896L38.9281 34.6449V18.1688H42.0448L42.229 19.0449ZM42.4839 27.0152C42.8239 27.3826 43.3198 27.6794 44.1556 27.6794C45.4589 27.6794 46.3373 26.2662 46.3373 24.3725C46.3373 22.5212 45.4448 21.0797 44.1556 21.0797C43.3481 21.0797 42.8381 21.3623 42.4698 21.7722L42.4839 27.0152Z" fill="#6461FC"/>
</g>
</svg>
