<svg width="59" height="40" viewBox="0 0 59 40" fill="none" xmlns="http://www.w3.org/2000/svg">
<rect width="58.3333" height="40" rx="4" fill="#6461FC"/>
<path fill-rule="evenodd" clip-rule="evenodd" d="M31.3421 13.5704L28.3789 14.2063V11.8039L31.3421 11.1797V13.5704ZM19.3003 12.5458L16.4197 13.1582L16.4079 22.5913C16.4079 24.3343 17.7183 25.6179 19.4655 25.6179C20.4336 25.6179 21.1419 25.4413 21.5315 25.2293V22.8386C21.1537 22.9917 19.2885 23.5335 19.2885 21.7905V17.6098H21.5315V15.1013H19.2885L19.3003 12.5458ZM50.833 20.2949C50.833 17.28 49.3691 14.9011 46.5712 14.9011C43.7615 14.9011 42.0615 17.28 42.0615 20.2713C42.0615 23.8161 44.0684 25.6062 46.949 25.6062C48.3538 25.6062 49.4163 25.2882 50.2191 24.8407V22.4853C49.4163 22.8857 48.4955 23.1331 47.3268 23.1331C46.1816 23.1331 45.1663 22.7326 45.0365 21.343H50.8094C50.8094 21.2781 50.8136 21.1306 50.8185 20.9607L50.8185 20.9603L50.8186 20.9599L50.8186 20.9593C50.8252 20.7288 50.833 20.4573 50.833 20.2949ZM45.001 19.1761C45.001 17.8453 45.8156 17.2918 46.5593 17.2918C47.2795 17.2918 48.0468 17.8453 48.0468 19.1761H45.001ZM12.3233 17.4567C11.6976 17.4567 11.3198 17.6333 11.3198 18.0926C11.3198 18.5941 11.97 18.8147 12.7766 19.0884C14.0915 19.5345 15.8223 20.1217 15.8296 22.2969C15.8296 24.405 14.1414 25.618 11.6858 25.618C10.6705 25.618 9.56079 25.4178 8.46287 24.9467V22.1438C9.45454 22.6856 10.7059 23.086 11.6858 23.086C12.3469 23.086 12.8191 22.9093 12.8191 22.3676C12.8191 21.8121 12.1143 21.5582 11.2635 21.2517C9.96765 20.7849 8.33301 20.196 8.33301 18.234C8.33301 16.1495 9.92677 14.9011 12.3233 14.9011C13.3032 14.9011 14.2712 15.0542 15.2511 15.4429V18.2104C14.3539 17.7276 13.2205 17.4567 12.3233 17.4567ZM25.2032 15.9728L25.0143 15.1013H22.4643V25.406H25.4157V18.4224C26.1123 17.5156 27.2928 17.6804 27.6588 17.81V15.1013C27.281 14.96 25.8998 14.7009 25.2032 15.9728ZM28.3787 15.1014H31.3419V25.406H28.3787V15.1014ZM35.1905 15.8197C35.6037 15.4429 36.3474 14.9011 37.5044 14.9011C39.5704 14.9011 41.5183 16.7618 41.5301 20.1771C41.5301 23.9103 39.6058 25.6062 37.4926 25.6062C36.4537 25.6062 35.828 25.1704 35.403 24.8642L35.3912 28.1971L32.4398 28.8212V15.0896H35.037L35.1905 15.8197ZM35.403 22.4618C35.6863 22.768 36.0995 23.0153 36.796 23.0153C37.8821 23.0153 38.6141 21.8376 38.6141 20.2595C38.6141 18.7168 37.8703 17.5156 36.796 17.5156C36.1231 17.5156 35.6981 17.7511 35.3912 18.0926L35.403 22.4618Z" fill="white"/>
</svg>
