<svg width="41" height="40" viewBox="0 0 41 40" fill="none" xmlns="http://www.w3.org/2000/svg">
<g id="vuesax/bold/book">
<path id="Vector" d="M34.6666 26.6667V30.8333C34.6666 34.05 32.0499 36.6667 28.8333 36.6667H12.1666C8.94992 36.6667 6.33325 34.05 6.33325 30.8333V29.75C6.33325 27.1333 8.46659 25 11.0833 25H32.9999C33.9166 25 34.6666 25.75 34.6666 26.6667Z" fill="#2ECC9B"/>
<path id="Vector_2" d="M26.3333 3.33331H14.6666C7.99992 3.33331 6.33325 4.99998 6.33325 11.6666V24.3C7.59992 23.1833 9.26659 22.5 11.0833 22.5H32.9999C33.9166 22.5 34.6666 21.75 34.6666 20.8333V11.6666C34.6666 4.99998 32.9999 3.33331 26.3333 3.33331ZM22.1666 17.9166H13.8333C13.1499 17.9166 12.5833 17.35 12.5833 16.6666C12.5833 15.9833 13.1499 15.4166 13.8333 15.4166H22.1666C22.8499 15.4166 23.4166 15.9833 23.4166 16.6666C23.4166 17.35 22.8499 17.9166 22.1666 17.9166ZM27.1666 12.0833H13.8333C13.1499 12.0833 12.5833 11.5166 12.5833 10.8333C12.5833 10.15 13.1499 9.58331 13.8333 9.58331H27.1666C27.8499 9.58331 28.4166 10.15 28.4166 10.8333C28.4166 11.5166 27.8499 12.0833 27.1666 12.0833Z" fill="#2ECC9B"/>
</g>
</svg>
