<svg width="41" height="40" viewBox="0 0 41 40" fill="none" xmlns="http://www.w3.org/2000/svg">
<g id="Group">
<path id="Vector" d="M40.4972 20.0007C40.4972 30.102 33.0098 38.4529 23.2831 39.808C22.3736 39.9341 21.4431 40 20.4986 40C19.4083 40 18.3377 39.9131 17.2951 39.7449C7.77298 38.2118 0.5 29.9548 0.5 20.0007C0.5 8.95491 9.45459 0 20.5 0C31.5454 0 40.5 8.95491 40.5 20.0007H40.4972Z" fill="#1C1C1B"/>
<g id="layer1">
<path id="path1009" d="M8.61117 8.82037L17.8348 21.1526L8.55371 31.1796H10.6431L18.7695 22.4013L25.3348 31.1796H32.4438L22.7017 18.1537L31.341 8.82037H29.2516L21.7684 16.905L15.7216 8.82037H8.61256H8.61117ZM11.6829 10.3591H14.9481L29.3693 29.6409H26.1042L11.6829 10.3591Z" fill="white"/>
</g>
</g>
</svg>
