<svg width="41" height="40" viewBox="0 0 41 40" fill="none" xmlns="http://www.w3.org/2000/svg">
<g id="vuesax/bold/user-octagon">
<g id="user-octagon">
<path id="Vector" d="M7.98281 9.74967L17.8828 4.03301C19.4995 3.09967 21.4995 3.09967 23.1328 4.03301L33.0161 9.74967C34.6328 10.683 35.6328 12.4163 35.6328 14.2997V25.6997C35.6328 27.5663 34.6328 29.2997 33.0161 30.2497L23.1161 35.9663C21.4995 36.8997 19.4995 36.8997 17.8661 35.9663L7.96615 30.2497C6.34948 29.3163 5.34948 27.583 5.34948 25.6997V14.2997C5.36615 12.4163 6.36615 10.6997 7.98281 9.74967ZM20.4995 12.233C18.3495 12.233 16.6161 13.9663 16.6161 16.1163C16.6161 18.2663 18.3495 19.9997 20.4995 19.9997C22.6495 19.9997 24.3828 18.2663 24.3828 16.1163C24.3828 13.983 22.6495 12.233 20.4995 12.233ZM16.0328 27.7663H24.9661C26.3161 27.7663 27.0995 26.2663 26.3495 25.1497C25.2161 23.4663 23.0161 22.333 20.4995 22.333C17.9828 22.333 15.7828 23.4663 14.6495 25.1497C13.8995 26.2497 14.6995 27.7663 16.0328 27.7663Z" fill="#2ECC9B"/>
</g>
</g>
</svg>
