<svg width="65" height="20" viewBox="0 0 65 20" fill="none" xmlns="http://www.w3.org/2000/svg">
<g id="g4158">
<path id="polygon9" d="M28.2696 19.7121H23.0781L26.3252 0.351562H31.5164L28.2696 19.7121Z" fill="white"/>
<path id="path11" d="M47.0885 0.824254C46.0645 0.432522 44.4404 0 42.4322 0C37.3055 0 33.6953 2.63619 33.6732 6.40515C33.6306 9.18587 36.2579 10.7304 38.223 11.6575C40.2315 12.605 40.9143 13.2234 40.9143 14.0679C40.8938 15.3649 39.2913 15.9628 37.7966 15.9628C35.724 15.9628 34.6134 15.6545 32.9257 14.9329L32.2421 14.6236L31.5156 18.9696C32.7332 19.5045 34.9765 19.9792 37.3055 20C42.7527 20 46.299 17.4046 46.341 13.3882C46.3617 11.1842 44.9744 9.49548 41.9834 8.11552C40.1676 7.22967 39.0556 6.63236 39.0556 5.72598C39.0769 4.902 39.9962 4.05803 42.0458 4.05803C43.7335 4.0167 44.9735 4.40788 45.9129 4.79934L46.3825 5.00493L47.0885 0.824254Z" fill="white"/>
<path id="path13" d="M53.989 12.8533C54.4166 11.7411 56.0617 7.43642 56.0617 7.43642C56.0401 7.47776 56.4884 6.30366 56.7447 5.58288L57.1075 7.2511C57.1075 7.2511 58.0906 11.8854 58.3041 12.8533C57.4928 12.8533 55.0144 12.8533 53.989 12.8533ZM60.3972 0.351562H56.3816C55.1433 0.351562 54.2025 0.701412 53.6682 1.95791L45.957 19.7118H51.4042C51.4042 19.7118 52.301 17.3223 52.4938 16.8076C53.0914 16.8076 58.3904 16.8076 59.1592 16.8076C59.3082 17.4873 59.7786 19.7118 59.7786 19.7118H64.5854L60.3972 0.351562Z" fill="white"/>
<path id="path15" d="M18.743 0.350586L13.6588 13.5526L13.1033 10.8751C12.1633 7.78557 9.21546 4.42888 5.92578 2.75984L10.5827 19.6906H16.0724L24.2325 0.350586H18.743Z" fill="white"/>
<path id="path17" d="M8.93795 0.351562H0.585449L0.5 0.742748C7.01548 2.34937 11.3305 6.22208 13.1034 10.8769L11.2877 1.97899C10.9888 0.742474 10.0701 0.392351 8.93795 0.351562Z" fill="white"/>
</g>
</svg>
