<svg width="33" height="32" viewBox="0 0 33 32" fill="none" xmlns="http://www.w3.org/2000/svg">
<g id="vuesax/linear/empty-wallet">
<g id="Group">
<path id="Vector" d="M24.554 18.0663C23.994 18.613 23.674 19.3997 23.754 20.2397C23.874 21.6797 25.194 22.733 26.634 22.733H29.1673V24.3197C29.1673 27.0797 26.914 29.333 24.154 29.333H8.84732C6.08732 29.333 3.83398 27.0797 3.83398 24.3197V15.3464C3.83398 12.5864 6.08732 10.333 8.84732 10.333H24.154C26.914 10.333 29.1673 12.5864 29.1673 15.3464V17.2664H26.474C25.7273 17.2664 25.0473 17.5597 24.554 18.0663Z" stroke="#646464" stroke-width="1.5" stroke-linecap="round" stroke-linejoin="round"/>
<path id="Vector_2" d="M3.83398 16.5467V10.4535C3.83398 8.86681 4.80732 7.45341 6.28732 6.89341L16.874 2.89341C18.5273 2.26675 20.3007 3.49345 20.3007 5.26679V10.3334" stroke="#646464" stroke-width="1.5" stroke-linecap="round" stroke-linejoin="round"/>
</g>
<path id="Vector_3" d="M30.5791 18.6265V21.3733C30.5791 22.1066 29.9924 22.7066 29.2457 22.7332H26.6324C25.1924 22.7332 23.8724 21.6799 23.7524 20.2399C23.6724 19.3999 23.9924 18.6132 24.5524 18.0666C25.0457 17.5599 25.7257 17.2666 26.4724 17.2666H29.2457C29.9924 17.2933 30.5791 17.8932 30.5791 18.6265Z" stroke="#646464" stroke-width="1.5" stroke-linecap="round" stroke-linejoin="round"/>
<path id="Vector_4" d="M9.83398 16H19.1673" stroke="#646464" stroke-width="1.5" stroke-linecap="round" stroke-linejoin="round"/>
</g>
</svg>
