<svg width="32" height="33" viewBox="0 0 32 33" fill="none" xmlns="http://www.w3.org/2000/svg">
<g id="vuesax/bold/wallet">
<g id="wallet">
<path id="Vector" d="M15.9203 3.44677L12.7069 10.9268H9.49359C8.96026 10.9268 8.44026 10.9668 7.93359 11.0734L9.26693 7.87343L9.32026 7.75343L9.40026 7.5401C9.44026 7.44677 9.46693 7.36677 9.50693 7.3001C11.0536 3.71343 12.7869 2.59343 15.9203 3.44677Z" fill="#18D157"/>
<path id="Vector_2" d="M24.9735 11.287L24.9468 11.2737C24.1468 11.047 23.3335 10.927 22.5068 10.927H14.1602L17.1602 3.95368L17.2002 3.86035C17.3868 3.92702 17.5868 4.02035 17.7868 4.08702L20.7335 5.32702C22.3735 6.00702 23.5202 6.71369 24.2268 7.56702C24.3468 7.72702 24.4535 7.87368 24.5602 8.04702C24.6802 8.23368 24.7735 8.42035 24.8268 8.62035C24.8802 8.74035 24.9202 8.84702 24.9468 8.96702C25.1468 9.64702 25.1602 10.4204 24.9735 11.287Z" fill="#18D157"/>
<path id="Vector_3" d="M16.6934 24.0468H17.0267C17.4267 24.0468 17.76 23.6868 17.76 23.2468C17.76 22.6868 17.6 22.6068 17.2534 22.4734L16.6934 22.2734V24.0468Z" fill="#18D157"/>
<path id="Vector_4" d="M24.3863 13.1934C23.7863 13.0201 23.1597 12.9268 22.5063 12.9268H9.49299C8.58633 12.9268 7.73299 13.1001 6.93299 13.4468C4.61299 14.4468 2.98633 16.7534 2.98633 19.4334V22.0334C2.98633 22.3534 3.01299 22.6601 3.05299 22.9801C3.34633 27.2201 5.61299 29.4868 9.85299 29.7668C10.1597 29.8068 10.4663 29.8334 10.7997 29.8334H21.1997C26.133 29.8334 28.733 27.4868 28.9863 22.8201C28.9997 22.5668 29.013 22.3001 29.013 22.0334V19.4334C29.013 16.4868 27.053 14.0068 24.3863 13.1934ZM17.7063 21.1668C18.3197 21.3801 19.1463 21.8334 19.1463 23.2468C19.1463 24.4601 18.1997 25.4334 17.0263 25.4334H16.693V25.7268C16.693 26.1134 16.3863 26.4201 15.9997 26.4201C15.613 26.4201 15.3063 26.1134 15.3063 25.7268V25.4334H15.1863C13.9063 25.4334 12.853 24.3534 12.853 23.0201C12.853 22.6334 13.1597 22.3268 13.5463 22.3268C13.933 22.3268 14.2397 22.6334 14.2397 23.0201C14.2397 23.5801 14.6663 24.0468 15.1863 24.0468H15.3063V21.7934L14.293 21.4334C13.6797 21.2201 12.853 20.7668 12.853 19.3534C12.853 18.1401 13.7997 17.1668 14.973 17.1668H15.3063V16.8734C15.3063 16.4868 15.613 16.1801 15.9997 16.1801C16.3863 16.1801 16.693 16.4868 16.693 16.8734V17.1668H16.813C18.093 17.1668 19.1463 18.2468 19.1463 19.5801C19.1463 19.9668 18.8397 20.2734 18.453 20.2734C18.0663 20.2734 17.7597 19.9668 17.7597 19.5801C17.7597 19.0201 17.333 18.5534 16.813 18.5534H16.693V20.8068L17.7063 21.1668Z" fill="#18D157"/>
<path id="Vector_5" d="M14.2402 19.3537C14.2402 19.9137 14.4002 19.9937 14.7469 20.127L15.3069 20.327V18.5537H14.9736C14.5602 18.5537 14.2402 18.9137 14.2402 19.3537Z" fill="#18D157"/>
</g>
</g>
</svg>
