<svg width="41" height="40" viewBox="0 0 41 40" fill="none" xmlns="http://www.w3.org/2000/svg">
<g id="Group">
<path id="Vector" d="M20.5455 0H20.4545C9.43391 0 0.5 8.93391 0.5 19.9545V20.0455C0.5 31.0661 9.43391 40 20.4545 40H20.5455C31.5661 40 40.5 31.0661 40.5 20.0455V19.9545C40.5 8.93391 31.5661 0 20.5455 0Z" fill="#00E510"/>
<g id="Group_2">
<path id="Vector_2" d="M24.3989 25.8501C19.2796 25.8501 15.1147 21.6838 15.1133 16.5645C15.1147 15.2668 16.1713 14.2115 17.4662 14.2115C17.5994 14.2115 17.7311 14.2228 17.8572 14.2452C18.1347 14.2914 18.3982 14.3853 18.6406 14.5269C18.6756 14.5479 18.6994 14.5815 18.7051 14.6208L19.246 18.0303C19.253 18.071 19.2404 18.1102 19.2138 18.1397C18.9153 18.4704 18.5341 18.7086 18.1095 18.8277L17.9049 18.8852L17.9819 19.0828C18.6798 20.8598 20.1008 22.2794 21.8792 22.9801L22.0768 23.0585L22.1343 22.8539C22.2534 22.4293 22.4916 22.0481 22.8224 21.7496C22.8462 21.7272 22.8784 21.716 22.9106 21.716C22.9176 21.716 22.9247 21.716 22.9331 21.7174L26.3427 22.2584C26.3833 22.2654 26.4169 22.2878 26.438 22.3228C26.5781 22.5653 26.672 22.8301 26.7196 23.1076C26.7421 23.2309 26.7519 23.3613 26.7519 23.4972C26.7519 24.7935 25.6966 25.8487 24.3989 25.8501Z" fill="#FDFDFD"/>
<path id="Vector_3" d="M33.4768 18.8768C33.2007 15.7573 31.7713 12.8634 29.452 10.7291C27.1187 8.58213 24.0917 7.39935 20.9259 7.39935C13.9778 7.39935 8.32459 13.0526 8.32459 20.0007C8.32459 22.3326 8.96782 24.6043 10.1856 26.583L7.46973 32.595L16.1654 31.6687C17.6775 32.2881 19.2779 32.602 20.9245 32.602C21.3575 32.602 21.8018 32.5796 22.2474 32.5334C22.6398 32.4913 23.0364 32.4297 23.426 32.3512C29.2446 31.1754 33.4922 26.0113 33.5259 20.068V20.0007C33.5259 19.6223 33.509 19.2439 33.4754 18.8768H33.4768ZM16.5003 29.0299L11.6893 29.5428L13.1258 26.3602L12.8385 25.9748C12.8175 25.9468 12.7964 25.9188 12.7726 25.8865C11.5254 24.1642 10.8667 22.1294 10.8667 20.0021C10.8667 14.4554 15.3792 9.94288 20.9259 9.94288C26.1223 9.94288 30.5269 13.9971 30.9515 19.1725C30.9739 19.4499 30.9865 19.7288 30.9865 20.0035C30.9865 20.082 30.9851 20.159 30.9837 20.2417C30.8772 24.8817 27.6358 28.8225 23.1009 29.8259C22.7547 29.9029 22.4002 29.9618 22.047 29.9996C21.6799 30.0417 21.3029 30.0627 20.9287 30.0627C19.596 30.0627 18.3011 29.8048 17.0777 29.2947C16.9418 29.2401 16.8086 29.1812 16.6839 29.121L16.5017 29.0327L16.5003 29.0299Z" fill="#FDFDFD"/>
</g>
</g>
</svg>
